{"glyphs":{"0":{"ha":827,"x_min":42,"x_max":785,"o":"m 415 -18 q 258 21 327 -18 q 141 130 190 60 q 67 291 92 199 q 42 486 42 382 q 67 682 42 590 q 141 843 92 774 q 258 951 190 912 q 415 990 327 990 q 570 951 501 990 q 687 843 639 912 q 760 682 735 774 q 785 486 785 590 q 760 291 785 382 q 687 130 735 199 q 570 21 639 60 q 415 -18 501 -18 m 415 79 q 568 135 506 79 q 662 284 631 192 q 693 486 693 377 q 661 693 693 601 q 566 839 628 785 q 415 893 504 893 q 291 860 344 893 q 203 771 238 828 q 151 641 169 714 q 134 486 134 567 q 166 284 134 376 q 260 135 198 191 q 415 79 323 79 z "},"1":{"ha":368,"x_min":56,"x_max":257,"o":"m 160 0 l 160 875 l 56 875 l 83 972 l 257 972 l 257 0 l 160 0 z "},"2":{"ha":756,"x_min":56,"x_max":673,"o":"m 56 0 l 56 86 q 181 202 113 139 q 316 332 249 265 q 438 464 383 399 q 527 589 494 530 q 561 692 561 647 q 534 793 561 747 q 463 866 508 838 q 363 893 418 893 q 263 866 308 893 q 190 793 217 838 q 163 692 163 747 l 66 692 q 107 843 66 776 q 215 950 147 910 q 363 990 282 990 q 511 950 444 990 q 618 842 578 910 q 658 692 658 775 q 632 584 658 643 q 562 463 606 526 q 462 336 517 400 q 346 211 406 272 q 228 97 285 151 l 673 97 l 673 0 l 56 0 z "},"3":{"ha":683,"x_min":42,"x_max":641,"o":"m 341 -18 q 185 21 252 -18 q 80 126 117 60 q 42 272 42 192 l 139 272 q 164 175 139 219 q 233 105 188 131 q 341 79 278 79 q 440 105 394 79 q 515 175 486 131 q 544 272 544 219 q 510 382 544 338 q 419 448 477 426 q 285 470 360 470 l 285 551 q 452 595 389 551 q 515 724 515 639 q 489 809 515 771 q 423 870 464 847 q 336 894 383 894 q 247 870 290 894 q 177 809 204 847 q 151 724 151 771 l 53 724 q 76 827 53 779 q 139 913 99 876 q 229 970 178 949 q 335 991 280 991 q 471 955 408 991 q 573 858 534 919 q 612 724 612 798 q 575 595 612 653 q 476 514 538 538 q 567 459 530 496 q 622 375 603 423 q 641 272 641 327 q 599 126 641 192 q 489 21 558 60 q 341 -18 421 -18 z "},"4":{"ha":758,"x_min":56,"x_max":674,"o":"m 475 0 l 475 273 l 56 273 l 56 372 l 450 972 l 572 972 l 572 370 l 674 370 l 674 273 l 572 273 l 572 0 l 475 0 m 171 372 l 475 370 l 473 833 l 171 372 z "},"5":{"ha":769,"x_min":49,"x_max":685,"o":"m 367 -18 q 206 25 278 -18 q 91 141 133 68 q 49 300 49 213 l 146 300 q 176 189 146 240 q 256 109 206 139 q 367 79 306 79 q 478 109 428 79 q 558 189 528 139 q 588 300 588 240 q 559 411 588 361 q 478 492 531 462 q 353 522 426 522 l 117 522 l 209 972 l 664 972 l 664 875 l 288 875 l 237 619 l 350 619 q 525 576 449 617 q 643 464 600 535 q 685 300 685 393 q 661 177 685 235 q 592 75 636 119 q 491 7 548 31 q 367 -18 433 -18 z "},"6":{"ha":748,"x_min":35,"x_max":706,"o":"m 369 -18 q 202 27 278 -18 q 80 149 126 73 q 35 318 35 226 q 47 409 35 372 q 84 494 60 447 l 360 972 l 473 972 l 271 622 q 394 643 332 646 q 512 616 456 641 q 612 548 568 591 q 681 446 656 504 q 706 318 706 388 q 680 188 706 249 q 607 81 653 127 q 500 8 561 35 q 369 -18 439 -18 m 369 79 q 493 113 439 79 q 578 201 547 147 q 609 319 609 256 q 577 438 609 384 q 491 524 545 492 q 371 556 437 556 q 249 523 303 556 q 163 436 194 490 q 132 319 132 382 q 165 197 132 251 q 252 111 198 142 q 369 79 306 79 z "},"7":{"ha":742,"x_min":28,"x_max":715,"o":"m 98 0 l 602 875 l 28 875 l 28 972 l 715 972 l 715 875 l 209 0 l 98 0 z "},"8":{"ha":731,"x_min":56,"x_max":676,"o":"m 365 -18 q 209 21 280 -18 q 97 125 139 60 q 56 270 56 190 q 99 412 56 348 q 210 512 142 476 q 117 601 153 544 q 80 726 80 658 q 118 859 80 799 q 222 955 157 919 q 365 990 287 990 q 509 955 444 990 q 612 859 574 919 q 651 726 651 799 q 614 601 651 658 q 520 512 578 544 q 633 412 590 476 q 676 270 676 348 q 634 125 676 191 q 522 21 592 60 q 365 -18 451 -18 m 365 79 q 469 105 423 79 q 544 174 516 131 q 572 270 572 217 q 544 366 572 323 q 469 435 516 409 q 365 460 423 460 q 262 435 309 460 q 187 366 215 409 q 159 270 159 323 q 187 174 159 217 q 262 105 215 131 q 365 79 309 79 m 365 558 q 457 580 416 558 q 523 641 498 603 q 547 726 547 679 q 523 810 547 772 q 457 870 498 848 q 365 893 416 893 q 274 870 315 893 q 208 810 233 848 q 183 726 183 772 q 208 641 183 679 q 274 580 233 603 q 365 558 315 558 z "},"9":{"ha":731,"x_min":42,"x_max":690,"o":"m 244 0 l 459 372 q 312 355 385 344 q 177 407 238 365 q 79 516 116 449 q 42 665 42 582 q 67 791 42 732 q 137 895 92 850 q 240 965 181 940 q 366 990 299 990 q 528 946 455 990 q 645 828 601 902 q 690 665 690 755 q 677 578 690 615 q 641 497 665 542 l 356 0 l 244 0 m 365 438 q 482 469 431 438 q 564 553 534 501 q 594 665 594 605 q 562 782 594 730 q 478 864 531 833 q 366 894 426 894 q 248 862 299 894 q 166 777 196 830 q 137 665 137 725 q 167 550 137 602 q 250 468 198 499 q 365 438 301 438 z "},"A":{"ha":940,"x_min":56,"x_max":884,"o":"m 409 972 l 530 972 l 884 0 l 781 0 l 705 208 l 235 208 l 159 0 l 56 0 l 409 972 m 270 306 l 669 306 l 469 853 l 270 306 z "},"Á":{"ha":940,"x_min":56,"x_max":884,"o":"m 409 972 l 530 972 l 884 0 l 781 0 l 705 208 l 235 208 l 159 0 l 56 0 l 409 972 m 270 306 l 669 306 l 469 853 l 270 306 m 446 1049 l 501 1249 l 599 1249 l 511 1049 l 446 1049 z "},"Ă":{"ha":940,"x_min":56,"x_max":884,"o":"m 409 972 l 530 972 l 884 0 l 781 0 l 705 208 l 235 208 l 159 0 l 56 0 l 409 972 m 270 306 l 669 306 l 469 853 l 270 306 m 469 1033 q 354 1065 406 1033 q 270 1148 301 1096 q 239 1264 239 1201 l 308 1264 q 331 1182 308 1219 q 390 1124 353 1146 q 469 1103 427 1103 q 550 1124 514 1103 q 609 1183 587 1146 q 631 1264 631 1219 l 700 1264 q 668 1147 700 1199 q 584 1064 637 1094 q 469 1033 532 1033 z "},"Ặ":{"ha":940,"x_min":56,"x_max":884,"o":"m 409 972 l 530 972 l 884 0 l 781 0 l 705 208 l 235 208 l 159 0 l 56 0 l 409 972 m 270 306 l 669 306 l 469 853 l 270 306 m 470 -274 q 430 -258 447 -274 q 414 -219 414 -242 q 430 -180 414 -195 q 470 -164 447 -164 q 509 -180 493 -164 q 526 -219 526 -195 q 510 -258 526 -242 q 470 -274 494 -274 m 469 1033 q 354 1065 406 1033 q 270 1148 301 1096 q 239 1264 239 1201 l 308 1264 q 331 1182 308 1219 q 390 1124 353 1146 q 469 1103 427 1103 q 550 1124 514 1103 q 609 1183 587 1146 q 631 1264 631 1219 l 700 1264 q 668 1147 700 1199 q 584 1064 637 1094 q 469 1033 532 1033 z "},"Ǎ":{"ha":940,"x_min":56,"x_max":884,"o":"m 409 972 l 530 972 l 884 0 l 781 0 l 705 208 l 235 208 l 159 0 l 56 0 l 409 972 m 270 306 l 669 306 l 469 853 l 270 306 m 416 1049 l 282 1249 l 347 1249 l 469 1108 l 590 1249 l 655 1249 l 522 1049 l 416 1049 z "},"Â":{"ha":940,"x_min":56,"x_max":884,"o":"m 409 972 l 530 972 l 884 0 l 781 0 l 705 208 l 235 208 l 159 0 l 56 0 l 409 972 m 270 306 l 669 306 l 469 853 l 270 306 m 523 1249 l 657 1049 l 592 1049 l 469 1190 l 349 1049 l 284 1049 l 417 1249 l 523 1249 z "},"Ậ":{"ha":940,"x_min":56,"x_max":884,"o":"m 409 972 l 530 972 l 884 0 l 781 0 l 705 208 l 235 208 l 159 0 l 56 0 l 409 972 m 270 306 l 669 306 l 469 853 l 270 306 m 470 -274 q 430 -258 447 -274 q 414 -219 414 -242 q 430 -180 414 -195 q 470 -164 447 -164 q 509 -180 493 -164 q 526 -219 526 -195 q 510 -258 526 -242 q 470 -274 494 -274 m 523 1249 l 657 1049 l 592 1049 l 469 1190 l 349 1049 l 284 1049 l 417 1249 l 523 1249 z "},"Ä":{"ha":940,"x_min":56,"x_max":884,"o":"m 409 972 l 530 972 l 884 0 l 781 0 l 705 208 l 235 208 l 159 0 l 56 0 l 409 972 m 270 306 l 669 306 l 469 853 l 270 306 m 361 1028 q 320 1044 338 1028 q 303 1083 303 1060 q 320 1123 303 1106 q 361 1140 338 1140 q 400 1123 384 1140 q 417 1083 417 1106 q 400 1044 417 1060 q 361 1028 384 1028 m 579 1028 q 539 1044 556 1028 q 522 1083 522 1060 q 539 1123 522 1106 q 579 1140 556 1140 q 619 1123 602 1140 q 635 1083 635 1106 q 619 1044 635 1060 q 579 1028 602 1028 z "},"Ǟ":{"ha":940,"x_min":56,"x_max":884,"o":"m 409 972 l 530 972 l 884 0 l 781 0 l 705 208 l 235 208 l 159 0 l 56 0 l 409 972 m 270 306 l 669 306 l 469 853 l 270 306 m 361 1028 q 320 1044 338 1028 q 303 1083 303 1060 q 320 1123 303 1106 q 361 1140 338 1140 q 400 1123 384 1140 q 417 1083 417 1106 q 400 1044 417 1060 q 361 1028 384 1028 m 579 1028 q 539 1044 556 1028 q 522 1083 522 1060 q 539 1123 522 1106 q 579 1140 556 1140 q 619 1123 602 1140 q 635 1083 635 1106 q 619 1044 635 1060 q 579 1028 602 1028 m 235 1317 l 704 1317 l 704 1238 l 235 1238 l 235 1317 z "},"Ạ":{"ha":940,"x_min":56,"x_max":884,"o":"m 409 972 l 530 972 l 884 0 l 781 0 l 705 208 l 235 208 l 159 0 l 56 0 l 409 972 m 270 306 l 669 306 l 469 853 l 270 306 m 470 -274 q 430 -258 447 -274 q 414 -219 414 -242 q 430 -180 414 -195 q 470 -164 447 -164 q 509 -180 493 -164 q 526 -219 526 -195 q 510 -258 526 -242 q 470 -274 494 -274 z "},"À":{"ha":940,"x_min":56,"x_max":884,"o":"m 409 972 l 530 972 l 884 0 l 781 0 l 705 208 l 235 208 l 159 0 l 56 0 l 409 972 m 270 306 l 669 306 l 469 853 l 270 306 m 335 1249 l 433 1249 l 488 1049 l 424 1049 l 335 1249 z "},"Ā":{"ha":940,"x_min":56,"x_max":884,"o":"m 409 972 l 530 972 l 884 0 l 781 0 l 705 208 l 235 208 l 159 0 l 56 0 l 409 972 m 270 306 l 669 306 l 469 853 l 270 306 m 235 1169 l 704 1169 l 704 1090 l 235 1090 l 235 1169 z "},"Ą":{"ha":940,"x_min":56,"x_max":949,"o":"m 409 972 l 530 972 l 884 0 l 781 0 l 705 208 l 235 208 l 159 0 l 56 0 l 409 972 m 270 306 l 669 306 l 469 853 l 270 306 m 803 -282 q 738 -263 766 -281 q 693 -215 709 -244 q 678 -154 678 -186 q 687 -107 678 -130 q 715 -65 696 -84 l 832 52 l 884 0 q 821 -63 846 -38 q 782 -103 796 -87 q 762 -132 767 -119 q 756 -157 756 -144 q 770 -192 756 -176 q 807 -209 783 -208 q 856 -190 833 -209 q 878 -138 878 -170 l 949 -138 q 929 -211 949 -178 q 877 -263 910 -244 q 803 -282 844 -282 z "},"Å":{"ha":940,"x_min":56,"x_max":884,"o":"m 409 972 l 530 972 l 884 0 l 781 0 l 705 208 l 235 208 l 159 0 l 56 0 l 409 972 m 270 306 l 669 306 l 469 853 l 270 306 m 469 1038 q 391 1071 424 1038 q 359 1149 359 1104 q 374 1204 359 1179 q 414 1244 389 1229 q 469 1259 439 1259 q 547 1227 515 1259 q 579 1149 579 1194 q 547 1070 579 1103 q 469 1038 515 1038 m 469 1092 q 509 1109 492 1092 q 525 1149 525 1126 q 509 1188 525 1172 q 469 1203 492 1203 q 430 1188 446 1203 q 414 1149 414 1172 q 430 1109 414 1126 q 469 1092 446 1092 z "},"Ã":{"ha":940,"x_min":56,"x_max":884,"o":"m 409 972 l 530 972 l 884 0 l 781 0 l 705 208 l 235 208 l 159 0 l 56 0 l 409 972 m 270 306 l 669 306 l 469 853 l 270 306 m 577 1063 q 520 1080 551 1063 q 457 1117 489 1096 q 398 1153 425 1138 q 353 1163 371 1167 q 325 1140 335 1159 q 322 1095 315 1122 l 256 1077 q 252 1153 242 1117 q 291 1211 263 1189 q 360 1234 319 1234 q 418 1219 387 1234 q 481 1184 449 1203 q 540 1149 513 1164 q 585 1133 567 1133 q 609 1145 601 1133 q 620 1174 618 1158 q 617 1201 622 1190 l 683 1222 q 686 1144 697 1181 q 647 1086 676 1108 q 577 1063 618 1063 z "},"Æ":{"ha":1124,"x_min":56,"x_max":1055,"o":"m 56 0 l 409 972 l 1055 972 l 1055 875 l 658 875 l 658 535 l 988 535 l 988 438 l 658 438 l 658 97 l 1055 97 l 1055 0 l 560 0 l 560 208 l 235 208 l 159 0 l 56 0 m 270 306 l 560 306 l 560 875 l 478 875 l 270 306 z "},"Ǣ":{"ha":1124,"x_min":56,"x_max":1055,"o":"m 56 0 l 409 972 l 1055 972 l 1055 875 l 658 875 l 658 535 l 988 535 l 988 438 l 658 438 l 658 97 l 1055 97 l 1055 0 l 560 0 l 560 208 l 235 208 l 159 0 l 56 0 m 270 306 l 560 306 l 560 875 l 478 875 l 270 306 m 497 1169 l 967 1169 l 967 1090 l 497 1090 l 497 1169 z "},"B":{"ha":774,"x_min":83,"x_max":719,"o":"m 83 0 l 83 972 l 412 972 q 541 943 483 972 q 633 859 599 915 q 667 726 667 804 q 651 641 667 681 q 610 573 635 601 q 554 536 584 544 q 628 498 597 525 q 680 433 660 470 q 709 355 700 396 q 719 274 719 314 q 683 131 719 192 q 588 34 647 69 q 455 0 528 0 l 83 0 m 181 87 l 447 87 q 539 113 498 87 q 605 185 581 140 q 630 289 630 231 q 605 386 630 340 q 539 459 581 431 q 447 488 498 488 l 181 488 l 181 87 m 181 573 l 403 573 q 521 613 472 573 q 570 726 570 653 q 521 846 570 807 q 403 885 472 885 l 181 885 l 181 573 z "},"Ḅ":{"ha":774,"x_min":83,"x_max":719,"o":"m 83 0 l 83 972 l 412 972 q 541 943 483 972 q 633 859 599 915 q 667 726 667 804 q 651 641 667 681 q 610 573 635 601 q 554 536 584 544 q 628 498 597 525 q 680 433 660 470 q 709 355 700 396 q 719 274 719 314 q 683 131 719 192 q 588 34 647 69 q 455 0 528 0 l 83 0 m 181 87 l 447 87 q 539 113 498 87 q 605 185 581 140 q 630 289 630 231 q 605 386 630 340 q 539 459 581 431 q 447 488 498 488 l 181 488 l 181 87 m 181 573 l 403 573 q 521 613 472 573 q 570 726 570 653 q 521 846 570 807 q 403 885 472 885 l 181 885 l 181 573 m 388 -274 q 348 -258 365 -274 q 332 -219 332 -242 q 348 -180 332 -195 q 388 -164 365 -164 q 427 -180 411 -164 q 444 -219 444 -195 q 428 -258 444 -242 q 388 -274 412 -274 z "},"C":{"ha":985,"x_min":56,"x_max":915,"o":"m 533 -18 q 348 21 435 -18 q 195 130 261 60 q 93 290 130 199 q 56 486 56 382 q 93 682 56 590 q 195 843 130 774 q 348 951 261 912 q 533 990 435 990 q 751 935 651 990 q 915 790 850 881 l 829 743 q 699 852 778 812 q 533 893 620 893 q 384 861 453 893 q 263 772 315 828 q 182 642 211 716 q 153 486 153 569 q 182 328 153 402 q 264 199 212 255 q 386 111 317 142 q 533 79 455 79 q 701 120 624 79 q 829 228 778 162 l 915 182 q 751 36 850 91 q 533 -18 651 -18 z "},"Ć":{"ha":985,"x_min":56,"x_max":915,"o":"m 533 -18 q 348 21 435 -18 q 195 130 261 60 q 93 290 130 199 q 56 486 56 382 q 93 682 56 590 q 195 843 130 774 q 348 951 261 912 q 533 990 435 990 q 751 935 651 990 q 915 790 850 881 l 829 743 q 699 852 778 812 q 533 893 620 893 q 384 861 453 893 q 263 772 315 828 q 182 642 211 716 q 153 486 153 569 q 182 328 153 402 q 264 199 212 255 q 386 111 317 142 q 533 79 455 79 q 701 120 624 79 q 829 228 778 162 l 915 182 q 751 36 850 91 q 533 -18 651 -18 m 510 1049 l 565 1249 l 663 1249 l 575 1049 l 510 1049 z "},"Č":{"ha":985,"x_min":56,"x_max":915,"o":"m 533 -18 q 348 21 435 -18 q 195 130 261 60 q 93 290 130 199 q 56 486 56 382 q 93 682 56 590 q 195 843 130 774 q 348 951 261 912 q 533 990 435 990 q 751 935 651 990 q 915 790 850 881 l 829 743 q 699 852 778 812 q 533 893 620 893 q 384 861 453 893 q 263 772 315 828 q 182 642 211 716 q 153 486 153 569 q 182 328 153 402 q 264 199 212 255 q 386 111 317 142 q 533 79 455 79 q 701 120 624 79 q 829 228 778 162 l 915 182 q 751 36 850 91 q 533 -18 651 -18 m 480 1049 l 346 1249 l 410 1249 l 533 1108 l 653 1249 l 719 1249 l 586 1049 l 480 1049 z "},"Ç":{"ha":985,"x_min":56,"x_max":915,"o":"m 533 -18 q 348 21 435 -18 q 195 130 261 60 q 93 290 130 199 q 56 486 56 382 q 93 682 56 590 q 195 843 130 774 q 348 951 261 912 q 533 990 435 990 q 751 935 651 990 q 915 790 850 881 l 829 743 q 699 852 778 812 q 533 893 620 893 q 384 861 453 893 q 263 772 315 828 q 182 642 211 716 q 153 486 153 569 q 182 328 153 402 q 264 199 212 255 q 386 111 317 142 q 533 79 455 79 q 701 120 624 79 q 829 228 778 162 l 915 182 q 751 36 850 91 q 533 -18 651 -18 m 535 -255 q 451 -244 491 -267 q 400 -177 412 -221 l 460 -161 q 482 -190 465 -180 q 519 -194 499 -199 q 548 -172 538 -189 q 553 -135 558 -155 q 531 -107 548 -116 q 494 -101 514 -97 l 428 -110 l 513 38 l 567 7 l 538 -44 q 585 -71 565 -51 q 613 -119 606 -91 q 602 -203 625 -164 q 535 -255 579 -243 z "},"Ĉ":{"ha":985,"x_min":56,"x_max":915,"o":"m 533 -18 q 348 21 435 -18 q 195 130 261 60 q 93 290 130 199 q 56 486 56 382 q 93 682 56 590 q 195 843 130 774 q 348 951 261 912 q 533 990 435 990 q 751 935 651 990 q 915 790 850 881 l 829 743 q 699 852 778 812 q 533 893 620 893 q 384 861 453 893 q 263 772 315 828 q 182 642 211 716 q 153 486 153 569 q 182 328 153 402 q 264 199 212 255 q 386 111 317 142 q 533 79 455 79 q 701 120 624 79 q 829 228 778 162 l 915 182 q 751 36 850 91 q 533 -18 651 -18 m 587 1249 l 721 1049 l 656 1049 l 533 1190 l 413 1049 l 348 1049 l 481 1249 l 587 1249 z "},"Ċ":{"ha":985,"x_min":56,"x_max":915,"o":"m 533 -18 q 348 21 435 -18 q 195 130 261 60 q 93 290 130 199 q 56 486 56 382 q 93 682 56 590 q 195 843 130 774 q 348 951 261 912 q 533 990 435 990 q 751 935 651 990 q 915 790 850 881 l 829 743 q 699 852 778 812 q 533 893 620 893 q 384 861 453 893 q 263 772 315 828 q 182 642 211 716 q 153 486 153 569 q 182 328 153 402 q 264 199 212 255 q 386 111 317 142 q 533 79 455 79 q 701 120 624 79 q 829 228 778 162 l 915 182 q 751 36 850 91 q 533 -18 651 -18 m 534 1094 q 494 1109 510 1094 q 478 1149 478 1125 q 494 1188 478 1172 q 534 1203 510 1203 q 573 1188 557 1203 q 590 1149 590 1172 q 574 1109 590 1125 q 534 1094 558 1094 z "},"D":{"ha":933,"x_min":83,"x_max":891,"o":"m 83 0 l 83 972 l 405 972 q 594 934 506 972 q 749 830 682 897 q 853 675 815 763 q 891 486 891 587 q 853 298 891 385 q 749 143 815 210 q 594 38 682 76 q 405 0 506 0 l 83 0 m 181 97 l 405 97 q 556 127 485 97 q 680 211 626 158 q 764 335 733 265 q 794 486 794 406 q 764 637 794 567 q 680 761 733 708 q 556 845 626 815 q 405 875 485 875 l 181 875 l 181 97 z "},"Ð":{"ha":1010,"x_min":69,"x_max":969,"o":"m 161 0 l 161 472 l 69 472 l 69 569 l 161 569 l 161 972 l 483 972 q 671 934 583 972 q 826 830 759 897 q 931 675 893 763 q 969 486 969 587 q 931 298 969 385 q 826 143 893 210 q 671 38 759 76 q 483 0 583 0 l 161 0 m 258 97 l 483 97 q 635 128 565 97 q 759 213 706 158 q 842 337 812 267 q 872 486 872 407 q 841 638 872 567 q 756 762 810 709 q 632 845 702 815 q 483 875 562 875 l 258 875 l 258 569 l 498 569 l 498 472 l 258 472 l 258 97 z "},"Ď":{"ha":933,"x_min":83,"x_max":891,"o":"m 83 0 l 83 972 l 405 972 q 594 934 506 972 q 749 830 682 897 q 853 675 815 763 q 891 486 891 587 q 853 298 891 385 q 749 143 815 210 q 594 38 682 76 q 405 0 506 0 l 83 0 m 181 97 l 405 97 q 556 127 485 97 q 680 211 626 158 q 764 335 733 265 q 794 486 794 406 q 764 637 794 567 q 680 761 733 708 q 556 845 626 815 q 405 875 485 875 l 181 875 l 181 97 m 399 1049 l 265 1249 l 330 1249 l 453 1108 l 573 1249 l 638 1249 l 506 1049 l 399 1049 z "},"Ḍ":{"ha":933,"x_min":83,"x_max":891,"o":"m 83 0 l 83 972 l 405 972 q 594 934 506 972 q 749 830 682 897 q 853 675 815 763 q 891 486 891 587 q 853 298 891 385 q 749 143 815 210 q 594 38 682 76 q 405 0 506 0 l 83 0 m 181 97 l 405 97 q 556 127 485 97 q 680 211 626 158 q 764 335 733 265 q 794 486 794 406 q 764 637 794 567 q 680 761 733 708 q 556 845 626 815 q 405 875 485 875 l 181 875 l 181 97 m 463 -274 q 423 -258 439 -274 q 406 -219 406 -242 q 423 -180 406 -195 q 463 -164 439 -164 q 502 -180 485 -164 q 518 -219 518 -195 q 502 -258 518 -242 q 463 -274 486 -274 z "},"E":{"ha":744,"x_min":83,"x_max":675,"o":"m 83 0 l 83 972 l 675 972 l 675 875 l 181 875 l 181 569 l 590 569 l 590 472 l 181 472 l 181 97 l 675 97 l 675 0 l 83 0 z "},"É":{"ha":744,"x_min":83,"x_max":675,"o":"m 83 0 l 83 972 l 675 972 l 675 875 l 181 875 l 181 569 l 590 569 l 590 472 l 181 472 l 181 97 l 675 97 l 675 0 l 83 0 m 349 1049 l 404 1249 l 501 1249 l 414 1049 l 349 1049 z "},"Ě":{"ha":744,"x_min":83,"x_max":675,"o":"m 83 0 l 83 972 l 675 972 l 675 875 l 181 875 l 181 569 l 590 569 l 590 472 l 181 472 l 181 97 l 675 97 l 675 0 l 83 0 m 319 1049 l 185 1249 l 249 1249 l 372 1108 l 492 1249 l 558 1249 l 425 1049 l 319 1049 z "},"Ê":{"ha":744,"x_min":83,"x_max":675,"o":"m 83 0 l 83 972 l 675 972 l 675 875 l 181 875 l 181 569 l 590 569 l 590 472 l 181 472 l 181 97 l 675 97 l 675 0 l 83 0 m 426 1249 l 560 1049 l 494 1049 l 372 1190 l 251 1049 l 187 1049 l 319 1249 l 426 1249 z "},"Ệ":{"ha":744,"x_min":83,"x_max":675,"o":"m 83 0 l 83 972 l 675 972 l 675 875 l 181 875 l 181 569 l 590 569 l 590 472 l 181 472 l 181 97 l 675 97 l 675 0 l 83 0 m 373 -274 q 333 -258 349 -274 q 317 -219 317 -242 q 333 -180 317 -195 q 373 -164 349 -164 q 412 -180 396 -164 q 428 -219 428 -195 q 413 -258 428 -242 q 373 -274 397 -274 m 426 1249 l 560 1049 l 494 1049 l 372 1190 l 251 1049 l 187 1049 l 319 1249 l 426 1249 z "},"Ë":{"ha":744,"x_min":83,"x_max":675,"o":"m 83 0 l 83 972 l 675 972 l 675 875 l 181 875 l 181 569 l 590 569 l 590 472 l 181 472 l 181 97 l 675 97 l 675 0 l 83 0 m 264 1028 q 223 1044 240 1028 q 206 1083 206 1060 q 223 1123 206 1106 q 264 1140 240 1140 q 303 1123 287 1140 q 319 1083 319 1106 q 303 1044 319 1060 q 264 1028 287 1028 m 482 1028 q 442 1044 458 1028 q 425 1083 425 1060 q 442 1123 425 1106 q 482 1140 458 1140 q 522 1123 505 1140 q 538 1083 538 1106 q 522 1044 538 1060 q 482 1028 505 1028 z "},"Ė":{"ha":744,"x_min":83,"x_max":675,"o":"m 83 0 l 83 972 l 675 972 l 675 875 l 181 875 l 181 569 l 590 569 l 590 472 l 181 472 l 181 97 l 675 97 l 675 0 l 83 0 m 373 1094 q 333 1109 349 1094 q 317 1149 317 1125 q 333 1188 317 1172 q 373 1203 349 1203 q 412 1188 396 1203 q 428 1149 428 1172 q 413 1109 428 1125 q 373 1094 397 1094 z "},"Ẹ":{"ha":744,"x_min":83,"x_max":675,"o":"m 83 0 l 83 972 l 675 972 l 675 875 l 181 875 l 181 569 l 590 569 l 590 472 l 181 472 l 181 97 l 675 97 l 675 0 l 83 0 m 373 -274 q 333 -258 349 -274 q 317 -219 317 -242 q 333 -180 317 -195 q 373 -164 349 -164 q 412 -180 396 -164 q 428 -219 428 -195 q 413 -258 428 -242 q 373 -274 397 -274 z "},"È":{"ha":744,"x_min":83,"x_max":675,"o":"m 83 0 l 83 972 l 675 972 l 675 875 l 181 875 l 181 569 l 590 569 l 590 472 l 181 472 l 181 97 l 675 97 l 675 0 l 83 0 m 238 1249 l 335 1249 l 391 1049 l 326 1049 l 238 1249 z "},"Ē":{"ha":744,"x_min":83,"x_max":675,"o":"m 83 0 l 83 972 l 675 972 l 675 875 l 181 875 l 181 569 l 590 569 l 590 472 l 181 472 l 181 97 l 675 97 l 675 0 l 83 0 m 138 1169 l 607 1169 l 607 1090 l 138 1090 l 138 1169 z "},"Ę":{"ha":744,"x_min":83,"x_max":675,"o":"m 83 0 l 83 972 l 675 972 l 675 875 l 181 875 l 181 569 l 590 569 l 590 472 l 181 472 l 181 97 l 675 97 l 675 0 l 83 0 m 511 -282 q 445 -263 474 -281 q 401 -215 417 -244 q 385 -154 385 -186 q 394 -107 385 -130 q 423 -65 403 -84 l 540 52 l 592 0 q 528 -63 553 -38 q 489 -103 503 -87 q 469 -132 475 -119 q 464 -157 464 -144 q 477 -192 464 -176 q 515 -209 491 -208 q 564 -190 541 -209 q 586 -138 586 -170 l 656 -138 q 637 -211 656 -178 q 584 -263 617 -244 q 511 -282 551 -282 z "},"Ẽ":{"ha":744,"x_min":83,"x_max":675,"o":"m 83 0 l 83 972 l 675 972 l 675 875 l 181 875 l 181 569 l 590 569 l 590 472 l 181 472 l 181 97 l 675 97 l 675 0 l 83 0 m 480 1063 q 423 1080 454 1063 q 360 1117 392 1096 q 301 1153 328 1138 q 256 1163 274 1167 q 228 1140 238 1159 q 224 1095 217 1122 l 158 1077 q 155 1153 145 1117 q 194 1211 165 1189 q 263 1234 222 1234 q 321 1219 290 1234 q 384 1184 352 1203 q 443 1149 416 1164 q 488 1133 470 1133 q 512 1145 503 1133 q 523 1174 521 1158 q 520 1201 525 1190 l 586 1222 q 589 1144 600 1181 q 550 1086 578 1108 q 480 1063 521 1063 z "},"F":{"ha":666,"x_min":83,"x_max":652,"o":"m 83 0 l 83 972 l 652 972 l 652 875 l 181 875 l 181 569 l 585 569 l 585 472 l 181 472 l 181 0 l 83 0 z "},"G":{"ha":1067,"x_min":56,"x_max":1011,"o":"m 534 -18 q 347 21 434 -18 q 194 130 260 60 q 92 291 129 200 q 56 487 56 383 q 94 685 56 593 q 199 845 132 776 q 352 951 265 913 q 535 990 438 990 q 747 938 647 990 q 916 790 847 885 l 829 742 q 695 854 774 815 q 535 893 617 893 q 387 861 456 893 q 265 774 318 830 q 183 644 213 717 q 153 485 153 570 q 183 328 153 401 q 265 198 213 254 q 387 111 317 142 q 535 79 456 79 q 659 102 601 79 q 767 165 718 124 q 849 261 815 206 q 898 381 883 316 l 635 381 l 635 469 l 1011 469 q 971 280 1009 368 q 867 125 933 192 q 716 20 801 58 q 534 -18 631 -18 z "},"Ğ":{"ha":1067,"x_min":56,"x_max":1011,"o":"m 534 -18 q 347 21 434 -18 q 194 130 260 60 q 92 291 129 200 q 56 487 56 383 q 94 685 56 593 q 199 845 132 776 q 352 951 265 913 q 535 990 438 990 q 747 938 647 990 q 916 790 847 885 l 829 742 q 695 854 774 815 q 535 893 617 893 q 387 861 456 893 q 265 774 318 830 q 183 644 213 717 q 153 485 153 570 q 183 328 153 401 q 265 198 213 254 q 387 111 317 142 q 535 79 456 79 q 659 102 601 79 q 767 165 718 124 q 849 261 815 206 q 898 381 883 316 l 635 381 l 635 469 l 1011 469 q 971 280 1009 368 q 867 125 933 192 q 716 20 801 58 q 534 -18 631 -18 m 535 1033 q 419 1065 472 1033 q 335 1148 367 1096 q 304 1264 304 1201 l 374 1264 q 396 1182 374 1219 q 456 1124 419 1146 q 535 1103 492 1103 q 616 1124 579 1103 q 674 1183 652 1146 q 696 1264 696 1219 l 765 1264 q 734 1147 765 1199 q 650 1064 702 1094 q 535 1033 597 1033 z "},"Ǧ":{"ha":1067,"x_min":56,"x_max":1011,"o":"m 534 -18 q 347 21 434 -18 q 194 130 260 60 q 92 291 129 200 q 56 487 56 383 q 94 685 56 593 q 199 845 132 776 q 352 951 265 913 q 535 990 438 990 q 747 938 647 990 q 916 790 847 885 l 829 742 q 695 854 774 815 q 535 893 617 893 q 387 861 456 893 q 265 774 318 830 q 183 644 213 717 q 153 485 153 570 q 183 328 153 401 q 265 198 213 254 q 387 111 317 142 q 535 79 456 79 q 659 102 601 79 q 767 165 718 124 q 849 261 815 206 q 898 381 883 316 l 635 381 l 635 469 l 1011 469 q 971 280 1009 368 q 867 125 933 192 q 716 20 801 58 q 534 -18 631 -18 m 481 1049 l 347 1249 l 412 1249 l 535 1108 l 655 1249 l 720 1249 l 588 1049 l 481 1049 z "},"Ĝ":{"ha":1067,"x_min":56,"x_max":1011,"o":"m 534 -18 q 347 21 434 -18 q 194 130 260 60 q 92 291 129 200 q 56 487 56 383 q 94 685 56 593 q 199 845 132 776 q 352 951 265 913 q 535 990 438 990 q 747 938 647 990 q 916 790 847 885 l 829 742 q 695 854 774 815 q 535 893 617 893 q 387 861 456 893 q 265 774 318 830 q 183 644 213 717 q 153 485 153 570 q 183 328 153 401 q 265 198 213 254 q 387 111 317 142 q 535 79 456 79 q 659 102 601 79 q 767 165 718 124 q 849 261 815 206 q 898 381 883 316 l 635 381 l 635 469 l 1011 469 q 971 280 1009 368 q 867 125 933 192 q 716 20 801 58 q 534 -18 631 -18 m 588 1249 l 722 1049 l 657 1049 l 535 1190 l 414 1049 l 349 1049 l 482 1249 l 588 1249 z "},"Ģ":{"ha":1067,"x_min":56,"x_max":1011,"o":"m 534 -18 q 347 21 434 -18 q 194 130 260 60 q 92 291 129 200 q 56 487 56 383 q 94 685 56 593 q 199 845 132 776 q 352 951 265 913 q 535 990 438 990 q 747 938 647 990 q 916 790 847 885 l 829 742 q 695 854 774 815 q 535 893 617 893 q 387 861 456 893 q 265 774 318 830 q 183 644 213 717 q 153 485 153 570 q 183 328 153 401 q 265 198 213 254 q 387 111 317 142 q 535 79 456 79 q 659 102 601 79 q 767 165 718 124 q 849 261 815 206 q 898 381 883 316 l 635 381 l 635 469 l 1011 469 q 971 280 1009 368 q 867 125 933 192 q 716 20 801 58 q 534 -18 631 -18 m 442 -306 l 485 -72 l 582 -72 l 506 -306 l 442 -306 z "},"Ġ":{"ha":1067,"x_min":56,"x_max":1011,"o":"m 534 -18 q 347 21 434 -18 q 194 130 260 60 q 92 291 129 200 q 56 487 56 383 q 94 685 56 593 q 199 845 132 776 q 352 951 265 913 q 535 990 438 990 q 747 938 647 990 q 916 790 847 885 l 829 742 q 695 854 774 815 q 535 893 617 893 q 387 861 456 893 q 265 774 318 830 q 183 644 213 717 q 153 485 153 570 q 183 328 153 401 q 265 198 213 254 q 387 111 317 142 q 535 79 456 79 q 659 102 601 79 q 767 165 718 124 q 849 261 815 206 q 898 381 883 316 l 635 381 l 635 469 l 1011 469 q 971 280 1009 368 q 867 125 933 192 q 716 20 801 58 q 534 -18 631 -18 m 535 1094 q 495 1109 512 1094 q 479 1149 479 1125 q 495 1188 479 1172 q 535 1203 512 1203 q 575 1188 558 1203 q 591 1149 591 1172 q 575 1109 591 1125 q 535 1094 559 1094 z "},"Ḡ":{"ha":1067,"x_min":56,"x_max":1011,"o":"m 534 -18 q 347 21 434 -18 q 194 130 260 60 q 92 291 129 200 q 56 487 56 383 q 94 685 56 593 q 199 845 132 776 q 352 951 265 913 q 535 990 438 990 q 747 938 647 990 q 916 790 847 885 l 829 742 q 695 854 774 815 q 535 893 617 893 q 387 861 456 893 q 265 774 318 830 q 183 644 213 717 q 153 485 153 570 q 183 328 153 401 q 265 198 213 254 q 387 111 317 142 q 535 79 456 79 q 659 102 601 79 q 767 165 718 124 q 849 261 815 206 q 898 381 883 316 l 635 381 l 635 469 l 1011 469 q 971 280 1009 368 q 867 125 933 192 q 716 20 801 58 q 534 -18 631 -18 m 300 1169 l 769 1169 l 769 1090 l 300 1090 l 300 1169 z "},"H":{"ha":872,"x_min":83,"x_max":788,"o":"m 691 972 l 788 972 l 788 0 l 691 0 l 691 472 l 181 472 l 181 0 l 83 0 l 83 972 l 181 972 l 181 569 l 691 569 l 691 972 z "},"Ĥ":{"ha":872,"x_min":83,"x_max":788,"o":"m 691 972 l 788 972 l 788 0 l 691 0 l 691 472 l 181 472 l 181 0 l 83 0 l 83 972 l 181 972 l 181 569 l 691 569 l 691 972 m 489 1249 l 623 1049 l 558 1049 l 435 1190 l 315 1049 l 250 1049 l 383 1249 l 489 1249 z "},"Ḥ":{"ha":872,"x_min":83,"x_max":788,"o":"m 691 972 l 788 972 l 788 0 l 691 0 l 691 472 l 181 472 l 181 0 l 83 0 l 83 972 l 181 972 l 181 569 l 691 569 l 691 972 m 436 -274 q 396 -258 413 -274 q 380 -219 380 -242 q 396 -180 380 -195 q 436 -164 413 -164 q 475 -180 459 -164 q 492 -219 492 -195 q 476 -258 492 -242 q 436 -274 460 -274 z "},"I":{"ha":306,"x_min":104,"x_max":201,"o":"m 104 0 l 104 972 l 201 972 l 201 0 l 104 0 z "},"Ĳ":{"ha":863,"x_min":104,"x_max":780,"o":"m 104 0 l 104 972 l 201 972 l 201 0 l 104 0 m 507 -18 q 415 -2 460 -18 q 333 45 370 13 l 395 120 q 446 90 417 101 q 507 79 474 79 q 595 105 556 79 q 659 173 635 131 q 683 263 683 215 l 683 972 l 780 972 l 780 263 q 743 124 780 188 q 644 21 706 60 q 507 -18 583 -18 z "},"Í":{"ha":306,"x_min":104,"x_max":282,"o":"m 104 0 l 104 972 l 201 972 l 201 0 l 104 0 m 129 1049 l 185 1249 l 282 1249 l 194 1049 l 129 1049 z "},"Ǐ":{"ha":306,"x_min":-35,"x_max":338,"o":"m 104 0 l 104 972 l 201 972 l 201 0 l 104 0 m 99 1049 l -35 1249 l 30 1249 l 153 1108 l 273 1249 l 338 1249 l 206 1049 l 99 1049 z "},"Î":{"ha":306,"x_min":-33,"x_max":340,"o":"m 104 0 l 104 972 l 201 972 l 201 0 l 104 0 m 206 1249 l 340 1049 l 275 1049 l 153 1190 l 32 1049 l -33 1049 l 100 1249 l 206 1249 z "},"Ï":{"ha":306,"x_min":-13,"x_max":319,"o":"m 104 0 l 104 972 l 201 972 l 201 0 l 104 0 m 44 1028 q 4 1044 21 1028 q -13 1083 -13 1060 q 4 1123 -13 1106 q 44 1140 21 1140 q 84 1123 67 1140 q 100 1083 100 1106 q 84 1044 100 1060 q 44 1028 67 1028 m 263 1028 q 222 1044 239 1028 q 206 1083 206 1060 q 222 1123 206 1106 q 263 1140 239 1140 q 302 1123 285 1140 q 319 1083 319 1106 q 302 1044 319 1060 q 263 1028 285 1028 z "},"Ḯ":{"ha":306,"x_min":-13,"x_max":319,"o":"m 104 0 l 104 972 l 201 972 l 201 0 l 104 0 m 44 1028 q 4 1044 21 1028 q -13 1083 -13 1060 q 4 1123 -13 1106 q 44 1140 21 1140 q 84 1123 67 1140 q 100 1083 100 1106 q 84 1044 100 1060 q 44 1028 67 1028 m 263 1028 q 222 1044 239 1028 q 206 1083 206 1060 q 222 1123 206 1106 q 263 1140 239 1140 q 302 1123 285 1140 q 319 1083 319 1106 q 302 1044 319 1060 q 263 1028 285 1028 m 129 1197 l 185 1397 l 282 1397 l 194 1197 l 129 1197 z "},"İ":{"ha":306,"x_min":97,"x_max":209,"o":"m 104 0 l 104 972 l 201 972 l 201 0 l 104 0 m 153 1094 q 114 1109 130 1094 q 97 1149 97 1125 q 114 1188 97 1172 q 153 1203 130 1203 q 193 1188 176 1203 q 209 1149 209 1172 q 193 1109 209 1125 q 153 1094 177 1094 z "},"Ị":{"ha":306,"x_min":97,"x_max":209,"o":"m 104 0 l 104 972 l 201 972 l 201 0 l 104 0 m 153 -274 q 114 -258 130 -274 q 97 -219 97 -242 q 114 -180 97 -195 q 153 -164 130 -164 q 193 -180 176 -164 q 209 -219 209 -195 q 193 -258 209 -242 q 153 -274 177 -274 z "},"Ì":{"ha":306,"x_min":19,"x_max":201,"o":"m 104 0 l 104 972 l 201 972 l 201 0 l 104 0 m 19 1249 l 116 1249 l 172 1049 l 107 1049 l 19 1249 z "},"Ī":{"ha":306,"x_min":-82,"x_max":388,"o":"m 104 0 l 104 972 l 201 972 l 201 0 l 104 0 m -82 1169 l 388 1169 l 388 1090 l -82 1090 l -82 1169 z "},"Į":{"ha":306,"x_min":-5,"x_max":266,"o":"m 104 0 l 104 972 l 201 972 l 201 0 l 104 0 m 121 -282 q 55 -263 83 -281 q 11 -215 26 -244 q -5 -154 -5 -186 q 4 -107 -5 -130 q 33 -65 13 -84 l 149 52 l 201 0 q 138 -63 163 -38 q 99 -103 113 -87 q 79 -132 85 -119 q 74 -157 74 -144 q 87 -192 74 -176 q 124 -209 101 -208 q 173 -190 151 -209 q 196 -138 196 -170 l 266 -138 q 247 -211 266 -178 q 194 -263 227 -244 q 121 -282 161 -282 z "},"Ĩ":{"ha":306,"x_min":-74,"x_max":381,"o":"m 104 0 l 104 972 l 201 972 l 201 0 l 104 0 m 260 1063 q 203 1080 235 1063 q 140 1117 172 1096 q 81 1153 108 1138 q 37 1163 54 1167 q 8 1140 19 1159 q 5 1095 -2 1122 l -61 1077 q -64 1153 -74 1117 q -26 1211 -54 1189 q 44 1234 3 1234 q 101 1219 70 1234 q 165 1184 133 1203 q 224 1149 197 1164 q 268 1133 251 1133 q 293 1145 284 1133 q 303 1174 301 1158 q 301 1201 306 1190 l 367 1222 q 370 1144 381 1181 q 330 1086 359 1108 q 260 1063 301 1063 z "},"J":{"ha":558,"x_min":28,"x_max":474,"o":"m 201 -18 q 109 -2 154 -18 q 28 45 65 13 l 90 120 q 140 90 112 101 q 201 79 169 79 q 290 105 250 79 q 353 173 329 131 q 377 263 377 215 l 377 972 l 474 972 l 474 263 q 438 124 474 188 q 339 21 401 60 q 201 -18 277 -18 z "},"Ĵ":{"ha":558,"x_min":28,"x_max":613,"o":"m 201 -18 q 109 -2 154 -18 q 28 45 65 13 l 90 120 q 140 90 112 101 q 201 79 169 79 q 290 105 250 79 q 353 173 329 131 q 377 263 377 215 l 377 972 l 474 972 l 474 263 q 438 124 474 188 q 339 21 401 60 q 201 -18 277 -18 m 479 1249 l 613 1049 l 548 1049 l 426 1190 l 305 1049 l 240 1049 l 373 1249 l 479 1249 z "},"K":{"ha":740,"x_min":83,"x_max":713,"o":"m 708 0 l 582 0 l 263 437 l 181 338 l 181 0 l 83 0 l 83 972 l 181 972 l 181 489 l 585 972 l 713 972 l 327 513 l 708 0 z "},"Ǩ":{"ha":740,"x_min":83,"x_max":713,"o":"m 708 0 l 582 0 l 263 437 l 181 338 l 181 0 l 83 0 l 83 972 l 181 972 l 181 489 l 585 972 l 713 972 l 327 513 l 708 0 m 317 1049 l 183 1249 l 247 1249 l 370 1108 l 490 1249 l 556 1249 l 423 1049 l 317 1049 z "},"Ķ":{"ha":740,"x_min":83,"x_max":713,"o":"m 708 0 l 582 0 l 263 437 l 181 338 l 181 0 l 83 0 l 83 972 l 181 972 l 181 489 l 585 972 l 713 972 l 327 513 l 708 0 m 278 -306 l 322 -72 l 419 -72 l 343 -306 l 278 -306 z "},"L":{"ha":697,"x_min":83,"x_max":627,"o":"m 83 0 l 83 972 l 181 972 l 181 97 l 627 97 l 627 0 l 83 0 z "},"Ĺ":{"ha":697,"x_min":83,"x_max":627,"o":"m 83 0 l 83 972 l 181 972 l 181 97 l 627 97 l 627 0 l 83 0 m 108 1049 l 164 1249 l 261 1249 l 174 1049 l 108 1049 z "},"Ľ":{"ha":697,"x_min":83,"x_max":627,"o":"m 83 0 l 83 972 l 181 972 l 181 97 l 627 97 l 627 0 l 83 0 m 389 842 l 444 1042 l 542 1042 l 454 842 l 389 842 z "},"Ļ":{"ha":697,"x_min":83,"x_max":627,"o":"m 83 0 l 83 972 l 181 972 l 181 97 l 627 97 l 627 0 l 83 0 m 264 -306 l 307 -72 l 404 -72 l 328 -306 l 264 -306 z "},"Ḷ":{"ha":697,"x_min":83,"x_max":627,"o":"m 83 0 l 83 972 l 181 972 l 181 97 l 627 97 l 627 0 l 83 0 m 356 -274 q 316 -258 333 -274 q 300 -219 300 -242 q 316 -180 300 -195 q 356 -164 333 -164 q 395 -180 379 -164 q 412 -219 412 -195 q 396 -258 412 -242 q 356 -274 380 -274 z "},"M":{"ha":1228,"x_min":83,"x_max":1145,"o":"m 83 0 l 272 972 l 342 972 l 615 257 l 885 972 l 956 972 l 1145 0 l 1046 0 l 902 744 l 645 64 l 583 64 l 326 744 l 182 0 l 83 0 z "},"Ḿ":{"ha":1228,"x_min":83,"x_max":1145,"o":"m 83 0 l 272 972 l 342 972 l 615 257 l 885 972 l 956 972 l 1145 0 l 1046 0 l 902 744 l 645 64 l 583 64 l 326 744 l 182 0 l 83 0 m 591 1049 l 647 1249 l 744 1249 l 656 1049 l 591 1049 z "},"Ṁ":{"ha":1228,"x_min":83,"x_max":1145,"o":"m 83 0 l 272 972 l 342 972 l 615 257 l 885 972 l 956 972 l 1145 0 l 1046 0 l 902 744 l 645 64 l 583 64 l 326 744 l 182 0 l 83 0 m 615 1094 q 575 1109 592 1094 q 559 1149 559 1125 q 575 1188 559 1172 q 615 1203 592 1203 q 655 1188 638 1203 q 671 1149 671 1172 q 655 1109 671 1125 q 615 1094 639 1094 z "},"Ṃ":{"ha":1228,"x_min":83,"x_max":1145,"o":"m 83 0 l 272 972 l 342 972 l 615 257 l 885 972 l 956 972 l 1145 0 l 1046 0 l 902 744 l 645 64 l 583 64 l 326 744 l 182 0 l 83 0 m 615 -274 q 575 -258 592 -274 q 559 -219 559 -242 q 575 -180 559 -195 q 615 -164 592 -164 q 655 -180 638 -164 q 671 -219 671 -195 q 655 -258 671 -242 q 615 -274 639 -274 z "},"N":{"ha":883,"x_min":83,"x_max":799,"o":"m 83 0 l 83 972 l 189 972 l 702 176 l 702 972 l 799 972 l 799 0 l 694 0 l 181 797 l 181 0 l 83 0 z "},"Ń":{"ha":883,"x_min":83,"x_max":799,"o":"m 83 0 l 83 972 l 189 972 l 702 176 l 702 972 l 799 972 l 799 0 l 694 0 l 181 797 l 181 0 l 83 0 m 417 1049 l 473 1249 l 570 1249 l 483 1049 l 417 1049 z "},"Ň":{"ha":883,"x_min":83,"x_max":799,"o":"m 83 0 l 83 972 l 189 972 l 702 176 l 702 972 l 799 972 l 799 0 l 694 0 l 181 797 l 181 0 l 83 0 m 388 1049 l 253 1249 l 318 1249 l 441 1108 l 561 1249 l 626 1249 l 494 1049 l 388 1049 z "},"Ņ":{"ha":883,"x_min":83,"x_max":799,"o":"m 83 0 l 83 972 l 189 972 l 702 176 l 702 972 l 799 972 l 799 0 l 694 0 l 181 797 l 181 0 l 83 0 m 349 -306 l 392 -72 l 490 -72 l 414 -306 l 349 -306 z "},"Ṅ":{"ha":883,"x_min":83,"x_max":799,"o":"m 83 0 l 83 972 l 189 972 l 702 176 l 702 972 l 799 972 l 799 0 l 694 0 l 181 797 l 181 0 l 83 0 m 442 1094 q 402 1109 418 1094 q 385 1149 385 1125 q 402 1188 385 1172 q 442 1203 418 1203 q 481 1188 465 1203 q 497 1149 497 1172 q 481 1109 497 1125 q 442 1094 465 1094 z "},"Ṇ":{"ha":883,"x_min":83,"x_max":799,"o":"m 83 0 l 83 972 l 189 972 l 702 176 l 702 972 l 799 972 l 799 0 l 694 0 l 181 797 l 181 0 l 83 0 m 442 -274 q 402 -258 418 -274 q 385 -219 385 -242 q 402 -180 385 -195 q 442 -164 418 -164 q 481 -180 465 -164 q 497 -219 497 -195 q 481 -258 497 -242 q 442 -274 465 -274 z "},"Ñ":{"ha":883,"x_min":83,"x_max":799,"o":"m 83 0 l 83 972 l 189 972 l 702 176 l 702 972 l 799 972 l 799 0 l 694 0 l 181 797 l 181 0 l 83 0 m 549 1063 q 492 1080 523 1063 q 428 1117 460 1096 q 369 1153 397 1138 q 325 1163 342 1167 q 297 1140 307 1159 q 293 1095 286 1122 l 227 1077 q 224 1153 214 1117 q 263 1211 234 1189 q 332 1234 291 1234 q 390 1219 358 1234 q 453 1184 421 1203 q 512 1149 485 1164 q 556 1133 539 1133 q 581 1145 572 1133 q 592 1174 590 1158 q 589 1201 594 1190 l 655 1222 q 658 1144 669 1181 q 618 1086 647 1108 q 549 1063 590 1063 z "},"O":{"ha":1069,"x_min":56,"x_max":1014,"o":"m 535 -18 q 349 21 436 -18 q 197 130 263 60 q 93 291 131 199 q 56 486 56 382 q 93 682 56 590 q 197 842 131 773 q 349 951 263 912 q 535 990 436 990 q 721 951 634 990 q 874 842 808 912 q 977 682 940 773 q 1014 486 1014 590 q 977 291 1014 382 q 874 130 940 199 q 721 21 808 60 q 535 -18 634 -18 m 535 79 q 684 111 615 79 q 805 200 753 144 q 887 330 858 256 q 917 486 917 403 q 887 643 917 569 q 805 773 857 717 q 683 861 752 829 q 535 893 614 893 q 386 861 455 893 q 264 772 317 828 q 182 642 212 716 q 153 486 153 569 q 183 328 153 402 q 265 199 213 255 q 386 111 317 142 q 535 79 456 79 z "},"Ó":{"ha":1069,"x_min":56,"x_max":1014,"o":"m 535 -18 q 349 21 436 -18 q 197 130 263 60 q 93 291 131 199 q 56 486 56 382 q 93 682 56 590 q 197 842 131 773 q 349 951 263 912 q 535 990 436 990 q 721 951 634 990 q 874 842 808 912 q 977 682 940 773 q 1014 486 1014 590 q 977 291 1014 382 q 874 130 940 199 q 721 21 808 60 q 535 -18 634 -18 m 535 79 q 684 111 615 79 q 805 200 753 144 q 887 330 858 256 q 917 486 917 403 q 887 643 917 569 q 805 773 857 717 q 683 861 752 829 q 535 893 614 893 q 386 861 455 893 q 264 772 317 828 q 182 642 212 716 q 153 486 153 569 q 183 328 153 402 q 265 199 213 255 q 386 111 317 142 q 535 79 456 79 m 511 1049 l 567 1249 l 664 1249 l 576 1049 l 511 1049 z "},"Ǒ":{"ha":1069,"x_min":56,"x_max":1014,"o":"m 535 -18 q 349 21 436 -18 q 197 130 263 60 q 93 291 131 199 q 56 486 56 382 q 93 682 56 590 q 197 842 131 773 q 349 951 263 912 q 535 990 436 990 q 721 951 634 990 q 874 842 808 912 q 977 682 940 773 q 1014 486 1014 590 q 977 291 1014 382 q 874 130 940 199 q 721 21 808 60 q 535 -18 634 -18 m 535 79 q 684 111 615 79 q 805 200 753 144 q 887 330 858 256 q 917 486 917 403 q 887 643 917 569 q 805 773 857 717 q 683 861 752 829 q 535 893 614 893 q 386 861 455 893 q 264 772 317 828 q 182 642 212 716 q 153 486 153 569 q 183 328 153 402 q 265 199 213 255 q 386 111 317 142 q 535 79 456 79 m 481 1049 l 347 1249 l 412 1249 l 535 1108 l 655 1249 l 720 1249 l 588 1049 l 481 1049 z "},"Ô":{"ha":1069,"x_min":56,"x_max":1014,"o":"m 535 -18 q 349 21 436 -18 q 197 130 263 60 q 93 291 131 199 q 56 486 56 382 q 93 682 56 590 q 197 842 131 773 q 349 951 263 912 q 535 990 436 990 q 721 951 634 990 q 874 842 808 912 q 977 682 940 773 q 1014 486 1014 590 q 977 291 1014 382 q 874 130 940 199 q 721 21 808 60 q 535 -18 634 -18 m 535 79 q 684 111 615 79 q 805 200 753 144 q 887 330 858 256 q 917 486 917 403 q 887 643 917 569 q 805 773 857 717 q 683 861 752 829 q 535 893 614 893 q 386 861 455 893 q 264 772 317 828 q 182 642 212 716 q 153 486 153 569 q 183 328 153 402 q 265 199 213 255 q 386 111 317 142 q 535 79 456 79 m 588 1249 l 722 1049 l 657 1049 l 535 1190 l 414 1049 l 349 1049 l 482 1249 l 588 1249 z "},"Ộ":{"ha":1069,"x_min":56,"x_max":1014,"o":"m 535 -18 q 349 21 436 -18 q 197 130 263 60 q 93 291 131 199 q 56 486 56 382 q 93 682 56 590 q 197 842 131 773 q 349 951 263 912 q 535 990 436 990 q 721 951 634 990 q 874 842 808 912 q 977 682 940 773 q 1014 486 1014 590 q 977 291 1014 382 q 874 130 940 199 q 721 21 808 60 q 535 -18 634 -18 m 535 79 q 684 111 615 79 q 805 200 753 144 q 887 330 858 256 q 917 486 917 403 q 887 643 917 569 q 805 773 857 717 q 683 861 752 829 q 535 893 614 893 q 386 861 455 893 q 264 772 317 828 q 182 642 212 716 q 153 486 153 569 q 183 328 153 402 q 265 199 213 255 q 386 111 317 142 q 535 79 456 79 m 535 -274 q 495 -258 512 -274 q 479 -219 479 -242 q 495 -180 479 -195 q 535 -164 512 -164 q 575 -180 558 -164 q 591 -219 591 -195 q 575 -258 591 -242 q 535 -274 559 -274 m 588 1249 l 722 1049 l 657 1049 l 535 1190 l 414 1049 l 349 1049 l 482 1249 l 588 1249 z "},"Ö":{"ha":1069,"x_min":56,"x_max":1014,"o":"m 535 -18 q 349 21 436 -18 q 197 130 263 60 q 93 291 131 199 q 56 486 56 382 q 93 682 56 590 q 197 842 131 773 q 349 951 263 912 q 535 990 436 990 q 721 951 634 990 q 874 842 808 912 q 977 682 940 773 q 1014 486 1014 590 q 977 291 1014 382 q 874 130 940 199 q 721 21 808 60 q 535 -18 634 -18 m 535 79 q 684 111 615 79 q 805 200 753 144 q 887 330 858 256 q 917 486 917 403 q 887 643 917 569 q 805 773 857 717 q 683 861 752 829 q 535 893 614 893 q 386 861 455 893 q 264 772 317 828 q 182 642 212 716 q 153 486 153 569 q 183 328 153 402 q 265 199 213 255 q 386 111 317 142 q 535 79 456 79 m 426 1028 q 386 1044 403 1028 q 369 1083 369 1060 q 386 1123 369 1106 q 426 1140 403 1140 q 466 1123 449 1140 q 482 1083 482 1106 q 466 1044 482 1060 q 426 1028 449 1028 m 644 1028 q 604 1044 621 1028 q 588 1083 588 1060 q 604 1123 588 1106 q 644 1140 621 1140 q 684 1123 667 1140 q 701 1083 701 1106 q 684 1044 701 1060 q 644 1028 667 1028 z "},"Ȫ":{"ha":1069,"x_min":56,"x_max":1014,"o":"m 535 -18 q 349 21 436 -18 q 197 130 263 60 q 93 291 131 199 q 56 486 56 382 q 93 682 56 590 q 197 842 131 773 q 349 951 263 912 q 535 990 436 990 q 721 951 634 990 q 874 842 808 912 q 977 682 940 773 q 1014 486 1014 590 q 977 291 1014 382 q 874 130 940 199 q 721 21 808 60 q 535 -18 634 -18 m 535 79 q 684 111 615 79 q 805 200 753 144 q 887 330 858 256 q 917 486 917 403 q 887 643 917 569 q 805 773 857 717 q 683 861 752 829 q 535 893 614 893 q 386 861 455 893 q 264 772 317 828 q 182 642 212 716 q 153 486 153 569 q 183 328 153 402 q 265 199 213 255 q 386 111 317 142 q 535 79 456 79 m 426 1028 q 386 1044 403 1028 q 369 1083 369 1060 q 386 1123 369 1106 q 426 1140 403 1140 q 466 1123 449 1140 q 482 1083 482 1106 q 466 1044 482 1060 q 426 1028 449 1028 m 644 1028 q 604 1044 621 1028 q 588 1083 588 1060 q 604 1123 588 1106 q 644 1140 621 1140 q 684 1123 667 1140 q 701 1083 701 1106 q 684 1044 701 1060 q 644 1028 667 1028 m 300 1317 l 769 1317 l 769 1238 l 300 1238 l 300 1317 z "},"Ọ":{"ha":1069,"x_min":56,"x_max":1014,"o":"m 535 -18 q 349 21 436 -18 q 197 130 263 60 q 93 291 131 199 q 56 486 56 382 q 93 682 56 590 q 197 842 131 773 q 349 951 263 912 q 535 990 436 990 q 721 951 634 990 q 874 842 808 912 q 977 682 940 773 q 1014 486 1014 590 q 977 291 1014 382 q 874 130 940 199 q 721 21 808 60 q 535 -18 634 -18 m 535 79 q 684 111 615 79 q 805 200 753 144 q 887 330 858 256 q 917 486 917 403 q 887 643 917 569 q 805 773 857 717 q 683 861 752 829 q 535 893 614 893 q 386 861 455 893 q 264 772 317 828 q 182 642 212 716 q 153 486 153 569 q 183 328 153 402 q 265 199 213 255 q 386 111 317 142 q 535 79 456 79 m 535 -274 q 495 -258 512 -274 q 479 -219 479 -242 q 495 -180 479 -195 q 535 -164 512 -164 q 575 -180 558 -164 q 591 -219 591 -195 q 575 -258 591 -242 q 535 -274 559 -274 z "},"Ò":{"ha":1069,"x_min":56,"x_max":1014,"o":"m 535 -18 q 349 21 436 -18 q 197 130 263 60 q 93 291 131 199 q 56 486 56 382 q 93 682 56 590 q 197 842 131 773 q 349 951 263 912 q 535 990 436 990 q 721 951 634 990 q 874 842 808 912 q 977 682 940 773 q 1014 486 1014 590 q 977 291 1014 382 q 874 130 940 199 q 721 21 808 60 q 535 -18 634 -18 m 535 79 q 684 111 615 79 q 805 200 753 144 q 887 330 858 256 q 917 486 917 403 q 887 643 917 569 q 805 773 857 717 q 683 861 752 829 q 535 893 614 893 q 386 861 455 893 q 264 772 317 828 q 182 642 212 716 q 153 486 153 569 q 183 328 153 402 q 265 199 213 255 q 386 111 317 142 q 535 79 456 79 m 401 1249 l 498 1249 l 553 1049 l 489 1049 l 401 1249 z "},"Ő":{"ha":1069,"x_min":56,"x_max":1014,"o":"m 535 -18 q 349 21 436 -18 q 197 130 263 60 q 93 291 131 199 q 56 486 56 382 q 93 682 56 590 q 197 842 131 773 q 349 951 263 912 q 535 990 436 990 q 721 951 634 990 q 874 842 808 912 q 977 682 940 773 q 1014 486 1014 590 q 977 291 1014 382 q 874 130 940 199 q 721 21 808 60 q 535 -18 634 -18 m 535 79 q 684 111 615 79 q 805 200 753 144 q 887 330 858 256 q 917 486 917 403 q 887 643 917 569 q 805 773 857 717 q 683 861 752 829 q 535 893 614 893 q 386 861 455 893 q 264 772 317 828 q 182 642 212 716 q 153 486 153 569 q 183 328 153 402 q 265 199 213 255 q 386 111 317 142 q 535 79 456 79 m 613 1049 l 668 1249 l 765 1249 l 678 1049 l 613 1049 m 422 1049 l 478 1249 l 575 1249 l 488 1049 l 422 1049 z "},"Ō":{"ha":1069,"x_min":56,"x_max":1014,"o":"m 535 -18 q 349 21 436 -18 q 197 130 263 60 q 93 291 131 199 q 56 486 56 382 q 93 682 56 590 q 197 842 131 773 q 349 951 263 912 q 535 990 436 990 q 721 951 634 990 q 874 842 808 912 q 977 682 940 773 q 1014 486 1014 590 q 977 291 1014 382 q 874 130 940 199 q 721 21 808 60 q 535 -18 634 -18 m 535 79 q 684 111 615 79 q 805 200 753 144 q 887 330 858 256 q 917 486 917 403 q 887 643 917 569 q 805 773 857 717 q 683 861 752 829 q 535 893 614 893 q 386 861 455 893 q 264 772 317 828 q 182 642 212 716 q 153 486 153 569 q 183 328 153 402 q 265 199 213 255 q 386 111 317 142 q 535 79 456 79 m 300 1169 l 769 1169 l 769 1090 l 300 1090 l 300 1169 z "},"Ø":{"ha":1069,"x_min":56,"x_max":1014,"o":"m 278 -57 l 194 -8 l 248 85 q 109 259 162 154 q 56 486 56 364 q 93 682 56 590 q 197 842 131 773 q 349 951 263 912 q 535 990 436 990 q 643 977 591 990 q 741 940 694 964 l 792 1029 l 877 981 l 823 888 q 962 715 910 819 q 1014 486 1014 610 q 977 291 1014 382 q 874 130 940 199 q 721 21 808 60 q 535 -18 634 -18 q 428 -5 480 -18 q 330 33 377 9 l 278 -57 m 299 174 l 692 853 q 617 883 657 872 q 535 893 577 893 q 386 861 455 893 q 264 772 317 828 q 182 642 212 716 q 153 486 153 569 q 193 309 153 391 q 299 174 233 228 m 535 79 q 684 111 615 79 q 805 200 753 144 q 887 330 858 256 q 917 486 917 403 q 877 663 917 581 q 772 799 838 744 l 379 119 q 454 90 414 100 q 535 79 494 79 z "},"Õ":{"ha":1069,"x_min":56,"x_max":1014,"o":"m 535 -18 q 349 21 436 -18 q 197 130 263 60 q 93 291 131 199 q 56 486 56 382 q 93 682 56 590 q 197 842 131 773 q 349 951 263 912 q 535 990 436 990 q 721 951 634 990 q 874 842 808 912 q 977 682 940 773 q 1014 486 1014 590 q 977 291 1014 382 q 874 130 940 199 q 721 21 808 60 q 535 -18 634 -18 m 535 79 q 684 111 615 79 q 805 200 753 144 q 887 330 858 256 q 917 486 917 403 q 887 643 917 569 q 805 773 857 717 q 683 861 752 829 q 535 893 614 893 q 386 861 455 893 q 264 772 317 828 q 182 642 212 716 q 153 486 153 569 q 183 328 153 402 q 265 199 213 255 q 386 111 317 142 q 535 79 456 79 m 642 1063 q 585 1080 617 1063 q 522 1117 554 1096 q 463 1153 490 1138 q 419 1163 436 1167 q 390 1140 401 1159 q 387 1095 380 1122 l 321 1077 q 318 1153 308 1117 q 356 1211 328 1189 q 426 1234 385 1234 q 483 1219 452 1234 q 547 1184 515 1203 q 606 1149 578 1164 q 650 1133 633 1133 q 675 1145 666 1133 q 685 1174 683 1158 q 683 1201 688 1190 l 749 1222 q 752 1144 763 1181 q 712 1086 741 1108 q 642 1063 683 1063 z "},"Œ":{"ha":1506,"x_min":56,"x_max":1437,"o":"m 535 -18 q 349 21 436 -18 q 197 130 263 60 q 93 291 131 199 q 56 486 56 382 q 93 682 56 590 q 197 842 131 773 q 349 951 263 912 q 535 990 436 990 q 690 961 617 990 q 821 881 763 932 q 917 761 880 829 l 917 972 l 1437 972 l 1437 875 l 1015 875 l 1015 535 l 1370 535 l 1370 438 l 1015 438 l 1015 97 l 1437 97 l 1437 0 l 917 0 l 917 211 q 821 92 880 144 q 690 11 763 40 q 535 -18 617 -18 m 535 79 q 684 111 615 79 q 805 200 753 144 q 887 330 858 256 q 917 486 917 403 q 887 643 917 569 q 805 773 857 717 q 683 861 752 829 q 535 893 614 893 q 386 861 455 893 q 264 772 317 828 q 182 642 212 716 q 153 486 153 569 q 183 328 153 402 q 265 199 213 255 q 386 111 317 142 q 535 79 456 79 z "},"P":{"ha":727,"x_min":83,"x_max":672,"o":"m 83 0 l 83 972 l 394 972 q 535 934 472 972 q 634 832 597 897 q 672 688 672 768 q 634 543 672 608 q 533 441 596 478 q 394 403 470 403 l 181 403 l 181 0 l 83 0 m 181 501 l 387 501 q 481 526 438 501 q 549 595 524 551 q 574 693 574 638 q 549 791 574 748 q 481 860 524 835 q 387 885 438 885 l 181 885 l 181 501 z "},"Þ":{"ha":713,"x_min":83,"x_max":672,"o":"m 83 0 l 83 972 l 181 972 l 181 770 l 394 770 q 535 732 472 770 q 634 630 597 694 q 672 486 672 566 q 634 341 672 406 q 533 240 596 277 q 394 202 470 202 l 181 202 l 181 0 l 83 0 m 181 299 l 387 299 q 481 324 438 299 q 549 393 524 349 q 574 491 574 436 q 549 589 574 546 q 481 658 524 633 q 387 683 438 683 l 181 683 l 181 299 z "},"Q":{"ha":1078,"x_min":56,"x_max":1022,"o":"m 953 -17 l 837 99 q 698 15 776 45 q 535 -16 621 -16 q 349 23 435 -16 q 196 132 262 63 q 93 292 130 201 q 56 488 56 384 q 93 684 56 592 q 196 844 130 775 q 349 953 262 914 q 535 992 435 992 q 720 953 634 992 q 873 844 807 914 q 976 684 939 775 q 1013 488 1013 592 q 984 315 1013 397 q 903 169 955 234 l 1022 52 l 953 -17 m 535 81 q 659 104 598 81 q 766 169 719 127 l 622 313 l 691 383 l 832 241 q 894 357 873 293 q 916 488 916 421 q 886 646 916 572 q 804 776 856 719 q 682 864 751 832 q 535 895 613 895 q 386 863 455 895 q 264 774 317 831 q 182 644 212 717 q 153 488 153 571 q 183 331 153 404 q 265 201 213 257 q 387 113 318 144 q 535 81 456 81 z "},"R":{"ha":774,"x_min":83,"x_max":705,"o":"m 83 0 l 83 972 l 413 972 q 553 934 491 972 q 653 832 616 897 q 690 688 690 768 q 660 558 690 617 q 581 462 631 500 q 467 411 531 424 l 705 0 l 592 0 l 358 403 l 181 403 l 181 0 l 83 0 m 181 501 l 405 501 q 499 526 456 501 q 567 595 542 551 q 592 693 592 638 q 567 791 592 748 q 499 860 542 835 q 405 885 456 885 l 181 885 l 181 501 z "},"Ŕ":{"ha":774,"x_min":83,"x_max":705,"o":"m 83 0 l 83 972 l 413 972 q 553 934 491 972 q 653 832 616 897 q 690 688 690 768 q 660 558 690 617 q 581 462 631 500 q 467 411 531 424 l 705 0 l 592 0 l 358 403 l 181 403 l 181 0 l 83 0 m 181 501 l 405 501 q 499 526 456 501 q 567 595 542 551 q 592 693 592 638 q 567 791 592 748 q 499 860 542 835 q 405 885 456 885 l 181 885 l 181 501 m 280 1049 l 335 1249 l 433 1249 l 345 1049 l 280 1049 z "},"Ř":{"ha":774,"x_min":83,"x_max":705,"o":"m 83 0 l 83 972 l 413 972 q 553 934 491 972 q 653 832 616 897 q 690 688 690 768 q 660 558 690 617 q 581 462 631 500 q 467 411 531 424 l 705 0 l 592 0 l 358 403 l 181 403 l 181 0 l 83 0 m 181 501 l 405 501 q 499 526 456 501 q 567 595 542 551 q 592 693 592 638 q 567 791 592 748 q 499 860 542 835 q 405 885 456 885 l 181 885 l 181 501 m 250 1049 l 116 1249 l 181 1249 l 303 1108 l 424 1249 l 489 1249 l 356 1049 l 250 1049 z "},"Ŗ":{"ha":774,"x_min":83,"x_max":705,"o":"m 83 0 l 83 972 l 413 972 q 553 934 491 972 q 653 832 616 897 q 690 688 690 768 q 660 558 690 617 q 581 462 631 500 q 467 411 531 424 l 705 0 l 592 0 l 358 403 l 181 403 l 181 0 l 83 0 m 181 501 l 405 501 q 499 526 456 501 q 567 595 542 551 q 592 693 592 638 q 567 791 592 748 q 499 860 542 835 q 405 885 456 885 l 181 885 l 181 501 m 289 -306 l 332 -72 l 429 -72 l 353 -306 l 289 -306 z "},"S":{"ha":847,"x_min":69,"x_max":778,"o":"m 423 -18 q 273 6 345 -18 q 146 76 200 31 q 69 183 92 121 l 160 217 q 216 143 176 174 q 311 96 257 113 q 423 79 366 79 q 547 101 490 79 q 640 164 605 124 q 676 258 676 203 q 639 348 676 313 q 544 404 602 383 q 423 435 486 424 q 245 483 324 453 q 120 567 166 513 q 74 711 74 622 q 123 857 74 795 q 251 953 172 919 q 423 987 331 987 q 571 963 499 987 q 698 894 643 940 q 778 784 753 849 l 685 751 q 630 825 670 794 q 535 873 589 856 q 423 889 481 889 q 300 867 357 890 q 207 805 242 844 q 172 711 172 765 q 205 615 172 649 q 294 565 238 581 q 423 535 351 548 q 596 485 516 519 q 724 395 676 451 q 773 258 773 340 q 724 112 773 174 q 596 16 676 50 q 423 -18 517 -18 z "},"Ś":{"ha":847,"x_min":69,"x_max":778,"o":"m 423 -18 q 273 6 345 -18 q 146 76 200 31 q 69 183 92 121 l 160 217 q 216 143 176 174 q 311 96 257 113 q 423 79 366 79 q 547 101 490 79 q 640 164 605 124 q 676 258 676 203 q 639 348 676 313 q 544 404 602 383 q 423 435 486 424 q 245 483 324 453 q 120 567 166 513 q 74 711 74 622 q 123 857 74 795 q 251 953 172 919 q 423 987 331 987 q 571 963 499 987 q 698 894 643 940 q 778 784 753 849 l 685 751 q 630 825 670 794 q 535 873 589 856 q 423 889 481 889 q 300 867 357 890 q 207 805 242 844 q 172 711 172 765 q 205 615 172 649 q 294 565 238 581 q 423 535 351 548 q 596 485 516 519 q 724 395 676 451 q 773 258 773 340 q 724 112 773 174 q 596 16 676 50 q 423 -18 517 -18 m 400 1049 l 456 1249 l 553 1249 l 465 1049 l 400 1049 z "},"Š":{"ha":847,"x_min":69,"x_max":778,"o":"m 423 -18 q 273 6 345 -18 q 146 76 200 31 q 69 183 92 121 l 160 217 q 216 143 176 174 q 311 96 257 113 q 423 79 366 79 q 547 101 490 79 q 640 164 605 124 q 676 258 676 203 q 639 348 676 313 q 544 404 602 383 q 423 435 486 424 q 245 483 324 453 q 120 567 166 513 q 74 711 74 622 q 123 857 74 795 q 251 953 172 919 q 423 987 331 987 q 571 963 499 987 q 698 894 643 940 q 778 784 753 849 l 685 751 q 630 825 670 794 q 535 873 589 856 q 423 889 481 889 q 300 867 357 890 q 207 805 242 844 q 172 711 172 765 q 205 615 172 649 q 294 565 238 581 q 423 535 351 548 q 596 485 516 519 q 724 395 676 451 q 773 258 773 340 q 724 112 773 174 q 596 16 676 50 q 423 -18 517 -18 m 370 1049 l 236 1249 l 301 1249 l 424 1108 l 544 1249 l 609 1249 l 476 1049 l 370 1049 z "},"Ş":{"ha":847,"x_min":69,"x_max":778,"o":"m 423 -18 q 273 6 345 -18 q 146 76 200 31 q 69 183 92 121 l 160 217 q 216 143 176 174 q 311 96 257 113 q 423 79 366 79 q 547 101 490 79 q 640 164 605 124 q 676 258 676 203 q 639 348 676 313 q 544 404 602 383 q 423 435 486 424 q 245 483 324 453 q 120 567 166 513 q 74 711 74 622 q 123 857 74 795 q 251 953 172 919 q 423 987 331 987 q 571 963 499 987 q 698 894 643 940 q 778 784 753 849 l 685 751 q 630 825 670 794 q 535 873 589 856 q 423 889 481 889 q 300 867 357 890 q 207 805 242 844 q 172 711 172 765 q 205 615 172 649 q 294 565 238 581 q 423 535 351 548 q 596 485 516 519 q 724 395 676 451 q 773 258 773 340 q 724 112 773 174 q 596 16 676 50 q 423 -18 517 -18 m 474 -255 q 390 -244 430 -267 q 339 -177 351 -221 l 399 -161 q 421 -190 404 -180 q 458 -194 438 -199 q 487 -172 477 -189 q 492 -135 497 -155 q 470 -107 487 -116 q 433 -101 453 -97 l 367 -110 l 452 38 l 506 7 l 477 -44 q 524 -71 503 -51 q 552 -119 544 -91 q 541 -203 564 -164 q 474 -255 518 -243 z "},"Ŝ":{"ha":847,"x_min":69,"x_max":778,"o":"m 423 -18 q 273 6 345 -18 q 146 76 200 31 q 69 183 92 121 l 160 217 q 216 143 176 174 q 311 96 257 113 q 423 79 366 79 q 547 101 490 79 q 640 164 605 124 q 676 258 676 203 q 639 348 676 313 q 544 404 602 383 q 423 435 486 424 q 245 483 324 453 q 120 567 166 513 q 74 711 74 622 q 123 857 74 795 q 251 953 172 919 q 423 987 331 987 q 571 963 499 987 q 698 894 643 940 q 778 784 753 849 l 685 751 q 630 825 670 794 q 535 873 589 856 q 423 889 481 889 q 300 867 357 890 q 207 805 242 844 q 172 711 172 765 q 205 615 172 649 q 294 565 238 581 q 423 535 351 548 q 596 485 516 519 q 724 395 676 451 q 773 258 773 340 q 724 112 773 174 q 596 16 676 50 q 423 -18 517 -18 m 477 1249 l 611 1049 l 546 1049 l 424 1190 l 303 1049 l 238 1049 l 371 1249 l 477 1249 z "},"Ș":{"ha":847,"x_min":69,"x_max":778,"o":"m 423 -18 q 273 6 345 -18 q 146 76 200 31 q 69 183 92 121 l 160 217 q 216 143 176 174 q 311 96 257 113 q 423 79 366 79 q 547 101 490 79 q 640 164 605 124 q 676 258 676 203 q 639 348 676 313 q 544 404 602 383 q 423 435 486 424 q 245 483 324 453 q 120 567 166 513 q 74 711 74 622 q 123 857 74 795 q 251 953 172 919 q 423 987 331 987 q 571 963 499 987 q 698 894 643 940 q 778 784 753 849 l 685 751 q 630 825 670 794 q 535 873 589 856 q 423 889 481 889 q 300 867 357 890 q 207 805 242 844 q 172 711 172 765 q 205 615 172 649 q 294 565 238 581 q 423 535 351 548 q 596 485 516 519 q 724 395 676 451 q 773 258 773 340 q 724 112 773 174 q 596 16 676 50 q 423 -18 517 -18 m 381 -306 l 424 -72 l 521 -72 l 445 -306 l 381 -306 z "},"Ṣ":{"ha":847,"x_min":69,"x_max":778,"o":"m 423 -18 q 273 6 345 -18 q 146 76 200 31 q 69 183 92 121 l 160 217 q 216 143 176 174 q 311 96 257 113 q 423 79 366 79 q 547 101 490 79 q 640 164 605 124 q 676 258 676 203 q 639 348 676 313 q 544 404 602 383 q 423 435 486 424 q 245 483 324 453 q 120 567 166 513 q 74 711 74 622 q 123 857 74 795 q 251 953 172 919 q 423 987 331 987 q 571 963 499 987 q 698 894 643 940 q 778 784 753 849 l 685 751 q 630 825 670 794 q 535 873 589 856 q 423 889 481 889 q 300 867 357 890 q 207 805 242 844 q 172 711 172 765 q 205 615 172 649 q 294 565 238 581 q 423 535 351 548 q 596 485 516 519 q 724 395 676 451 q 773 258 773 340 q 724 112 773 174 q 596 16 676 50 q 423 -18 517 -18 m 473 -274 q 433 -258 449 -274 q 417 -219 417 -242 q 433 -180 417 -195 q 473 -164 449 -164 q 512 -180 496 -164 q 528 -219 528 -195 q 513 -258 528 -242 q 473 -274 497 -274 z "},"ẞ":{"ha":784,"x_min":83,"x_max":742,"o":"m 83 0 l 83 660 q 108 781 83 725 q 175 880 132 838 q 274 947 217 923 q 394 972 330 972 q 520 949 462 972 q 615 883 579 926 q 651 781 651 840 q 632 718 651 751 q 574 636 613 685 q 472 503 534 586 q 570 494 522 510 q 657 444 618 478 q 719 365 696 411 q 742 265 742 319 q 715 150 742 200 q 643 67 688 101 q 544 17 599 34 q 436 0 490 0 l 390 0 l 366 87 l 428 87 q 531 105 479 87 q 618 164 583 124 q 653 267 653 203 q 617 368 653 329 q 530 426 582 408 q 428 444 478 444 l 378 444 l 376 484 q 393 533 376 503 q 435 598 410 563 q 487 668 461 633 q 531 733 513 703 q 549 782 549 763 q 525 843 549 821 q 463 875 501 865 q 379 884 424 884 q 280 857 326 884 q 208 783 235 829 q 181 680 181 737 l 181 0 l 83 0 z "},"T":{"ha":874,"x_min":56,"x_max":819,"o":"m 819 972 l 819 875 l 485 875 l 485 0 l 388 0 l 388 875 l 56 875 l 56 972 l 819 972 z "},"Ť":{"ha":874,"x_min":56,"x_max":819,"o":"m 819 972 l 819 875 l 485 875 l 485 0 l 388 0 l 388 875 l 56 875 l 56 972 l 819 972 m 383 1049 l 249 1249 l 314 1249 l 437 1108 l 557 1249 l 622 1249 l 490 1049 l 383 1049 z "},"Ţ":{"ha":874,"x_min":56,"x_max":819,"o":"m 819 972 l 819 875 l 485 875 l 485 0 l 388 0 l 388 875 l 56 875 l 56 972 l 819 972 m 438 -255 q 355 -244 394 -267 q 303 -177 315 -221 l 364 -161 q 386 -190 369 -180 q 422 -194 403 -199 q 452 -172 442 -189 q 456 -135 462 -155 q 434 -107 451 -116 q 397 -101 417 -97 l 331 -110 l 417 38 l 471 7 l 442 -44 q 489 -71 468 -51 q 517 -119 509 -91 q 506 -203 528 -164 q 438 -255 483 -243 z "},"Ț":{"ha":874,"x_min":56,"x_max":819,"o":"m 819 972 l 819 875 l 485 875 l 485 0 l 388 0 l 388 875 l 56 875 l 56 972 l 819 972 m 345 -306 l 388 -72 l 485 -72 l 410 -306 l 345 -306 z "},"Ṭ":{"ha":874,"x_min":56,"x_max":819,"o":"m 819 972 l 819 875 l 485 875 l 485 0 l 388 0 l 388 875 l 56 875 l 56 972 l 819 972 m 438 -274 q 398 -258 414 -274 q 381 -219 381 -242 q 398 -180 381 -195 q 438 -164 414 -164 q 477 -180 460 -164 q 493 -219 493 -195 q 477 -258 493 -242 q 438 -274 461 -274 z "},"U":{"ha":921,"x_min":83,"x_max":838,"o":"m 460 -18 q 259 39 344 -18 q 129 192 174 96 q 83 406 83 288 l 83 972 l 181 972 l 181 406 q 213 242 181 317 q 308 124 246 168 q 460 79 371 79 q 614 124 552 79 q 708 243 676 169 q 740 406 740 317 l 740 972 l 838 972 l 838 406 q 811 241 838 317 q 736 106 785 164 q 618 15 688 47 q 460 -18 548 -18 z "},"Ú":{"ha":921,"x_min":83,"x_max":838,"o":"m 460 -18 q 259 39 344 -18 q 129 192 174 96 q 83 406 83 288 l 83 972 l 181 972 l 181 406 q 213 242 181 317 q 308 124 246 168 q 460 79 371 79 q 614 124 552 79 q 708 243 676 169 q 740 406 740 317 l 740 972 l 838 972 l 838 406 q 811 241 838 317 q 736 106 785 164 q 618 15 688 47 q 460 -18 548 -18 m 437 1049 l 492 1249 l 590 1249 l 502 1049 l 437 1049 z "},"Ŭ":{"ha":921,"x_min":83,"x_max":838,"o":"m 460 -18 q 259 39 344 -18 q 129 192 174 96 q 83 406 83 288 l 83 972 l 181 972 l 181 406 q 213 242 181 317 q 308 124 246 168 q 460 79 371 79 q 614 124 552 79 q 708 243 676 169 q 740 406 740 317 l 740 972 l 838 972 l 838 406 q 811 241 838 317 q 736 106 785 164 q 618 15 688 47 q 460 -18 548 -18 m 460 1033 q 345 1065 397 1033 q 261 1148 292 1096 q 230 1264 230 1201 l 299 1264 q 322 1182 299 1219 q 381 1124 344 1146 q 460 1103 418 1103 q 541 1124 505 1103 q 600 1183 578 1146 q 622 1264 622 1219 l 691 1264 q 659 1147 691 1199 q 575 1064 628 1094 q 460 1033 523 1033 z "},"Ǔ":{"ha":921,"x_min":83,"x_max":838,"o":"m 460 -18 q 259 39 344 -18 q 129 192 174 96 q 83 406 83 288 l 83 972 l 181 972 l 181 406 q 213 242 181 317 q 308 124 246 168 q 460 79 371 79 q 614 124 552 79 q 708 243 676 169 q 740 406 740 317 l 740 972 l 838 972 l 838 406 q 811 241 838 317 q 736 106 785 164 q 618 15 688 47 q 460 -18 548 -18 m 407 1049 l 273 1249 l 338 1249 l 460 1108 l 581 1249 l 646 1249 l 513 1049 l 407 1049 z "},"Û":{"ha":921,"x_min":83,"x_max":838,"o":"m 460 -18 q 259 39 344 -18 q 129 192 174 96 q 83 406 83 288 l 83 972 l 181 972 l 181 406 q 213 242 181 317 q 308 124 246 168 q 460 79 371 79 q 614 124 552 79 q 708 243 676 169 q 740 406 740 317 l 740 972 l 838 972 l 838 406 q 811 241 838 317 q 736 106 785 164 q 618 15 688 47 q 460 -18 548 -18 m 514 1249 l 648 1049 l 583 1049 l 460 1190 l 340 1049 l 275 1049 l 408 1249 l 514 1249 z "},"Ü":{"ha":921,"x_min":83,"x_max":838,"o":"m 460 -18 q 259 39 344 -18 q 129 192 174 96 q 83 406 83 288 l 83 972 l 181 972 l 181 406 q 213 242 181 317 q 308 124 246 168 q 460 79 371 79 q 614 124 552 79 q 708 243 676 169 q 740 406 740 317 l 740 972 l 838 972 l 838 406 q 811 241 838 317 q 736 106 785 164 q 618 15 688 47 q 460 -18 548 -18 m 352 1028 q 311 1044 328 1028 q 294 1083 294 1060 q 311 1123 294 1106 q 352 1140 328 1140 q 391 1123 375 1140 q 408 1083 408 1106 q 391 1044 408 1060 q 352 1028 375 1028 m 570 1028 q 530 1044 547 1028 q 513 1083 513 1060 q 530 1123 513 1106 q 570 1140 547 1140 q 610 1123 593 1140 q 626 1083 626 1106 q 610 1044 626 1060 q 570 1028 593 1028 z "},"Ǘ":{"ha":921,"x_min":83,"x_max":838,"o":"m 460 -18 q 259 39 344 -18 q 129 192 174 96 q 83 406 83 288 l 83 972 l 181 972 l 181 406 q 213 242 181 317 q 308 124 246 168 q 460 79 371 79 q 614 124 552 79 q 708 243 676 169 q 740 406 740 317 l 740 972 l 838 972 l 838 406 q 811 241 838 317 q 736 106 785 164 q 618 15 688 47 q 460 -18 548 -18 m 352 1028 q 311 1044 328 1028 q 294 1083 294 1060 q 311 1123 294 1106 q 352 1140 328 1140 q 391 1123 375 1140 q 408 1083 408 1106 q 391 1044 408 1060 q 352 1028 375 1028 m 570 1028 q 530 1044 547 1028 q 513 1083 513 1060 q 530 1123 513 1106 q 570 1140 547 1140 q 610 1123 593 1140 q 626 1083 626 1106 q 610 1044 626 1060 q 570 1028 593 1028 m 437 1197 l 492 1397 l 590 1397 l 502 1197 l 437 1197 z "},"Ǚ":{"ha":921,"x_min":83,"x_max":838,"o":"m 460 -18 q 259 39 344 -18 q 129 192 174 96 q 83 406 83 288 l 83 972 l 181 972 l 181 406 q 213 242 181 317 q 308 124 246 168 q 460 79 371 79 q 614 124 552 79 q 708 243 676 169 q 740 406 740 317 l 740 972 l 838 972 l 838 406 q 811 241 838 317 q 736 106 785 164 q 618 15 688 47 q 460 -18 548 -18 m 352 1028 q 311 1044 328 1028 q 294 1083 294 1060 q 311 1123 294 1106 q 352 1140 328 1140 q 391 1123 375 1140 q 408 1083 408 1106 q 391 1044 408 1060 q 352 1028 375 1028 m 570 1028 q 530 1044 547 1028 q 513 1083 513 1060 q 530 1123 513 1106 q 570 1140 547 1140 q 610 1123 593 1140 q 626 1083 626 1106 q 610 1044 626 1060 q 570 1028 593 1028 m 407 1197 l 273 1397 l 338 1397 l 460 1256 l 581 1397 l 646 1397 l 513 1197 l 407 1197 z "},"Ǜ":{"ha":921,"x_min":83,"x_max":838,"o":"m 460 -18 q 259 39 344 -18 q 129 192 174 96 q 83 406 83 288 l 83 972 l 181 972 l 181 406 q 213 242 181 317 q 308 124 246 168 q 460 79 371 79 q 614 124 552 79 q 708 243 676 169 q 740 406 740 317 l 740 972 l 838 972 l 838 406 q 811 241 838 317 q 736 106 785 164 q 618 15 688 47 q 460 -18 548 -18 m 352 1028 q 311 1044 328 1028 q 294 1083 294 1060 q 311 1123 294 1106 q 352 1140 328 1140 q 391 1123 375 1140 q 408 1083 408 1106 q 391 1044 408 1060 q 352 1028 375 1028 m 570 1028 q 530 1044 547 1028 q 513 1083 513 1060 q 530 1123 513 1106 q 570 1140 547 1140 q 610 1123 593 1140 q 626 1083 626 1106 q 610 1044 626 1060 q 570 1028 593 1028 m 326 1397 l 424 1397 l 479 1197 l 415 1197 l 326 1397 z "},"Ǖ":{"ha":921,"x_min":83,"x_max":838,"o":"m 460 -18 q 259 39 344 -18 q 129 192 174 96 q 83 406 83 288 l 83 972 l 181 972 l 181 406 q 213 242 181 317 q 308 124 246 168 q 460 79 371 79 q 614 124 552 79 q 708 243 676 169 q 740 406 740 317 l 740 972 l 838 972 l 838 406 q 811 241 838 317 q 736 106 785 164 q 618 15 688 47 q 460 -18 548 -18 m 352 1028 q 311 1044 328 1028 q 294 1083 294 1060 q 311 1123 294 1106 q 352 1140 328 1140 q 391 1123 375 1140 q 408 1083 408 1106 q 391 1044 408 1060 q 352 1028 375 1028 m 570 1028 q 530 1044 547 1028 q 513 1083 513 1060 q 530 1123 513 1106 q 570 1140 547 1140 q 610 1123 593 1140 q 626 1083 626 1106 q 610 1044 626 1060 q 570 1028 593 1028 m 226 1317 l 695 1317 l 695 1238 l 226 1238 l 226 1317 z "},"Ụ":{"ha":921,"x_min":83,"x_max":838,"o":"m 460 -18 q 259 39 344 -18 q 129 192 174 96 q 83 406 83 288 l 83 972 l 181 972 l 181 406 q 213 242 181 317 q 308 124 246 168 q 460 79 371 79 q 614 124 552 79 q 708 243 676 169 q 740 406 740 317 l 740 972 l 838 972 l 838 406 q 811 241 838 317 q 736 106 785 164 q 618 15 688 47 q 460 -18 548 -18 m 461 -274 q 421 -258 438 -274 q 405 -219 405 -242 q 421 -180 405 -195 q 461 -164 438 -164 q 500 -180 484 -164 q 517 -219 517 -195 q 501 -258 517 -242 q 461 -274 485 -274 z "},"Ù":{"ha":921,"x_min":83,"x_max":838,"o":"m 460 -18 q 259 39 344 -18 q 129 192 174 96 q 83 406 83 288 l 83 972 l 181 972 l 181 406 q 213 242 181 317 q 308 124 246 168 q 460 79 371 79 q 614 124 552 79 q 708 243 676 169 q 740 406 740 317 l 740 972 l 838 972 l 838 406 q 811 241 838 317 q 736 106 785 164 q 618 15 688 47 q 460 -18 548 -18 m 326 1249 l 424 1249 l 479 1049 l 415 1049 l 326 1249 z "},"Ű":{"ha":921,"x_min":83,"x_max":838,"o":"m 460 -18 q 259 39 344 -18 q 129 192 174 96 q 83 406 83 288 l 83 972 l 181 972 l 181 406 q 213 242 181 317 q 308 124 246 168 q 460 79 371 79 q 614 124 552 79 q 708 243 676 169 q 740 406 740 317 l 740 972 l 838 972 l 838 406 q 811 241 838 317 q 736 106 785 164 q 618 15 688 47 q 460 -18 548 -18 m 538 1049 l 594 1249 l 691 1249 l 603 1049 l 538 1049 m 348 1049 l 403 1249 l 501 1249 l 413 1049 l 348 1049 z "},"Ū":{"ha":921,"x_min":83,"x_max":838,"o":"m 460 -18 q 259 39 344 -18 q 129 192 174 96 q 83 406 83 288 l 83 972 l 181 972 l 181 406 q 213 242 181 317 q 308 124 246 168 q 460 79 371 79 q 614 124 552 79 q 708 243 676 169 q 740 406 740 317 l 740 972 l 838 972 l 838 406 q 811 241 838 317 q 736 106 785 164 q 618 15 688 47 q 460 -18 548 -18 m 226 1169 l 695 1169 l 695 1090 l 226 1090 l 226 1169 z "},"Ų":{"ha":921,"x_min":83,"x_max":838,"o":"m 460 -18 q 259 39 344 -18 q 129 192 174 96 q 83 406 83 288 l 83 972 l 181 972 l 181 406 q 213 242 181 317 q 308 124 246 168 q 460 79 371 79 q 614 124 552 79 q 708 243 676 169 q 740 406 740 317 l 740 972 l 838 972 l 838 406 q 811 241 838 317 q 736 106 785 164 q 618 15 688 47 q 460 -18 548 -18 m 461 -290 q 395 -270 424 -289 q 351 -223 367 -252 q 335 -162 335 -194 q 344 -115 335 -137 q 373 -72 353 -92 l 490 44 l 542 -8 q 478 -70 503 -46 q 439 -111 453 -95 q 419 -139 425 -127 q 414 -165 414 -151 q 427 -200 414 -184 q 465 -217 441 -215 q 514 -197 491 -217 q 536 -146 536 -178 l 606 -146 q 587 -219 606 -186 q 534 -270 567 -251 q 461 -290 501 -290 z "},"Ů":{"ha":921,"x_min":83,"x_max":838,"o":"m 460 -18 q 259 39 344 -18 q 129 192 174 96 q 83 406 83 288 l 83 972 l 181 972 l 181 406 q 213 242 181 317 q 308 124 246 168 q 460 79 371 79 q 614 124 552 79 q 708 243 676 169 q 740 406 740 317 l 740 972 l 838 972 l 838 406 q 811 241 838 317 q 736 106 785 164 q 618 15 688 47 q 460 -18 548 -18 m 460 1038 q 382 1071 415 1038 q 350 1149 350 1104 q 365 1204 350 1179 q 405 1244 380 1229 q 460 1259 430 1259 q 538 1227 506 1259 q 570 1149 570 1194 q 538 1070 570 1103 q 460 1038 506 1038 m 460 1092 q 500 1109 483 1092 q 516 1149 516 1126 q 500 1188 516 1172 q 460 1203 483 1203 q 421 1188 437 1203 q 405 1149 405 1172 q 421 1109 405 1126 q 460 1092 437 1092 z "},"Ũ":{"ha":921,"x_min":83,"x_max":838,"o":"m 460 -18 q 259 39 344 -18 q 129 192 174 96 q 83 406 83 288 l 83 972 l 181 972 l 181 406 q 213 242 181 317 q 308 124 246 168 q 460 79 371 79 q 614 124 552 79 q 708 243 676 169 q 740 406 740 317 l 740 972 l 838 972 l 838 406 q 811 241 838 317 q 736 106 785 164 q 618 15 688 47 q 460 -18 548 -18 m 568 1063 q 511 1080 542 1063 q 448 1117 480 1096 q 389 1153 416 1138 q 344 1163 362 1167 q 316 1140 326 1159 q 313 1095 306 1122 l 247 1077 q 243 1153 233 1117 q 282 1211 253 1189 q 351 1234 310 1234 q 409 1219 378 1234 q 472 1184 440 1203 q 531 1149 504 1164 q 576 1133 558 1133 q 600 1145 592 1133 q 611 1174 609 1158 q 608 1201 613 1190 l 674 1222 q 677 1144 688 1181 q 638 1086 667 1108 q 568 1063 609 1063 z "},"V":{"ha":889,"x_min":33,"x_max":856,"o":"m 385 0 l 33 972 l 135 972 l 444 122 l 753 972 l 856 972 l 503 0 l 385 0 z "},"W":{"ha":1172,"x_min":33,"x_max":1140,"o":"m 281 0 l 33 972 l 133 972 l 338 167 l 543 972 l 629 972 l 835 167 l 1040 972 l 1140 972 l 892 0 l 777 0 l 586 747 l 395 0 l 281 0 z "},"Ẃ":{"ha":1172,"x_min":33,"x_max":1140,"o":"m 281 0 l 33 972 l 133 972 l 338 167 l 543 972 l 629 972 l 835 167 l 1040 972 l 1140 972 l 892 0 l 777 0 l 586 747 l 395 0 l 281 0 m 563 1049 l 618 1249 l 715 1249 l 628 1049 l 563 1049 z "},"Ŵ":{"ha":1172,"x_min":33,"x_max":1140,"o":"m 281 0 l 33 972 l 133 972 l 338 167 l 543 972 l 629 972 l 835 167 l 1040 972 l 1140 972 l 892 0 l 777 0 l 586 747 l 395 0 l 281 0 m 640 1249 l 774 1049 l 708 1049 l 586 1190 l 465 1049 l 401 1049 l 533 1249 l 640 1249 z "},"Ẅ":{"ha":1172,"x_min":33,"x_max":1140,"o":"m 281 0 l 33 972 l 133 972 l 338 167 l 543 972 l 629 972 l 835 167 l 1040 972 l 1140 972 l 892 0 l 777 0 l 586 747 l 395 0 l 281 0 m 478 1028 q 437 1044 454 1028 q 420 1083 420 1060 q 437 1123 420 1106 q 478 1140 454 1140 q 517 1123 501 1140 q 533 1083 533 1106 q 517 1044 533 1060 q 478 1028 501 1028 m 696 1028 q 656 1044 672 1028 q 639 1083 639 1060 q 656 1123 639 1106 q 696 1140 672 1140 q 735 1123 719 1140 q 752 1083 752 1106 q 735 1044 752 1060 q 696 1028 719 1028 z "},"Ẁ":{"ha":1172,"x_min":33,"x_max":1140,"o":"m 281 0 l 33 972 l 133 972 l 338 167 l 543 972 l 629 972 l 835 167 l 1040 972 l 1140 972 l 892 0 l 777 0 l 586 747 l 395 0 l 281 0 m 452 1249 l 549 1249 l 605 1049 l 540 1049 l 452 1249 z "},"X":{"ha":916,"x_min":42,"x_max":874,"o":"m 42 0 l 398 489 l 46 972 l 166 972 l 458 571 l 750 972 l 870 972 l 519 489 l 874 0 l 753 0 l 458 406 l 163 0 l 42 0 z "},"Y":{"ha":835,"x_min":42,"x_max":794,"o":"m 679 972 l 794 972 l 466 440 l 466 0 l 369 0 l 369 440 l 42 972 l 156 972 l 417 547 l 679 972 z "},"Ý":{"ha":835,"x_min":42,"x_max":794,"o":"m 679 972 l 794 972 l 466 440 l 466 0 l 369 0 l 369 440 l 42 972 l 156 972 l 417 547 l 679 972 m 394 1049 l 449 1249 l 547 1249 l 459 1049 l 394 1049 z "},"Ŷ":{"ha":835,"x_min":42,"x_max":794,"o":"m 679 972 l 794 972 l 466 440 l 466 0 l 369 0 l 369 440 l 42 972 l 156 972 l 417 547 l 679 972 m 471 1249 l 605 1049 l 540 1049 l 417 1190 l 297 1049 l 232 1049 l 365 1249 l 471 1249 z "},"Ÿ":{"ha":835,"x_min":42,"x_max":794,"o":"m 679 972 l 794 972 l 466 440 l 466 0 l 369 0 l 369 440 l 42 972 l 156 972 l 417 547 l 679 972 m 309 1028 q 268 1044 285 1028 q 251 1083 251 1060 q 268 1123 251 1106 q 309 1140 285 1140 q 348 1123 332 1140 q 365 1083 365 1106 q 348 1044 365 1060 q 309 1028 332 1028 m 527 1028 q 487 1044 503 1028 q 470 1083 470 1060 q 487 1123 470 1106 q 527 1140 503 1140 q 567 1123 550 1140 q 583 1083 583 1106 q 567 1044 583 1060 q 527 1028 550 1028 z "},"Ỵ":{"ha":835,"x_min":42,"x_max":794,"o":"m 679 972 l 794 972 l 466 440 l 466 0 l 369 0 l 369 440 l 42 972 l 156 972 l 417 547 l 679 972 m 418 -274 q 378 -258 394 -274 q 362 -219 362 -242 q 378 -180 362 -195 q 418 -164 394 -164 q 457 -180 441 -164 q 474 -219 474 -195 q 458 -258 474 -242 q 418 -274 442 -274 z "},"Ỳ":{"ha":835,"x_min":42,"x_max":794,"o":"m 679 972 l 794 972 l 466 440 l 466 0 l 369 0 l 369 440 l 42 972 l 156 972 l 417 547 l 679 972 m 283 1249 l 381 1249 l 436 1049 l 372 1049 l 283 1249 z "},"Ȳ":{"ha":835,"x_min":42,"x_max":794,"o":"m 679 972 l 794 972 l 466 440 l 466 0 l 369 0 l 369 440 l 42 972 l 156 972 l 417 547 l 679 972 m 183 1169 l 652 1169 l 652 1090 l 183 1090 l 183 1169 z "},"Ỹ":{"ha":835,"x_min":42,"x_max":794,"o":"m 679 972 l 794 972 l 466 440 l 466 0 l 369 0 l 369 440 l 42 972 l 156 972 l 417 547 l 679 972 m 525 1063 q 468 1080 499 1063 q 405 1117 437 1096 q 346 1153 373 1138 q 301 1163 319 1167 q 273 1140 283 1159 q 269 1095 263 1122 l 203 1077 q 200 1153 190 1117 q 239 1211 210 1189 q 308 1234 267 1234 q 366 1219 335 1234 q 429 1184 397 1203 q 488 1149 461 1164 q 533 1133 515 1133 q 557 1145 549 1133 q 568 1174 566 1158 q 565 1201 570 1190 l 631 1222 q 634 1144 645 1181 q 595 1086 624 1108 q 525 1063 566 1063 z "},"Z":{"ha":897,"x_min":56,"x_max":842,"o":"m 56 0 l 56 97 l 712 875 l 56 875 l 56 972 l 842 972 l 842 875 l 185 97 l 842 97 l 842 0 l 56 0 z "},"Ź":{"ha":897,"x_min":56,"x_max":842,"o":"m 56 0 l 56 97 l 712 875 l 56 875 l 56 972 l 842 972 l 842 875 l 185 97 l 842 97 l 842 0 l 56 0 m 425 1049 l 481 1249 l 578 1249 l 490 1049 l 425 1049 z "},"Ž":{"ha":897,"x_min":56,"x_max":842,"o":"m 56 0 l 56 97 l 712 875 l 56 875 l 56 972 l 842 972 l 842 875 l 185 97 l 842 97 l 842 0 l 56 0 m 395 1049 l 261 1249 l 326 1249 l 449 1108 l 569 1249 l 634 1249 l 501 1049 l 395 1049 z "},"Ż":{"ha":897,"x_min":56,"x_max":842,"o":"m 56 0 l 56 97 l 712 875 l 56 875 l 56 972 l 842 972 l 842 875 l 185 97 l 842 97 l 842 0 l 56 0 m 449 1094 q 409 1109 426 1094 q 393 1149 393 1125 q 409 1188 393 1172 q 449 1203 426 1203 q 489 1188 472 1203 q 505 1149 505 1172 q 489 1109 505 1125 q 449 1094 473 1094 z "},"Ẓ":{"ha":897,"x_min":56,"x_max":842,"o":"m 56 0 l 56 97 l 712 875 l 56 875 l 56 972 l 842 972 l 842 875 l 185 97 l 842 97 l 842 0 l 56 0 m 449 -274 q 409 -258 426 -274 q 393 -219 393 -242 q 409 -180 393 -195 q 449 -164 426 -164 q 489 -180 472 -164 q 505 -219 505 -195 q 489 -258 505 -242 q 449 -274 473 -274 z "},"a":{"ha":807,"x_min":42,"x_max":751,"o":"m 654 694 l 751 694 l 751 0 l 654 0 l 651 129 q 556 23 617 63 q 410 -18 494 -18 q 267 11 333 -18 q 149 90 200 40 q 70 208 99 141 q 42 351 42 274 q 70 492 42 426 q 148 608 98 558 q 263 686 197 658 q 403 714 328 714 q 555 673 490 714 q 658 565 619 631 l 654 694 m 408 76 q 535 113 482 76 q 618 211 589 149 q 647 347 647 273 q 617 485 647 424 q 535 583 588 547 q 408 619 481 619 q 273 582 334 619 q 177 484 213 546 q 141 347 141 422 q 178 210 141 272 q 275 113 215 149 q 408 76 336 76 z "},"á":{"ha":807,"x_min":42,"x_max":751,"o":"m 654 694 l 751 694 l 751 0 l 654 0 l 651 129 q 556 23 617 63 q 410 -18 494 -18 q 267 11 333 -18 q 149 90 200 40 q 70 208 99 141 q 42 351 42 274 q 70 492 42 426 q 148 608 98 558 q 263 686 197 658 q 403 714 328 714 q 555 673 490 714 q 658 565 619 631 l 654 694 m 408 76 q 535 113 482 76 q 618 211 589 149 q 647 347 647 273 q 617 485 647 424 q 535 583 588 547 q 408 619 481 619 q 273 582 334 619 q 177 484 213 546 q 141 347 141 422 q 178 210 141 272 q 275 113 215 149 q 408 76 336 76 m 390 771 l 446 971 l 543 971 l 456 771 l 390 771 z "},"ă":{"ha":807,"x_min":42,"x_max":751,"o":"m 654 694 l 751 694 l 751 0 l 654 0 l 651 129 q 556 23 617 63 q 410 -18 494 -18 q 267 11 333 -18 q 149 90 200 40 q 70 208 99 141 q 42 351 42 274 q 70 492 42 426 q 148 608 98 558 q 263 686 197 658 q 403 714 328 714 q 555 673 490 714 q 658 565 619 631 l 654 694 m 408 76 q 535 113 482 76 q 618 211 589 149 q 647 347 647 273 q 617 485 647 424 q 535 583 588 547 q 408 619 481 619 q 273 582 334 619 q 177 484 213 546 q 141 347 141 422 q 178 210 141 272 q 275 113 215 149 q 408 76 336 76 m 414 756 q 298 787 351 756 q 215 870 246 818 q 183 986 183 923 l 253 986 q 275 905 253 941 q 335 847 298 868 q 414 825 372 825 q 495 847 458 825 q 553 905 531 868 q 575 986 575 942 l 644 986 q 613 869 644 922 q 529 786 581 817 q 414 756 476 756 z "},"ặ":{"ha":807,"x_min":42,"x_max":751,"o":"m 654 694 l 751 694 l 751 0 l 654 0 l 651 129 q 556 23 617 63 q 410 -18 494 -18 q 267 11 333 -18 q 149 90 200 40 q 70 208 99 141 q 42 351 42 274 q 70 492 42 426 q 148 608 98 558 q 263 686 197 658 q 403 714 328 714 q 555 673 490 714 q 658 565 619 631 l 654 694 m 408 76 q 535 113 482 76 q 618 211 589 149 q 647 347 647 273 q 617 485 647 424 q 535 583 588 547 q 408 619 481 619 q 273 582 334 619 q 177 484 213 546 q 141 347 141 422 q 178 210 141 272 q 275 113 215 149 q 408 76 336 76 m 415 -274 q 375 -258 391 -274 q 358 -219 358 -242 q 375 -180 358 -195 q 415 -164 391 -164 q 454 -180 438 -164 q 470 -219 470 -195 q 454 -258 470 -242 q 415 -274 438 -274 m 414 756 q 298 787 351 756 q 215 870 246 818 q 183 986 183 923 l 253 986 q 275 905 253 941 q 335 847 298 868 q 414 825 372 825 q 495 847 458 825 q 553 905 531 868 q 575 986 575 942 l 644 986 q 613 869 644 922 q 529 786 581 817 q 414 756 476 756 z "},"ǎ":{"ha":807,"x_min":42,"x_max":751,"o":"m 654 694 l 751 694 l 751 0 l 654 0 l 651 129 q 556 23 617 63 q 410 -18 494 -18 q 267 11 333 -18 q 149 90 200 40 q 70 208 99 141 q 42 351 42 274 q 70 492 42 426 q 148 608 98 558 q 263 686 197 658 q 403 714 328 714 q 555 673 490 714 q 658 565 619 631 l 654 694 m 408 76 q 535 113 482 76 q 618 211 589 149 q 647 347 647 273 q 617 485 647 424 q 535 583 588 547 q 408 619 481 619 q 273 582 334 619 q 177 484 213 546 q 141 347 141 422 q 178 210 141 272 q 275 113 215 149 q 408 76 336 76 m 360 771 l 226 971 l 291 971 l 414 830 l 534 971 l 599 971 l 467 771 l 360 771 z "},"â":{"ha":807,"x_min":42,"x_max":751,"o":"m 654 694 l 751 694 l 751 0 l 654 0 l 651 129 q 556 23 617 63 q 410 -18 494 -18 q 267 11 333 -18 q 149 90 200 40 q 70 208 99 141 q 42 351 42 274 q 70 492 42 426 q 148 608 98 558 q 263 686 197 658 q 403 714 328 714 q 555 673 490 714 q 658 565 619 631 l 654 694 m 408 76 q 535 113 482 76 q 618 211 589 149 q 647 347 647 273 q 617 485 647 424 q 535 583 588 547 q 408 619 481 619 q 273 582 334 619 q 177 484 213 546 q 141 347 141 422 q 178 210 141 272 q 275 113 215 149 q 408 76 336 76 m 467 971 l 601 771 l 536 771 l 414 912 l 293 771 l 228 771 l 361 971 l 467 971 z "},"ậ":{"ha":807,"x_min":42,"x_max":751,"o":"m 654 694 l 751 694 l 751 0 l 654 0 l 651 129 q 556 23 617 63 q 410 -18 494 -18 q 267 11 333 -18 q 149 90 200 40 q 70 208 99 141 q 42 351 42 274 q 70 492 42 426 q 148 608 98 558 q 263 686 197 658 q 403 714 328 714 q 555 673 490 714 q 658 565 619 631 l 654 694 m 408 76 q 535 113 482 76 q 618 211 589 149 q 647 347 647 273 q 617 485 647 424 q 535 583 588 547 q 408 619 481 619 q 273 582 334 619 q 177 484 213 546 q 141 347 141 422 q 178 210 141 272 q 275 113 215 149 q 408 76 336 76 m 415 -274 q 375 -258 391 -274 q 358 -219 358 -242 q 375 -180 358 -195 q 415 -164 391 -164 q 454 -180 438 -164 q 470 -219 470 -195 q 454 -258 470 -242 q 415 -274 438 -274 m 467 971 l 601 771 l 536 771 l 414 912 l 293 771 l 228 771 l 361 971 l 467 971 z "},"ä":{"ha":807,"x_min":42,"x_max":751,"o":"m 654 694 l 751 694 l 751 0 l 654 0 l 651 129 q 556 23 617 63 q 410 -18 494 -18 q 267 11 333 -18 q 149 90 200 40 q 70 208 99 141 q 42 351 42 274 q 70 492 42 426 q 148 608 98 558 q 263 686 197 658 q 403 714 328 714 q 555 673 490 714 q 658 565 619 631 l 654 694 m 408 76 q 535 113 482 76 q 618 211 589 149 q 647 347 647 273 q 617 485 647 424 q 535 583 588 547 q 408 619 481 619 q 273 582 334 619 q 177 484 213 546 q 141 347 141 422 q 178 210 141 272 q 275 113 215 149 q 408 76 336 76 m 306 751 q 265 766 282 751 q 248 806 248 782 q 265 845 248 828 q 306 862 282 862 q 345 845 328 862 q 361 806 361 828 q 345 766 361 782 q 306 751 328 751 m 524 751 q 483 766 500 751 q 467 806 467 782 q 483 845 467 828 q 524 862 500 862 q 563 845 547 862 q 580 806 580 828 q 563 766 580 782 q 524 751 547 751 z "},"ǟ":{"ha":807,"x_min":42,"x_max":751,"o":"m 654 694 l 751 694 l 751 0 l 654 0 l 651 129 q 556 23 617 63 q 410 -18 494 -18 q 267 11 333 -18 q 149 90 200 40 q 70 208 99 141 q 42 351 42 274 q 70 492 42 426 q 148 608 98 558 q 263 686 197 658 q 403 714 328 714 q 555 673 490 714 q 658 565 619 631 l 654 694 m 408 76 q 535 113 482 76 q 618 211 589 149 q 647 347 647 273 q 617 485 647 424 q 535 583 588 547 q 408 619 481 619 q 273 582 334 619 q 177 484 213 546 q 141 347 141 422 q 178 210 141 272 q 275 113 215 149 q 408 76 336 76 m 306 751 q 265 766 282 751 q 248 806 248 782 q 265 845 248 828 q 306 862 282 862 q 345 845 328 862 q 361 806 361 828 q 345 766 361 782 q 306 751 328 751 m 524 751 q 483 766 500 751 q 467 806 467 782 q 483 845 467 828 q 524 862 500 862 q 563 845 547 862 q 580 806 580 828 q 563 766 580 782 q 524 751 547 751 m 179 1039 l 649 1039 l 649 960 l 179 960 l 179 1039 z "},"ạ":{"ha":807,"x_min":42,"x_max":751,"o":"m 654 694 l 751 694 l 751 0 l 654 0 l 651 129 q 556 23 617 63 q 410 -18 494 -18 q 267 11 333 -18 q 149 90 200 40 q 70 208 99 141 q 42 351 42 274 q 70 492 42 426 q 148 608 98 558 q 263 686 197 658 q 403 714 328 714 q 555 673 490 714 q 658 565 619 631 l 654 694 m 408 76 q 535 113 482 76 q 618 211 589 149 q 647 347 647 273 q 617 485 647 424 q 535 583 588 547 q 408 619 481 619 q 273 582 334 619 q 177 484 213 546 q 141 347 141 422 q 178 210 141 272 q 275 113 215 149 q 408 76 336 76 m 415 -274 q 375 -258 391 -274 q 358 -219 358 -242 q 375 -180 358 -195 q 415 -164 391 -164 q 454 -180 438 -164 q 470 -219 470 -195 q 454 -258 470 -242 q 415 -274 438 -274 z "},"à":{"ha":807,"x_min":42,"x_max":751,"o":"m 654 694 l 751 694 l 751 0 l 654 0 l 651 129 q 556 23 617 63 q 410 -18 494 -18 q 267 11 333 -18 q 149 90 200 40 q 70 208 99 141 q 42 351 42 274 q 70 492 42 426 q 148 608 98 558 q 263 686 197 658 q 403 714 328 714 q 555 673 490 714 q 658 565 619 631 l 654 694 m 408 76 q 535 113 482 76 q 618 211 589 149 q 647 347 647 273 q 617 485 647 424 q 535 583 588 547 q 408 619 481 619 q 273 582 334 619 q 177 484 213 546 q 141 347 141 422 q 178 210 141 272 q 275 113 215 149 q 408 76 336 76 m 280 971 l 377 971 l 433 771 l 368 771 l 280 971 z "},"ā":{"ha":807,"x_min":42,"x_max":751,"o":"m 654 694 l 751 694 l 751 0 l 654 0 l 651 129 q 556 23 617 63 q 410 -18 494 -18 q 267 11 333 -18 q 149 90 200 40 q 70 208 99 141 q 42 351 42 274 q 70 492 42 426 q 148 608 98 558 q 263 686 197 658 q 403 714 328 714 q 555 673 490 714 q 658 565 619 631 l 654 694 m 408 76 q 535 113 482 76 q 618 211 589 149 q 647 347 647 273 q 617 485 647 424 q 535 583 588 547 q 408 619 481 619 q 273 582 334 619 q 177 484 213 546 q 141 347 141 422 q 178 210 141 272 q 275 113 215 149 q 408 76 336 76 m 179 891 l 649 891 l 649 813 l 179 813 l 179 891 z "},"ą":{"ha":807,"x_min":42,"x_max":816,"o":"m 654 694 l 751 694 l 751 0 l 654 0 l 651 129 q 556 23 617 63 q 410 -18 494 -18 q 267 11 333 -18 q 149 90 200 40 q 70 208 99 141 q 42 351 42 274 q 70 492 42 426 q 148 608 98 558 q 263 686 197 658 q 403 714 328 714 q 555 673 490 714 q 658 565 619 631 l 654 694 m 408 76 q 535 113 482 76 q 618 211 589 149 q 647 347 647 273 q 617 485 647 424 q 535 583 588 547 q 408 619 481 619 q 273 582 334 619 q 177 484 213 546 q 141 347 141 422 q 178 210 141 272 q 275 113 215 149 q 408 76 336 76 m 671 -282 q 605 -263 633 -281 q 561 -215 576 -244 q 545 -154 545 -186 q 554 -107 545 -130 q 583 -65 563 -84 l 699 52 l 751 0 q 688 -63 713 -38 q 649 -103 663 -87 q 629 -132 635 -119 q 624 -157 624 -144 q 637 -192 624 -176 q 674 -209 651 -208 q 723 -190 701 -209 q 746 -138 746 -170 l 816 -138 q 797 -211 816 -178 q 744 -263 777 -244 q 671 -282 711 -282 z "},"å":{"ha":807,"x_min":42,"x_max":751,"o":"m 654 694 l 751 694 l 751 0 l 654 0 l 651 129 q 556 23 617 63 q 410 -18 494 -18 q 267 11 333 -18 q 149 90 200 40 q 70 208 99 141 q 42 351 42 274 q 70 492 42 426 q 148 608 98 558 q 263 686 197 658 q 403 714 328 714 q 555 673 490 714 q 658 565 619 631 l 654 694 m 408 76 q 535 113 482 76 q 618 211 589 149 q 647 347 647 273 q 617 485 647 424 q 535 583 588 547 q 408 619 481 619 q 273 582 334 619 q 177 484 213 546 q 141 347 141 422 q 178 210 141 272 q 275 113 215 149 q 408 76 336 76 m 414 760 q 336 793 368 760 q 303 872 303 826 q 318 926 303 901 q 358 966 333 951 q 414 981 383 981 q 491 949 459 981 q 524 872 524 917 q 491 793 524 825 q 414 760 459 760 m 414 815 q 453 831 437 815 q 469 872 469 848 q 453 910 469 894 q 414 926 437 926 q 374 910 390 926 q 358 872 358 894 q 374 831 358 848 q 414 815 390 815 z "},"ã":{"ha":807,"x_min":42,"x_max":751,"o":"m 654 694 l 751 694 l 751 0 l 654 0 l 651 129 q 556 23 617 63 q 410 -18 494 -18 q 267 11 333 -18 q 149 90 200 40 q 70 208 99 141 q 42 351 42 274 q 70 492 42 426 q 148 608 98 558 q 263 686 197 658 q 403 714 328 714 q 555 673 490 714 q 658 565 619 631 l 654 694 m 408 76 q 535 113 482 76 q 618 211 589 149 q 647 347 647 273 q 617 485 647 424 q 535 583 588 547 q 408 619 481 619 q 273 582 334 619 q 177 484 213 546 q 141 347 141 422 q 178 210 141 272 q 275 113 215 149 q 408 76 336 76 m 522 785 q 465 802 496 785 q 401 839 433 818 q 342 875 369 860 q 298 885 315 890 q 269 863 280 881 q 266 817 259 844 l 200 799 q 197 875 187 839 q 235 934 207 911 q 305 956 264 956 q 363 941 331 956 q 426 906 394 926 q 485 871 458 886 q 529 856 512 856 q 554 868 545 856 q 565 896 563 880 q 562 924 567 912 l 628 944 q 631 867 642 903 q 591 808 620 831 q 522 785 563 785 z "},"æ":{"ha":1233,"x_min":21,"x_max":1195,"o":"m 231 -17 q 123 9 171 -17 q 48 81 76 35 q 21 185 21 126 q 46 286 21 240 q 118 361 72 333 q 228 390 165 390 l 497 390 q 469 503 497 451 q 392 586 442 555 q 274 617 342 617 q 174 594 222 617 l 122 676 q 196 705 158 695 q 273 714 235 714 q 441 666 365 714 q 558 537 516 617 q 630 630 586 590 q 730 692 674 669 q 847 714 785 714 q 990 683 925 714 q 1101 598 1054 653 q 1171 469 1147 542 q 1191 310 1195 396 l 603 310 q 644 192 610 244 q 731 109 678 140 q 848 79 784 79 q 973 115 917 79 q 1063 215 1028 151 l 1161 192 q 1035 41 1119 99 q 847 -18 951 -18 q 721 7 781 -18 q 616 78 662 33 q 544 182 571 123 q 469 79 517 124 q 361 8 422 34 q 231 -17 300 -17 m 231 71 q 370 112 310 71 q 463 216 431 153 q 497 311 487 260 l 228 311 q 141 276 174 311 q 109 190 109 242 q 141 107 109 144 q 231 71 172 71 m 600 389 l 1093 389 q 1054 507 1088 453 q 966 593 1019 561 q 847 626 912 626 q 729 594 783 626 q 641 509 675 563 q 600 389 607 455 z "},"ǣ":{"ha":1233,"x_min":21,"x_max":1195,"o":"m 231 -17 q 123 9 171 -17 q 48 81 76 35 q 21 185 21 126 q 46 286 21 240 q 118 361 72 333 q 228 390 165 390 l 497 390 q 469 503 497 451 q 392 586 442 555 q 274 617 342 617 q 174 594 222 617 l 122 676 q 196 705 158 695 q 273 714 235 714 q 441 666 365 714 q 558 537 516 617 q 630 630 586 590 q 730 692 674 669 q 847 714 785 714 q 990 683 925 714 q 1101 598 1054 653 q 1171 469 1147 542 q 1191 310 1195 396 l 603 310 q 644 192 610 244 q 731 109 678 140 q 848 79 784 79 q 973 115 917 79 q 1063 215 1028 151 l 1161 192 q 1035 41 1119 99 q 847 -18 951 -18 q 721 7 781 -18 q 616 78 662 33 q 544 182 571 123 q 469 79 517 124 q 361 8 422 34 q 231 -17 300 -17 m 231 71 q 370 112 310 71 q 463 216 431 153 q 497 311 487 260 l 228 311 q 141 276 174 311 q 109 190 109 242 q 141 107 109 144 q 231 71 172 71 m 600 389 l 1093 389 q 1054 507 1088 453 q 966 593 1019 561 q 847 626 912 626 q 729 594 783 626 q 641 509 675 563 q 600 389 607 455 m 323 892 l 792 892 l 792 813 l 323 813 l 323 892 z "},"b":{"ha":835,"x_min":83,"x_max":794,"o":"m 428 714 q 612 665 529 714 q 744 532 695 615 q 794 348 794 449 q 765 206 794 272 q 686 89 737 140 q 570 10 636 39 q 428 -18 503 -18 q 279 23 342 -18 q 181 130 217 64 l 181 0 l 83 0 l 83 1042 l 181 1042 l 181 566 q 279 673 217 632 q 428 714 342 714 m 427 77 q 562 114 501 77 q 658 212 622 150 q 694 348 694 274 q 658 486 694 424 q 560 583 621 547 q 427 619 499 619 q 300 583 353 619 q 217 484 246 546 q 188 348 188 422 q 217 211 188 272 q 300 113 247 149 q 427 77 354 77 z "},"ḅ":{"ha":835,"x_min":83,"x_max":794,"o":"m 428 714 q 612 665 529 714 q 744 532 695 615 q 794 348 794 449 q 765 206 794 272 q 686 89 737 140 q 570 10 636 39 q 428 -18 503 -18 q 279 23 342 -18 q 181 130 217 64 l 181 0 l 83 0 l 83 1042 l 181 1042 l 181 566 q 279 673 217 632 q 428 714 342 714 m 427 77 q 562 114 501 77 q 658 212 622 150 q 694 348 694 274 q 658 486 694 424 q 560 583 621 547 q 427 619 499 619 q 300 583 353 619 q 217 484 246 546 q 188 348 188 422 q 217 211 188 272 q 300 113 247 149 q 427 77 354 77 m 418 -274 q 378 -258 394 -274 q 362 -219 362 -242 q 378 -180 362 -195 q 418 -164 394 -164 q 457 -180 441 -164 q 474 -219 474 -195 q 458 -258 474 -242 q 418 -274 442 -274 z "},"c":{"ha":708,"x_min":42,"x_max":666,"o":"m 579 174 l 666 127 q 546 22 619 61 q 389 -18 474 -18 q 214 31 293 -18 q 89 164 135 81 q 42 347 42 247 q 69 490 42 424 q 143 607 96 556 q 254 685 191 657 q 389 714 317 714 q 546 674 474 714 q 666 568 619 635 l 579 522 q 492 592 543 567 q 389 617 442 617 q 262 580 319 617 q 172 481 205 542 q 139 347 139 420 q 173 213 139 274 q 263 116 206 152 q 389 79 320 79 q 496 106 446 79 q 579 174 546 132 z "},"ć":{"ha":708,"x_min":42,"x_max":666,"o":"m 579 174 l 666 127 q 546 22 619 61 q 389 -18 474 -18 q 214 31 293 -18 q 89 164 135 81 q 42 347 42 247 q 69 490 42 424 q 143 607 96 556 q 254 685 191 657 q 389 714 317 714 q 546 674 474 714 q 666 568 619 635 l 579 522 q 492 592 543 567 q 389 617 442 617 q 262 580 319 617 q 172 481 205 542 q 139 347 139 420 q 173 213 139 274 q 263 116 206 152 q 389 79 320 79 q 496 106 446 79 q 579 174 546 132 m 365 771 l 421 971 l 518 971 l 431 771 l 365 771 z "},"č":{"ha":708,"x_min":42,"x_max":666,"o":"m 579 174 l 666 127 q 546 22 619 61 q 389 -18 474 -18 q 214 31 293 -18 q 89 164 135 81 q 42 347 42 247 q 69 490 42 424 q 143 607 96 556 q 254 685 191 657 q 389 714 317 714 q 546 674 474 714 q 666 568 619 635 l 579 522 q 492 592 543 567 q 389 617 442 617 q 262 580 319 617 q 172 481 205 542 q 139 347 139 420 q 173 213 139 274 q 263 116 206 152 q 389 79 320 79 q 496 106 446 79 q 579 174 546 132 m 335 771 l 201 971 l 266 971 l 389 830 l 509 971 l 574 971 l 442 771 l 335 771 z "},"ç":{"ha":708,"x_min":42,"x_max":666,"o":"m 579 174 l 666 127 q 546 22 619 61 q 389 -18 474 -18 q 214 31 293 -18 q 89 164 135 81 q 42 347 42 247 q 69 490 42 424 q 143 607 96 556 q 254 685 191 657 q 389 714 317 714 q 546 674 474 714 q 666 568 619 635 l 579 522 q 492 592 543 567 q 389 617 442 617 q 262 580 319 617 q 172 481 205 542 q 139 347 139 420 q 173 213 139 274 q 263 116 206 152 q 389 79 320 79 q 496 106 446 79 q 579 174 546 132 m 390 -255 q 307 -244 347 -267 q 256 -177 267 -221 l 316 -161 q 338 -190 321 -180 q 374 -194 355 -199 q 404 -172 394 -189 q 408 -135 414 -155 q 386 -107 403 -116 q 349 -101 369 -97 l 283 -110 l 369 38 l 423 7 l 394 -44 q 441 -71 420 -51 q 469 -119 461 -91 q 458 -203 481 -164 q 390 -255 435 -243 z "},"ĉ":{"ha":708,"x_min":42,"x_max":666,"o":"m 579 174 l 666 127 q 546 22 619 61 q 389 -18 474 -18 q 214 31 293 -18 q 89 164 135 81 q 42 347 42 247 q 69 490 42 424 q 143 607 96 556 q 254 685 191 657 q 389 714 317 714 q 546 674 474 714 q 666 568 619 635 l 579 522 q 492 592 543 567 q 389 617 442 617 q 262 580 319 617 q 172 481 205 542 q 139 347 139 420 q 173 213 139 274 q 263 116 206 152 q 389 79 320 79 q 496 106 446 79 q 579 174 546 132 m 442 971 l 576 771 l 511 771 l 389 912 l 268 771 l 203 771 l 336 971 l 442 971 z "},"ċ":{"ha":708,"x_min":42,"x_max":666,"o":"m 579 174 l 666 127 q 546 22 619 61 q 389 -18 474 -18 q 214 31 293 -18 q 89 164 135 81 q 42 347 42 247 q 69 490 42 424 q 143 607 96 556 q 254 685 191 657 q 389 714 317 714 q 546 674 474 714 q 666 568 619 635 l 579 522 q 492 592 543 567 q 389 617 442 617 q 262 580 319 617 q 172 481 205 542 q 139 347 139 420 q 173 213 139 274 q 263 116 206 152 q 389 79 320 79 q 496 106 446 79 q 579 174 546 132 m 390 816 q 350 832 366 816 q 333 871 333 847 q 350 910 333 894 q 390 926 366 926 q 429 910 413 926 q 445 871 445 894 q 429 832 445 847 q 390 816 413 816 z "},"d":{"ha":835,"x_min":42,"x_max":752,"o":"m 655 1042 l 752 1042 l 752 0 l 655 0 l 655 130 q 556 23 619 63 q 407 -18 493 -18 q 265 10 331 -18 q 149 89 199 39 q 70 206 99 140 q 42 347 42 272 q 70 489 42 423 q 149 606 99 556 q 265 685 199 656 q 407 713 331 713 q 556 673 493 713 q 655 566 619 632 l 655 1042 m 408 76 q 535 113 482 76 q 618 211 589 149 q 647 347 647 273 q 617 485 647 424 q 535 583 588 547 q 408 619 481 619 q 274 582 334 619 q 177 484 213 546 q 141 347 141 422 q 178 210 141 272 q 275 113 215 149 q 408 76 336 76 z "},"ð":{"ha":781,"x_min":56,"x_max":753,"o":"m 300 731 l 247 784 l 552 1083 l 603 1030 l 300 731 m 405 -18 q 230 29 309 -18 q 103 156 150 76 q 56 331 56 235 q 83 466 56 403 q 158 578 110 530 q 269 653 206 626 q 405 680 333 680 q 527 651 471 680 q 619 572 583 622 q 571 707 603 641 q 493 827 540 774 q 384 912 446 881 q 245 944 322 944 l 245 1041 q 447 987 355 1041 q 608 839 540 933 q 715 622 676 744 q 753 360 753 499 q 709 164 753 249 q 586 30 665 78 q 405 -18 508 -18 m 405 79 q 533 114 476 79 q 624 206 590 149 q 657 331 657 263 q 623 457 657 400 q 532 548 590 514 q 405 583 475 583 q 277 548 334 583 q 186 456 220 513 q 153 331 153 399 q 186 205 153 263 q 277 114 220 148 q 405 79 335 79 z "},"ď":{"ha":835,"x_min":42,"x_max":965,"o":"m 655 1042 l 752 1042 l 752 0 l 655 0 l 655 130 q 556 23 619 63 q 407 -18 493 -18 q 265 10 331 -18 q 149 89 199 39 q 70 206 99 140 q 42 347 42 272 q 70 489 42 423 q 149 606 99 556 q 265 685 199 656 q 407 713 331 713 q 556 673 493 713 q 655 566 619 632 l 655 1042 m 408 76 q 535 113 482 76 q 618 211 589 149 q 647 347 647 273 q 617 485 647 424 q 535 583 588 547 q 408 619 481 619 q 274 582 334 619 q 177 484 213 546 q 141 347 141 422 q 178 210 141 272 q 275 113 215 149 q 408 76 336 76 m 812 842 l 867 1042 l 965 1042 l 877 842 l 812 842 z "},"ḍ":{"ha":835,"x_min":42,"x_max":752,"o":"m 655 1042 l 752 1042 l 752 0 l 655 0 l 655 130 q 556 23 619 63 q 407 -18 493 -18 q 265 10 331 -18 q 149 89 199 39 q 70 206 99 140 q 42 347 42 272 q 70 489 42 423 q 149 606 99 556 q 265 685 199 656 q 407 713 331 713 q 556 673 493 713 q 655 566 619 632 l 655 1042 m 408 76 q 535 113 482 76 q 618 211 589 149 q 647 347 647 273 q 617 485 647 424 q 535 583 588 547 q 408 619 481 619 q 274 582 334 619 q 177 484 213 546 q 141 347 141 422 q 178 210 141 272 q 275 113 215 149 q 408 76 336 76 m 423 -274 q 383 -258 399 -274 q 367 -219 367 -242 q 383 -180 367 -195 q 423 -164 399 -164 q 462 -180 446 -164 q 478 -219 478 -195 q 463 -258 478 -242 q 423 -274 447 -274 z "},"e":{"ha":776,"x_min":42,"x_max":738,"o":"m 389 -18 q 214 31 293 -18 q 89 164 135 81 q 42 347 42 247 q 69 490 42 424 q 143 607 96 556 q 254 685 191 657 q 389 714 317 714 q 531 683 466 714 q 643 598 596 653 q 714 469 690 543 q 733 310 738 396 l 144 310 q 186 192 153 244 q 273 110 220 140 q 389 79 325 80 q 514 115 458 79 q 604 215 570 151 l 703 192 q 577 41 661 99 q 389 -18 493 -18 m 142 389 l 635 389 q 596 507 631 453 q 508 593 562 561 q 389 626 453 626 q 271 594 324 626 q 183 509 217 563 q 142 389 149 455 z "},"é":{"ha":776,"x_min":42,"x_max":738,"o":"m 389 -18 q 214 31 293 -18 q 89 164 135 81 q 42 347 42 247 q 69 490 42 424 q 143 607 96 556 q 254 685 191 657 q 389 714 317 714 q 531 683 466 714 q 643 598 596 653 q 714 469 690 543 q 733 310 738 396 l 144 310 q 186 192 153 244 q 273 110 220 140 q 389 79 325 80 q 514 115 458 79 q 604 215 570 151 l 703 192 q 577 41 661 99 q 389 -18 493 -18 m 142 389 l 635 389 q 596 507 631 453 q 508 593 562 561 q 389 626 453 626 q 271 594 324 626 q 183 509 217 563 q 142 389 149 455 m 365 771 l 420 971 l 517 971 l 430 771 l 365 771 z "},"ě":{"ha":776,"x_min":42,"x_max":738,"o":"m 389 -18 q 214 31 293 -18 q 89 164 135 81 q 42 347 42 247 q 69 490 42 424 q 143 607 96 556 q 254 685 191 657 q 389 714 317 714 q 531 683 466 714 q 643 598 596 653 q 714 469 690 543 q 733 310 738 396 l 144 310 q 186 192 153 244 q 273 110 220 140 q 389 79 325 80 q 514 115 458 79 q 604 215 570 151 l 703 192 q 577 41 661 99 q 389 -18 493 -18 m 142 389 l 635 389 q 596 507 631 453 q 508 593 562 561 q 389 626 453 626 q 271 594 324 626 q 183 509 217 563 q 142 389 149 455 m 335 771 l 201 971 l 265 971 l 388 830 l 508 971 l 574 971 l 441 771 l 335 771 z "},"ê":{"ha":776,"x_min":42,"x_max":738,"o":"m 389 -18 q 214 31 293 -18 q 89 164 135 81 q 42 347 42 247 q 69 490 42 424 q 143 607 96 556 q 254 685 191 657 q 389 714 317 714 q 531 683 466 714 q 643 598 596 653 q 714 469 690 543 q 733 310 738 396 l 144 310 q 186 192 153 244 q 273 110 220 140 q 389 79 325 80 q 514 115 458 79 q 604 215 570 151 l 703 192 q 577 41 661 99 q 389 -18 493 -18 m 142 389 l 635 389 q 596 507 631 453 q 508 593 562 561 q 389 626 453 626 q 271 594 324 626 q 183 509 217 563 q 142 389 149 455 m 442 971 l 576 771 l 510 771 l 388 912 l 267 771 l 203 771 l 335 971 l 442 971 z "},"ệ":{"ha":776,"x_min":42,"x_max":738,"o":"m 389 -18 q 214 31 293 -18 q 89 164 135 81 q 42 347 42 247 q 69 490 42 424 q 143 607 96 556 q 254 685 191 657 q 389 714 317 714 q 531 683 466 714 q 643 598 596 653 q 714 469 690 543 q 733 310 738 396 l 144 310 q 186 192 153 244 q 273 110 220 140 q 389 79 325 80 q 514 115 458 79 q 604 215 570 151 l 703 192 q 577 41 661 99 q 389 -18 493 -18 m 142 389 l 635 389 q 596 507 631 453 q 508 593 562 561 q 389 626 453 626 q 271 594 324 626 q 183 509 217 563 q 142 389 149 455 m 389 -274 q 349 -258 365 -274 q 333 -219 333 -242 q 349 -180 333 -195 q 389 -164 365 -164 q 428 -180 412 -164 q 444 -219 444 -195 q 428 -258 444 -242 q 389 -274 413 -274 m 442 971 l 576 771 l 510 771 l 388 912 l 267 771 l 203 771 l 335 971 l 442 971 z "},"ë":{"ha":776,"x_min":42,"x_max":738,"o":"m 389 -18 q 214 31 293 -18 q 89 164 135 81 q 42 347 42 247 q 69 490 42 424 q 143 607 96 556 q 254 685 191 657 q 389 714 317 714 q 531 683 466 714 q 643 598 596 653 q 714 469 690 543 q 733 310 738 396 l 144 310 q 186 192 153 244 q 273 110 220 140 q 389 79 325 80 q 514 115 458 79 q 604 215 570 151 l 703 192 q 577 41 661 99 q 389 -18 493 -18 m 142 389 l 635 389 q 596 507 631 453 q 508 593 562 561 q 389 626 453 626 q 271 594 324 626 q 183 509 217 563 q 142 389 149 455 m 280 751 q 239 766 256 751 q 222 806 222 782 q 239 845 222 828 q 280 862 256 862 q 319 845 303 862 q 335 806 335 828 q 319 766 335 782 q 280 751 303 751 m 498 751 q 458 766 474 751 q 441 806 441 782 q 458 845 441 828 q 498 862 474 862 q 538 845 521 862 q 554 806 554 828 q 538 766 554 782 q 498 751 521 751 z "},"ė":{"ha":776,"x_min":42,"x_max":738,"o":"m 389 -18 q 214 31 293 -18 q 89 164 135 81 q 42 347 42 247 q 69 490 42 424 q 143 607 96 556 q 254 685 191 657 q 389 714 317 714 q 531 683 466 714 q 643 598 596 653 q 714 469 690 543 q 733 310 738 396 l 144 310 q 186 192 153 244 q 273 110 220 140 q 389 79 325 80 q 514 115 458 79 q 604 215 570 151 l 703 192 q 577 41 661 99 q 389 -18 493 -18 m 142 389 l 635 389 q 596 507 631 453 q 508 593 562 561 q 389 626 453 626 q 271 594 324 626 q 183 509 217 563 q 142 389 149 455 m 389 816 q 349 832 365 816 q 333 871 333 847 q 349 910 333 894 q 389 926 365 926 q 428 910 412 926 q 444 871 444 894 q 428 832 444 847 q 389 816 413 816 z "},"ẹ":{"ha":776,"x_min":42,"x_max":738,"o":"m 389 -18 q 214 31 293 -18 q 89 164 135 81 q 42 347 42 247 q 69 490 42 424 q 143 607 96 556 q 254 685 191 657 q 389 714 317 714 q 531 683 466 714 q 643 598 596 653 q 714 469 690 543 q 733 310 738 396 l 144 310 q 186 192 153 244 q 273 110 220 140 q 389 79 325 80 q 514 115 458 79 q 604 215 570 151 l 703 192 q 577 41 661 99 q 389 -18 493 -18 m 142 389 l 635 389 q 596 507 631 453 q 508 593 562 561 q 389 626 453 626 q 271 594 324 626 q 183 509 217 563 q 142 389 149 455 m 389 -274 q 349 -258 365 -274 q 333 -219 333 -242 q 349 -180 333 -195 q 389 -164 365 -164 q 428 -180 412 -164 q 444 -219 444 -195 q 428 -258 444 -242 q 389 -274 413 -274 z "},"è":{"ha":776,"x_min":42,"x_max":738,"o":"m 389 -18 q 214 31 293 -18 q 89 164 135 81 q 42 347 42 247 q 69 490 42 424 q 143 607 96 556 q 254 685 191 657 q 389 714 317 714 q 531 683 466 714 q 643 598 596 653 q 714 469 690 543 q 733 310 738 396 l 144 310 q 186 192 153 244 q 273 110 220 140 q 389 79 325 80 q 514 115 458 79 q 604 215 570 151 l 703 192 q 577 41 661 99 q 389 -18 493 -18 m 142 389 l 635 389 q 596 507 631 453 q 508 593 562 561 q 389 626 453 626 q 271 594 324 626 q 183 509 217 563 q 142 389 149 455 m 254 971 l 351 971 l 407 771 l 342 771 l 254 971 z "},"ē":{"ha":776,"x_min":42,"x_max":738,"o":"m 389 -18 q 214 31 293 -18 q 89 164 135 81 q 42 347 42 247 q 69 490 42 424 q 143 607 96 556 q 254 685 191 657 q 389 714 317 714 q 531 683 466 714 q 643 598 596 653 q 714 469 690 543 q 733 310 738 396 l 144 310 q 186 192 153 244 q 273 110 220 140 q 389 79 325 80 q 514 115 458 79 q 604 215 570 151 l 703 192 q 577 41 661 99 q 389 -18 493 -18 m 142 389 l 635 389 q 596 507 631 453 q 508 593 562 561 q 389 626 453 626 q 271 594 324 626 q 183 509 217 563 q 142 389 149 455 m 153 891 l 623 891 l 623 813 l 153 813 l 153 891 z "},"ę":{"ha":776,"x_min":42,"x_max":738,"o":"m 389 -18 q 214 31 293 -18 q 89 164 135 81 q 42 347 42 247 q 69 490 42 424 q 143 607 96 556 q 254 685 191 657 q 389 714 317 714 q 531 683 466 714 q 643 598 596 653 q 714 469 690 543 q 733 310 738 396 l 144 310 q 186 192 153 244 q 273 110 220 140 q 389 79 325 80 q 514 115 458 79 q 604 215 570 151 l 703 192 q 577 41 661 99 q 389 -18 493 -18 m 142 389 l 635 389 q 596 507 631 453 q 508 593 562 561 q 389 626 453 626 q 271 594 324 626 q 183 509 217 563 q 142 389 149 455 m 417 -282 q 351 -263 379 -281 q 307 -215 322 -244 q 291 -154 291 -186 q 300 -107 291 -130 q 328 -65 309 -84 l 445 52 l 497 0 q 434 -63 459 -38 q 395 -103 409 -87 q 375 -132 381 -119 q 369 -157 369 -144 q 383 -192 369 -176 q 420 -209 397 -208 q 469 -190 447 -209 q 492 -138 492 -170 l 562 -138 q 542 -211 562 -178 q 490 -263 523 -244 q 417 -282 457 -282 z "},"ẽ":{"ha":776,"x_min":42,"x_max":738,"o":"m 389 -18 q 214 31 293 -18 q 89 164 135 81 q 42 347 42 247 q 69 490 42 424 q 143 607 96 556 q 254 685 191 657 q 389 714 317 714 q 531 683 466 714 q 643 598 596 653 q 714 469 690 543 q 733 310 738 396 l 144 310 q 186 192 153 244 q 273 110 220 140 q 389 79 325 80 q 514 115 458 79 q 604 215 570 151 l 703 192 q 577 41 661 99 q 389 -18 493 -18 m 142 389 l 635 389 q 596 507 631 453 q 508 593 562 561 q 389 626 453 626 q 271 594 324 626 q 183 509 217 563 q 142 389 149 455 m 496 785 q 439 802 470 785 q 376 839 408 818 q 317 875 344 860 q 272 885 290 890 q 244 863 254 881 q 240 817 233 844 l 174 799 q 171 875 161 839 q 210 934 181 911 q 279 956 238 956 q 337 941 306 956 q 400 906 368 926 q 459 871 432 886 q 503 856 486 856 q 528 868 519 856 q 539 896 537 880 q 536 924 541 912 l 602 944 q 605 867 616 903 q 566 808 594 831 q 496 785 537 785 z "},"f":{"ha":463,"x_min":35,"x_max":446,"o":"m 227 876 l 227 694 l 435 694 l 435 597 l 227 597 l 227 0 l 130 0 l 130 597 l 35 597 l 35 694 l 130 694 l 130 876 q 155 968 130 926 q 221 1034 179 1009 q 313 1058 263 1058 q 384 1044 350 1058 q 446 1001 419 1029 l 376 932 q 348 953 365 946 q 313 961 331 961 q 252 936 278 961 q 227 876 227 911 z "},"g":{"ha":816,"x_min":42,"x_max":733,"o":"m 635 694 l 733 694 l 733 -26 q 704 -151 733 -92 q 626 -253 675 -209 q 515 -322 577 -297 q 385 -347 452 -347 q 245 -314 313 -347 q 128 -226 178 -281 q 58 -105 78 -172 l 147 -64 q 197 -158 160 -116 q 283 -225 233 -200 q 385 -249 333 -249 q 477 -232 433 -249 q 558 -183 522 -214 q 615 -112 594 -153 q 635 -26 635 -72 l 635 128 q 538 22 599 63 q 395 -18 476 -18 q 258 10 322 -18 q 145 89 194 39 q 69 206 97 140 q 42 347 42 272 q 69 489 42 423 q 145 606 97 556 q 258 685 194 656 q 395 713 322 713 q 538 673 476 713 q 635 567 599 633 l 635 694 m 396 76 q 520 114 468 76 q 601 213 573 151 q 630 347 630 275 q 601 483 630 422 q 519 582 572 544 q 396 619 467 619 q 267 582 325 619 q 175 484 209 546 q 141 347 141 422 q 176 211 141 272 q 268 113 210 149 q 396 76 326 76 z "},"ğ":{"ha":816,"x_min":42,"x_max":733,"o":"m 635 694 l 733 694 l 733 -26 q 704 -151 733 -92 q 626 -253 675 -209 q 515 -322 577 -297 q 385 -347 452 -347 q 245 -314 313 -347 q 128 -226 178 -281 q 58 -105 78 -172 l 147 -64 q 197 -158 160 -116 q 283 -225 233 -200 q 385 -249 333 -249 q 477 -232 433 -249 q 558 -183 522 -214 q 615 -112 594 -153 q 635 -26 635 -72 l 635 128 q 538 22 599 63 q 395 -18 476 -18 q 258 10 322 -18 q 145 89 194 39 q 69 206 97 140 q 42 347 42 272 q 69 489 42 423 q 145 606 97 556 q 258 685 194 656 q 395 713 322 713 q 538 673 476 713 q 635 567 599 633 l 635 694 m 396 76 q 520 114 468 76 q 601 213 573 151 q 630 347 630 275 q 601 483 630 422 q 519 582 572 544 q 396 619 467 619 q 267 582 325 619 q 175 484 209 546 q 141 347 141 422 q 176 211 141 272 q 268 113 210 149 q 396 76 326 76 m 408 756 q 293 787 345 756 q 209 870 240 818 q 178 986 178 923 l 247 986 q 270 905 247 941 q 329 847 292 868 q 408 825 366 825 q 489 847 453 825 q 548 905 526 868 q 569 986 569 942 l 639 986 q 607 869 639 922 q 523 786 576 817 q 408 756 471 756 z "},"ǧ":{"ha":816,"x_min":42,"x_max":733,"o":"m 635 694 l 733 694 l 733 -26 q 704 -151 733 -92 q 626 -253 675 -209 q 515 -322 577 -297 q 385 -347 452 -347 q 245 -314 313 -347 q 128 -226 178 -281 q 58 -105 78 -172 l 147 -64 q 197 -158 160 -116 q 283 -225 233 -200 q 385 -249 333 -249 q 477 -232 433 -249 q 558 -183 522 -214 q 615 -112 594 -153 q 635 -26 635 -72 l 635 128 q 538 22 599 63 q 395 -18 476 -18 q 258 10 322 -18 q 145 89 194 39 q 69 206 97 140 q 42 347 42 272 q 69 489 42 423 q 145 606 97 556 q 258 685 194 656 q 395 713 322 713 q 538 673 476 713 q 635 567 599 633 l 635 694 m 396 76 q 520 114 468 76 q 601 213 573 151 q 630 347 630 275 q 601 483 630 422 q 519 582 572 544 q 396 619 467 619 q 267 582 325 619 q 175 484 209 546 q 141 347 141 422 q 176 211 141 272 q 268 113 210 149 q 396 76 326 76 m 355 771 l 221 971 l 285 971 l 408 830 l 528 971 l 594 971 l 461 771 l 355 771 z "},"ĝ":{"ha":816,"x_min":42,"x_max":733,"o":"m 635 694 l 733 694 l 733 -26 q 704 -151 733 -92 q 626 -253 675 -209 q 515 -322 577 -297 q 385 -347 452 -347 q 245 -314 313 -347 q 128 -226 178 -281 q 58 -105 78 -172 l 147 -64 q 197 -158 160 -116 q 283 -225 233 -200 q 385 -249 333 -249 q 477 -232 433 -249 q 558 -183 522 -214 q 615 -112 594 -153 q 635 -26 635 -72 l 635 128 q 538 22 599 63 q 395 -18 476 -18 q 258 10 322 -18 q 145 89 194 39 q 69 206 97 140 q 42 347 42 272 q 69 489 42 423 q 145 606 97 556 q 258 685 194 656 q 395 713 322 713 q 538 673 476 713 q 635 567 599 633 l 635 694 m 396 76 q 520 114 468 76 q 601 213 573 151 q 630 347 630 275 q 601 483 630 422 q 519 582 572 544 q 396 619 467 619 q 267 582 325 619 q 175 484 209 546 q 141 347 141 422 q 176 211 141 272 q 268 113 210 149 q 396 76 326 76 m 462 971 l 596 771 l 531 771 l 408 912 l 288 771 l 223 771 l 356 971 l 462 971 z "},"ġ":{"ha":816,"x_min":42,"x_max":733,"o":"m 635 694 l 733 694 l 733 -26 q 704 -151 733 -92 q 626 -253 675 -209 q 515 -322 577 -297 q 385 -347 452 -347 q 245 -314 313 -347 q 128 -226 178 -281 q 58 -105 78 -172 l 147 -64 q 197 -158 160 -116 q 283 -225 233 -200 q 385 -249 333 -249 q 477 -232 433 -249 q 558 -183 522 -214 q 615 -112 594 -153 q 635 -26 635 -72 l 635 128 q 538 22 599 63 q 395 -18 476 -18 q 258 10 322 -18 q 145 89 194 39 q 69 206 97 140 q 42 347 42 272 q 69 489 42 423 q 145 606 97 556 q 258 685 194 656 q 395 713 322 713 q 538 673 476 713 q 635 567 599 633 l 635 694 m 396 76 q 520 114 468 76 q 601 213 573 151 q 630 347 630 275 q 601 483 630 422 q 519 582 572 544 q 396 619 467 619 q 267 582 325 619 q 175 484 209 546 q 141 347 141 422 q 176 211 141 272 q 268 113 210 149 q 396 76 326 76 m 409 816 q 369 832 385 816 q 353 871 353 847 q 369 910 353 894 q 409 926 385 926 q 448 910 432 926 q 465 871 465 894 q 449 832 465 847 q 409 816 433 816 z "},"ḡ":{"ha":816,"x_min":42,"x_max":733,"o":"m 635 694 l 733 694 l 733 -26 q 704 -151 733 -92 q 626 -253 675 -209 q 515 -322 577 -297 q 385 -347 452 -347 q 245 -314 313 -347 q 128 -226 178 -281 q 58 -105 78 -172 l 147 -64 q 197 -158 160 -116 q 283 -225 233 -200 q 385 -249 333 -249 q 477 -232 433 -249 q 558 -183 522 -214 q 615 -112 594 -153 q 635 -26 635 -72 l 635 128 q 538 22 599 63 q 395 -18 476 -18 q 258 10 322 -18 q 145 89 194 39 q 69 206 97 140 q 42 347 42 272 q 69 489 42 423 q 145 606 97 556 q 258 685 194 656 q 395 713 322 713 q 538 673 476 713 q 635 567 599 633 l 635 694 m 396 76 q 520 114 468 76 q 601 213 573 151 q 630 347 630 275 q 601 483 630 422 q 519 582 572 544 q 396 619 467 619 q 267 582 325 619 q 175 484 209 546 q 141 347 141 422 q 176 211 141 272 q 268 113 210 149 q 396 76 326 76 m 174 891 l 643 891 l 643 813 l 174 813 l 174 891 z "},"h":{"ha":744,"x_min":83,"x_max":689,"o":"m 689 430 l 689 0 l 592 0 l 592 410 q 564 514 592 467 q 490 588 536 560 q 386 616 443 616 q 283 588 330 616 q 208 514 236 560 q 181 410 181 467 l 181 0 l 83 0 l 83 1042 l 181 1042 l 181 599 q 276 683 217 651 q 405 714 335 714 q 548 676 483 714 q 651 573 613 638 q 689 430 689 508 z "},"ĥ":{"ha":744,"x_min":83,"x_max":689,"o":"m 689 430 l 689 0 l 592 0 l 592 410 q 564 514 592 467 q 490 588 536 560 q 386 616 443 616 q 283 588 330 616 q 208 514 236 560 q 181 410 181 467 l 181 0 l 83 0 l 83 1042 l 181 1042 l 181 599 q 276 683 217 651 q 405 714 335 714 q 548 676 483 714 q 651 573 613 638 q 689 430 689 508 m 449 1266 l 583 1066 l 517 1066 l 395 1207 l 274 1066 l 210 1066 l 342 1266 l 449 1266 z "},"ḥ":{"ha":744,"x_min":83,"x_max":689,"o":"m 689 430 l 689 0 l 592 0 l 592 410 q 564 514 592 467 q 490 588 536 560 q 386 616 443 616 q 283 588 330 616 q 208 514 236 560 q 181 410 181 467 l 181 0 l 83 0 l 83 1042 l 181 1042 l 181 599 q 276 683 217 651 q 405 714 335 714 q 548 676 483 714 q 651 573 613 638 q 689 430 689 508 m 396 -274 q 356 -258 372 -274 q 340 -219 340 -242 q 356 -180 340 -195 q 396 -164 372 -164 q 435 -180 419 -164 q 451 -219 451 -195 q 435 -258 451 -242 q 396 -274 419 -274 z "},"i":{"ha":264,"x_min":76,"x_max":188,"o":"m 83 694 l 181 694 l 181 0 l 83 0 l 83 694 m 133 816 q 93 832 109 816 q 76 871 76 847 q 93 910 76 894 q 133 926 109 926 q 172 910 156 926 q 188 871 188 894 q 172 832 188 847 q 133 816 156 816 z "},"ı":{"ha":264,"x_min":83,"x_max":181,"o":"m 83 694 l 181 694 l 181 0 l 83 0 l 83 694 z "},"í":{"ha":264,"x_min":83,"x_max":261,"o":"m 83 694 l 181 694 l 181 0 l 83 0 l 83 694 m 108 771 l 164 971 l 261 971 l 174 771 l 108 771 z "},"ǐ":{"ha":264,"x_min":-56,"x_max":317,"o":"m 83 694 l 181 694 l 181 0 l 83 0 l 83 694 m 78 771 l -56 971 l 9 971 l 132 830 l 252 971 l 317 971 l 185 771 l 78 771 z "},"î":{"ha":264,"x_min":-53,"x_max":319,"o":"m 83 694 l 181 694 l 181 0 l 83 0 l 83 694 m 185 971 l 319 771 l 254 771 l 132 912 l 11 771 l -53 771 l 79 971 l 185 971 z "},"ï":{"ha":264,"x_min":-34,"x_max":298,"o":"m 83 694 l 181 694 l 181 0 l 83 0 l 83 694 m 24 751 q -17 766 0 751 q -34 806 -34 782 q -17 845 -34 828 q 24 862 0 862 q 63 845 47 862 q 79 806 79 828 q 63 766 79 782 q 24 751 47 751 m 242 751 q 201 766 218 751 q 185 806 185 782 q 201 845 185 828 q 242 862 218 862 q 281 845 265 862 q 298 806 298 828 q 281 766 298 782 q 242 751 265 751 z "},"ḯ":{"ha":264,"x_min":-34,"x_max":298,"o":"m 83 694 l 181 694 l 181 0 l 83 0 l 83 694 m 24 751 q -17 766 0 751 q -34 806 -34 782 q -17 845 -34 828 q 24 862 0 862 q 63 845 47 862 q 79 806 79 828 q 63 766 79 782 q 24 751 47 751 m 242 751 q 201 766 218 751 q 185 806 185 782 q 201 845 185 828 q 242 862 218 862 q 281 845 265 862 q 298 806 298 828 q 281 766 298 782 q 242 751 265 751 m 108 919 l 164 1119 l 261 1119 l 174 919 l 108 919 z "},"ị":{"ha":264,"x_min":76,"x_max":188,"o":"m 83 694 l 181 694 l 181 0 l 83 0 l 83 694 m 133 816 q 93 832 109 816 q 76 871 76 847 q 93 910 76 894 q 133 926 109 926 q 172 910 156 926 q 188 871 188 894 q 172 832 188 847 q 133 816 156 816 m 133 -274 q 93 -258 109 -274 q 76 -219 76 -242 q 93 -180 76 -195 q 133 -164 109 -164 q 172 -180 156 -164 q 188 -219 188 -195 q 172 -258 188 -242 q 133 -274 156 -274 z "},"ì":{"ha":264,"x_min":-2,"x_max":181,"o":"m 83 694 l 181 694 l 181 0 l 83 0 l 83 694 m -2 971 l 95 971 l 151 771 l 86 771 l -2 971 z "},"ĳ":{"ha":538,"x_min":76,"x_max":462,"o":"m 83 694 l 181 694 l 181 0 l 83 0 l 83 694 m 133 816 q 93 832 109 816 q 76 871 76 847 q 93 910 76 894 q 133 926 109 926 q 172 910 156 926 q 188 871 188 894 q 172 832 188 847 q 133 816 156 816 m 176 -347 l 176 -250 q 269 -227 228 -250 q 333 -164 310 -204 q 357 -75 357 -124 l 357 694 l 454 694 l 454 -75 q 418 -212 454 -150 q 318 -310 381 -274 q 176 -347 256 -347 m 406 816 q 366 832 383 816 q 350 871 350 847 q 366 910 350 894 q 406 926 383 926 q 445 910 429 926 q 462 871 462 894 q 446 832 462 847 q 406 816 430 816 z "},"ī":{"ha":264,"x_min":0,"x_max":264,"o":"m 0 891 l 264 891 l 264 813 l 0 813 l 0 891 m 83 694 l 181 694 l 181 0 l 83 0 l 83 694 z "},"į":{"ha":264,"x_min":-26,"x_max":245,"o":"m 83 694 l 181 694 l 181 0 l 83 0 l 83 694 m 133 816 q 93 832 109 816 q 76 871 76 847 q 93 910 76 894 q 133 926 109 926 q 172 910 156 926 q 188 871 188 894 q 172 832 188 847 q 133 816 156 816 m 100 -282 q 34 -263 63 -281 q -10 -215 6 -244 q -26 -154 -26 -186 q -17 -107 -26 -130 q 12 -65 -8 -84 l 128 52 l 181 0 q 117 -63 142 -38 q 78 -103 92 -87 q 58 -132 64 -119 q 53 -157 53 -144 q 66 -192 53 -176 q 103 -209 80 -208 q 152 -190 130 -209 q 175 -138 175 -170 l 245 -138 q 226 -211 245 -178 q 173 -263 206 -244 q 100 -282 140 -282 z "},"ĩ":{"ha":264,"x_min":-35,"x_max":303,"o":"m 211 767 q 169 781 192 767 q 123 810 146 794 q 80 839 99 827 q 47 847 60 851 q 26 829 33 844 q 24 793 19 814 l -25 778 q -27 839 -35 810 q 1 886 -20 867 q 52 904 22 904 q 94 892 71 904 q 141 864 117 880 q 184 836 164 848 q 217 824 204 824 q 239 844 233 824 q 240 878 245 864 l 289 894 q 280 806 303 844 q 211 767 256 767 m 83 694 l 181 694 l 181 0 l 83 0 l 83 694 z "},"j":{"ha":306,"x_min":-56,"x_max":231,"o":"m -56 -347 l -56 -250 q 38 -227 -3 -250 q 102 -164 78 -204 q 126 -75 126 -124 l 126 694 l 223 694 l 223 -75 q 186 -212 223 -150 q 87 -310 150 -274 q -56 -347 24 -347 m 175 816 q 135 832 151 816 q 119 871 119 847 q 135 910 119 894 q 175 926 151 926 q 214 910 198 926 q 231 871 231 894 q 215 832 231 847 q 175 816 199 816 z "},"ȷ":{"ha":306,"x_min":-56,"x_max":223,"o":"m -56 -347 l -56 -250 q 38 -227 -3 -250 q 102 -164 78 -204 q 126 -75 126 -124 l 126 694 l 223 694 l 223 -75 q 186 -212 223 -150 q 87 -310 150 -274 q -56 -347 24 -347 z "},"ĵ":{"ha":306,"x_min":-56,"x_max":362,"o":"m -56 -347 l -56 -250 q 38 -227 -3 -250 q 102 -164 78 -204 q 126 -75 126 -124 l 126 694 l 223 694 l 223 -75 q 186 -212 223 -150 q 87 -310 150 -274 q -56 -347 24 -347 m 228 971 l 362 771 l 297 771 l 174 912 l 53 771 l -11 771 l 122 971 l 228 971 z "},"k":{"ha":682,"x_min":83,"x_max":626,"o":"m 626 0 l 514 0 l 319 335 l 181 169 l 181 0 l 83 0 l 83 1042 l 181 1042 l 181 321 l 494 694 l 621 694 l 385 415 l 626 0 z "},"ǩ":{"ha":682,"x_min":83,"x_max":626,"o":"m 626 0 l 514 0 l 319 335 l 181 169 l 181 0 l 83 0 l 83 1042 l 181 1042 l 181 321 l 494 694 l 621 694 l 385 415 l 626 0 m 322 1049 l 188 1249 l 253 1249 l 376 1108 l 496 1249 l 561 1249 l 428 1049 l 322 1049 z "},"ķ":{"ha":682,"x_min":83,"x_max":626,"o":"m 626 0 l 514 0 l 319 335 l 181 169 l 181 0 l 83 0 l 83 1042 l 181 1042 l 181 321 l 494 694 l 621 694 l 385 415 l 626 0 m 242 -306 l 285 -72 l 383 -72 l 307 -306 l 242 -306 z "},"l":{"ha":264,"x_min":83,"x_max":181,"o":"m 83 0 l 83 1042 l 181 1042 l 181 0 l 83 0 z "},"ĺ":{"ha":264,"x_min":83,"x_max":261,"o":"m 83 0 l 83 1042 l 181 1042 l 181 0 l 83 0 m 108 1118 l 164 1318 l 261 1318 l 174 1118 l 108 1118 z "},"ľ":{"ha":264,"x_min":83,"x_max":389,"o":"m 83 0 l 83 1042 l 181 1042 l 181 0 l 83 0 m 236 842 l 292 1042 l 389 1042 l 301 842 l 236 842 z "},"ļ":{"ha":264,"x_min":40,"x_max":181,"o":"m 83 0 l 83 1042 l 181 1042 l 181 0 l 83 0 m 40 -306 l 83 -72 l 181 -72 l 105 -306 l 40 -306 z "},"ḷ":{"ha":264,"x_min":76,"x_max":188,"o":"m 83 0 l 83 1042 l 181 1042 l 181 0 l 83 0 m 133 -274 q 93 -258 109 -274 q 76 -219 76 -242 q 93 -180 76 -195 q 133 -164 109 -164 q 172 -180 156 -164 q 188 -219 188 -195 q 172 -258 188 -242 q 133 -274 156 -274 z "},"m":{"ha":1234,"x_min":83,"x_max":1178,"o":"m 83 0 l 83 694 l 181 694 l 181 599 q 276 683 218 651 q 404 714 335 714 q 548 675 483 714 q 650 573 613 637 q 751 675 687 637 q 894 714 816 714 q 1038 676 973 714 q 1140 573 1102 638 q 1178 430 1178 508 l 1178 0 l 1081 0 l 1081 408 q 1054 511 1081 464 q 982 587 1027 558 q 881 616 936 616 q 780 589 825 616 q 707 516 734 563 q 680 408 680 469 l 680 0 l 583 0 l 583 408 q 556 516 583 469 q 483 589 528 563 q 381 616 437 616 q 281 587 326 616 q 208 511 235 558 q 181 408 181 464 l 181 0 l 83 0 z "},"ḿ":{"ha":1234,"x_min":83,"x_max":1178,"o":"m 83 0 l 83 694 l 181 694 l 181 599 q 276 683 218 651 q 404 714 335 714 q 548 675 483 714 q 650 573 613 637 q 751 675 687 637 q 894 714 816 714 q 1038 676 973 714 q 1140 573 1102 638 q 1178 430 1178 508 l 1178 0 l 1081 0 l 1081 408 q 1054 511 1081 464 q 982 587 1027 558 q 881 616 936 616 q 780 589 825 616 q 707 516 734 563 q 680 408 680 469 l 680 0 l 583 0 l 583 408 q 556 516 583 469 q 483 589 528 563 q 381 616 437 616 q 281 587 326 616 q 208 511 235 558 q 181 408 181 464 l 181 0 l 83 0 m 626 771 l 682 971 l 779 971 l 692 771 l 626 771 z "},"ṁ":{"ha":1234,"x_min":83,"x_max":1178,"o":"m 83 0 l 83 694 l 181 694 l 181 599 q 276 683 218 651 q 404 714 335 714 q 548 675 483 714 q 650 573 613 637 q 751 675 687 637 q 894 714 816 714 q 1038 676 973 714 q 1140 573 1102 638 q 1178 430 1178 508 l 1178 0 l 1081 0 l 1081 408 q 1054 511 1081 464 q 982 587 1027 558 q 881 616 936 616 q 780 589 825 616 q 707 516 734 563 q 680 408 680 469 l 680 0 l 583 0 l 583 408 q 556 516 583 469 q 483 589 528 563 q 381 616 437 616 q 281 587 326 616 q 208 511 235 558 q 181 408 181 464 l 181 0 l 83 0 m 651 816 q 611 832 627 816 q 594 871 594 847 q 611 910 594 894 q 651 926 627 926 q 690 910 674 926 q 706 871 706 894 q 690 832 706 847 q 651 816 674 816 z "},"ṃ":{"ha":1234,"x_min":83,"x_max":1178,"o":"m 83 0 l 83 694 l 181 694 l 181 599 q 276 683 218 651 q 404 714 335 714 q 548 675 483 714 q 650 573 613 637 q 751 675 687 637 q 894 714 816 714 q 1038 676 973 714 q 1140 573 1102 638 q 1178 430 1178 508 l 1178 0 l 1081 0 l 1081 408 q 1054 511 1081 464 q 982 587 1027 558 q 881 616 936 616 q 780 589 825 616 q 707 516 734 563 q 680 408 680 469 l 680 0 l 583 0 l 583 408 q 556 516 583 469 q 483 589 528 563 q 381 616 437 616 q 281 587 326 616 q 208 511 235 558 q 181 408 181 464 l 181 0 l 83 0 m 632 -274 q 592 -258 608 -274 q 576 -219 576 -242 q 592 -180 576 -195 q 632 -164 608 -164 q 671 -180 655 -164 q 688 -219 688 -195 q 672 -258 688 -242 q 632 -274 656 -274 z "},"n":{"ha":744,"x_min":83,"x_max":689,"o":"m 689 430 l 689 0 l 592 0 l 592 410 q 564 514 592 467 q 490 588 536 560 q 386 616 443 616 q 283 588 330 616 q 208 514 236 560 q 181 410 181 467 l 181 0 l 83 0 l 83 694 l 181 694 l 181 599 q 276 683 217 651 q 405 714 335 714 q 548 676 483 714 q 651 573 613 638 q 689 430 689 508 z "},"ń":{"ha":744,"x_min":83,"x_max":689,"o":"m 689 430 l 689 0 l 592 0 l 592 410 q 564 514 592 467 q 490 588 536 560 q 386 616 443 616 q 283 588 330 616 q 208 514 236 560 q 181 410 181 467 l 181 0 l 83 0 l 83 694 l 181 694 l 181 599 q 276 683 217 651 q 405 714 335 714 q 548 676 483 714 q 651 573 613 638 q 689 430 689 508 m 367 771 l 423 971 l 520 971 l 433 771 l 367 771 z "},"ň":{"ha":744,"x_min":83,"x_max":689,"o":"m 689 430 l 689 0 l 592 0 l 592 410 q 564 514 592 467 q 490 588 536 560 q 386 616 443 616 q 283 588 330 616 q 208 514 236 560 q 181 410 181 467 l 181 0 l 83 0 l 83 694 l 181 694 l 181 599 q 276 683 217 651 q 405 714 335 714 q 548 676 483 714 q 651 573 613 638 q 689 430 689 508 m 338 771 l 203 971 l 268 971 l 391 830 l 511 971 l 576 971 l 444 771 l 338 771 z "},"ņ":{"ha":744,"x_min":83,"x_max":689,"o":"m 689 430 l 689 0 l 592 0 l 592 410 q 564 514 592 467 q 490 588 536 560 q 386 616 443 616 q 283 588 330 616 q 208 514 236 560 q 181 410 181 467 l 181 0 l 83 0 l 83 694 l 181 694 l 181 599 q 276 683 217 651 q 405 714 335 714 q 548 676 483 714 q 651 573 613 638 q 689 430 689 508 m 294 -306 l 338 -72 l 435 -72 l 359 -306 l 294 -306 z "},"ṅ":{"ha":744,"x_min":83,"x_max":689,"o":"m 689 430 l 689 0 l 592 0 l 592 410 q 564 514 592 467 q 490 588 536 560 q 386 616 443 616 q 283 588 330 616 q 208 514 236 560 q 181 410 181 467 l 181 0 l 83 0 l 83 694 l 181 694 l 181 599 q 276 683 217 651 q 405 714 335 714 q 548 676 483 714 q 651 573 613 638 q 689 430 689 508 m 392 816 q 352 832 368 816 q 335 871 335 847 q 352 910 335 894 q 392 926 368 926 q 431 910 415 926 q 447 871 447 894 q 431 832 447 847 q 392 816 415 816 z "},"ṇ":{"ha":744,"x_min":83,"x_max":689,"o":"m 689 430 l 689 0 l 592 0 l 592 410 q 564 514 592 467 q 490 588 536 560 q 386 616 443 616 q 283 588 330 616 q 208 514 236 560 q 181 410 181 467 l 181 0 l 83 0 l 83 694 l 181 694 l 181 599 q 276 683 217 651 q 405 714 335 714 q 548 676 483 714 q 651 573 613 638 q 689 430 689 508 m 387 -274 q 347 -258 363 -274 q 331 -219 331 -242 q 347 -180 331 -195 q 387 -164 363 -164 q 426 -180 410 -164 q 442 -219 442 -195 q 426 -258 442 -242 q 387 -274 410 -274 z "},"ñ":{"ha":744,"x_min":83,"x_max":689,"o":"m 689 430 l 689 0 l 592 0 l 592 410 q 564 514 592 467 q 490 588 536 560 q 386 616 443 616 q 283 588 330 616 q 208 514 236 560 q 181 410 181 467 l 181 0 l 83 0 l 83 694 l 181 694 l 181 599 q 276 683 217 651 q 405 714 335 714 q 548 676 483 714 q 651 573 613 638 q 689 430 689 508 m 499 785 q 442 802 473 785 q 378 839 410 818 q 319 875 347 860 q 275 885 292 890 q 247 863 257 881 q 243 817 236 844 l 177 799 q 174 875 164 839 q 213 934 184 911 q 282 956 241 956 q 340 941 308 956 q 403 906 371 926 q 462 871 435 886 q 506 856 489 856 q 531 868 522 856 q 542 896 540 880 q 539 924 544 912 l 605 944 q 608 867 619 903 q 568 808 597 831 q 499 785 540 785 z "},"o":{"ha":778,"x_min":42,"x_max":736,"o":"m 389 -18 q 214 31 293 -18 q 89 164 135 81 q 42 347 42 247 q 69 490 42 424 q 143 607 96 556 q 254 685 191 657 q 389 714 317 714 q 564 665 485 714 q 689 532 642 615 q 736 347 736 449 q 709 206 736 272 q 634 89 682 140 q 524 10 587 39 q 389 -18 461 -18 m 389 79 q 516 116 460 79 q 606 215 573 153 q 639 347 639 276 q 606 482 639 420 q 516 580 572 543 q 389 617 459 617 q 261 580 318 617 q 172 481 205 542 q 139 347 139 420 q 173 211 139 272 q 264 115 207 151 q 389 79 321 79 z "},"ó":{"ha":778,"x_min":42,"x_max":736,"o":"m 389 -18 q 214 31 293 -18 q 89 164 135 81 q 42 347 42 247 q 69 490 42 424 q 143 607 96 556 q 254 685 191 657 q 389 714 317 714 q 564 665 485 714 q 689 532 642 615 q 736 347 736 449 q 709 206 736 272 q 634 89 682 140 q 524 10 587 39 q 389 -18 461 -18 m 389 79 q 516 116 460 79 q 606 215 573 153 q 639 347 639 276 q 606 482 639 420 q 516 580 572 543 q 389 617 459 617 q 261 580 318 617 q 172 481 205 542 q 139 347 139 420 q 173 211 139 272 q 264 115 207 151 q 389 79 321 79 m 365 771 l 421 971 l 518 971 l 431 771 l 365 771 z "},"ǒ":{"ha":778,"x_min":42,"x_max":736,"o":"m 389 -18 q 214 31 293 -18 q 89 164 135 81 q 42 347 42 247 q 69 490 42 424 q 143 607 96 556 q 254 685 191 657 q 389 714 317 714 q 564 665 485 714 q 689 532 642 615 q 736 347 736 449 q 709 206 736 272 q 634 89 682 140 q 524 10 587 39 q 389 -18 461 -18 m 389 79 q 516 116 460 79 q 606 215 573 153 q 639 347 639 276 q 606 482 639 420 q 516 580 572 543 q 389 617 459 617 q 261 580 318 617 q 172 481 205 542 q 139 347 139 420 q 173 211 139 272 q 264 115 207 151 q 389 79 321 79 m 335 771 l 201 971 l 266 971 l 389 830 l 509 971 l 574 971 l 442 771 l 335 771 z "},"ô":{"ha":778,"x_min":42,"x_max":736,"o":"m 389 -18 q 214 31 293 -18 q 89 164 135 81 q 42 347 42 247 q 69 490 42 424 q 143 607 96 556 q 254 685 191 657 q 389 714 317 714 q 564 665 485 714 q 689 532 642 615 q 736 347 736 449 q 709 206 736 272 q 634 89 682 140 q 524 10 587 39 q 389 -18 461 -18 m 389 79 q 516 116 460 79 q 606 215 573 153 q 639 347 639 276 q 606 482 639 420 q 516 580 572 543 q 389 617 459 617 q 261 580 318 617 q 172 481 205 542 q 139 347 139 420 q 173 211 139 272 q 264 115 207 151 q 389 79 321 79 m 442 971 l 576 771 l 511 771 l 389 912 l 268 771 l 203 771 l 336 971 l 442 971 z "},"ộ":{"ha":778,"x_min":42,"x_max":736,"o":"m 389 -18 q 214 31 293 -18 q 89 164 135 81 q 42 347 42 247 q 69 490 42 424 q 143 607 96 556 q 254 685 191 657 q 389 714 317 714 q 564 665 485 714 q 689 532 642 615 q 736 347 736 449 q 709 206 736 272 q 634 89 682 140 q 524 10 587 39 q 389 -18 461 -18 m 389 79 q 516 116 460 79 q 606 215 573 153 q 639 347 639 276 q 606 482 639 420 q 516 580 572 543 q 389 617 459 617 q 261 580 318 617 q 172 481 205 542 q 139 347 139 420 q 173 211 139 272 q 264 115 207 151 q 389 79 321 79 m 390 -274 q 350 -258 366 -274 q 333 -219 333 -242 q 350 -180 333 -195 q 390 -164 366 -164 q 429 -180 413 -164 q 445 -219 445 -195 q 429 -258 445 -242 q 390 -274 413 -274 m 442 971 l 576 771 l 511 771 l 389 912 l 268 771 l 203 771 l 336 971 l 442 971 z "},"ö":{"ha":778,"x_min":42,"x_max":736,"o":"m 389 -18 q 214 31 293 -18 q 89 164 135 81 q 42 347 42 247 q 69 490 42 424 q 143 607 96 556 q 254 685 191 657 q 389 714 317 714 q 564 665 485 714 q 689 532 642 615 q 736 347 736 449 q 709 206 736 272 q 634 89 682 140 q 524 10 587 39 q 389 -18 461 -18 m 389 79 q 516 116 460 79 q 606 215 573 153 q 639 347 639 276 q 606 482 639 420 q 516 580 572 543 q 389 617 459 617 q 261 580 318 617 q 172 481 205 542 q 139 347 139 420 q 173 211 139 272 q 264 115 207 151 q 389 79 321 79 m 281 751 q 240 766 257 751 q 223 806 223 782 q 240 845 223 828 q 281 862 257 862 q 320 845 303 862 q 336 806 336 828 q 320 766 336 782 q 281 751 303 751 m 499 751 q 458 766 475 751 q 442 806 442 782 q 458 845 442 828 q 499 862 475 862 q 538 845 522 862 q 555 806 555 828 q 538 766 555 782 q 499 751 522 751 z "},"ȫ":{"ha":778,"x_min":42,"x_max":736,"o":"m 389 -18 q 214 31 293 -18 q 89 164 135 81 q 42 347 42 247 q 69 490 42 424 q 143 607 96 556 q 254 685 191 657 q 389 714 317 714 q 564 665 485 714 q 689 532 642 615 q 736 347 736 449 q 709 206 736 272 q 634 89 682 140 q 524 10 587 39 q 389 -18 461 -18 m 389 79 q 516 116 460 79 q 606 215 573 153 q 639 347 639 276 q 606 482 639 420 q 516 580 572 543 q 389 617 459 617 q 261 580 318 617 q 172 481 205 542 q 139 347 139 420 q 173 211 139 272 q 264 115 207 151 q 389 79 321 79 m 281 751 q 240 766 257 751 q 223 806 223 782 q 240 845 223 828 q 281 862 257 862 q 320 845 303 862 q 336 806 336 828 q 320 766 336 782 q 281 751 303 751 m 499 751 q 458 766 475 751 q 442 806 442 782 q 458 845 442 828 q 499 862 475 862 q 538 845 522 862 q 555 806 555 828 q 538 766 555 782 q 499 751 522 751 m 154 1039 l 624 1039 l 624 960 l 154 960 l 154 1039 z "},"ọ":{"ha":778,"x_min":42,"x_max":736,"o":"m 389 -18 q 214 31 293 -18 q 89 164 135 81 q 42 347 42 247 q 69 490 42 424 q 143 607 96 556 q 254 685 191 657 q 389 714 317 714 q 564 665 485 714 q 689 532 642 615 q 736 347 736 449 q 709 206 736 272 q 634 89 682 140 q 524 10 587 39 q 389 -18 461 -18 m 389 79 q 516 116 460 79 q 606 215 573 153 q 639 347 639 276 q 606 482 639 420 q 516 580 572 543 q 389 617 459 617 q 261 580 318 617 q 172 481 205 542 q 139 347 139 420 q 173 211 139 272 q 264 115 207 151 q 389 79 321 79 m 390 -274 q 350 -258 366 -274 q 333 -219 333 -242 q 350 -180 333 -195 q 390 -164 366 -164 q 429 -180 413 -164 q 445 -219 445 -195 q 429 -258 445 -242 q 390 -274 413 -274 z "},"ò":{"ha":778,"x_min":42,"x_max":736,"o":"m 389 -18 q 214 31 293 -18 q 89 164 135 81 q 42 347 42 247 q 69 490 42 424 q 143 607 96 556 q 254 685 191 657 q 389 714 317 714 q 564 665 485 714 q 689 532 642 615 q 736 347 736 449 q 709 206 736 272 q 634 89 682 140 q 524 10 587 39 q 389 -18 461 -18 m 389 79 q 516 116 460 79 q 606 215 573 153 q 639 347 639 276 q 606 482 639 420 q 516 580 572 543 q 389 617 459 617 q 261 580 318 617 q 172 481 205 542 q 139 347 139 420 q 173 211 139 272 q 264 115 207 151 q 389 79 321 79 m 255 971 l 352 971 l 408 771 l 343 771 l 255 971 z "},"ő":{"ha":778,"x_min":42,"x_max":736,"o":"m 389 -18 q 214 31 293 -18 q 89 164 135 81 q 42 347 42 247 q 69 490 42 424 q 143 607 96 556 q 254 685 191 657 q 389 714 317 714 q 564 665 485 714 q 689 532 642 615 q 736 347 736 449 q 709 206 736 272 q 634 89 682 140 q 524 10 587 39 q 389 -18 461 -18 m 389 79 q 516 116 460 79 q 606 215 573 153 q 639 347 639 276 q 606 482 639 420 q 516 580 572 543 q 389 617 459 617 q 261 580 318 617 q 172 481 205 542 q 139 347 139 420 q 173 211 139 272 q 264 115 207 151 q 389 79 321 79 m 467 771 l 522 971 l 619 971 l 532 771 l 467 771 m 276 771 l 332 971 l 429 971 l 342 771 l 276 771 z "},"ō":{"ha":778,"x_min":42,"x_max":736,"o":"m 389 -18 q 214 31 293 -18 q 89 164 135 81 q 42 347 42 247 q 69 490 42 424 q 143 607 96 556 q 254 685 191 657 q 389 714 317 714 q 564 665 485 714 q 689 532 642 615 q 736 347 736 449 q 709 206 736 272 q 634 89 682 140 q 524 10 587 39 q 389 -18 461 -18 m 389 79 q 516 116 460 79 q 606 215 573 153 q 639 347 639 276 q 606 482 639 420 q 516 580 572 543 q 389 617 459 617 q 261 580 318 617 q 172 481 205 542 q 139 347 139 420 q 173 211 139 272 q 264 115 207 151 q 389 79 321 79 m 154 891 l 624 891 l 624 813 l 154 813 l 154 891 z "},"ø":{"ha":778,"x_min":42,"x_max":736,"o":"m 214 -38 l 142 3 l 176 61 q 78 186 115 111 q 42 347 42 260 q 69 490 42 424 q 143 607 96 556 q 254 685 191 657 q 389 714 317 714 q 464 705 428 714 q 532 681 500 697 l 565 735 l 637 694 l 603 635 q 700 511 664 585 q 736 347 736 436 q 709 206 736 272 q 634 89 682 140 q 524 10 587 39 q 389 -18 461 -18 q 314 -9 351 -18 q 245 16 278 1 l 214 -38 m 224 144 l 487 601 q 362 621 424 630 q 248 574 299 612 q 165 476 196 535 q 133 343 133 416 q 158 231 133 282 q 224 144 183 179 m 291 95 q 418 76 356 67 q 532 123 481 85 q 614 220 583 161 q 644 351 644 280 q 620 465 644 413 q 555 552 596 517 l 291 95 z "},"õ":{"ha":778,"x_min":42,"x_max":736,"o":"m 389 -18 q 214 31 293 -18 q 89 164 135 81 q 42 347 42 247 q 69 490 42 424 q 143 607 96 556 q 254 685 191 657 q 389 714 317 714 q 564 665 485 714 q 689 532 642 615 q 736 347 736 449 q 709 206 736 272 q 634 89 682 140 q 524 10 587 39 q 389 -18 461 -18 m 389 79 q 516 116 460 79 q 606 215 573 153 q 639 347 639 276 q 606 482 639 420 q 516 580 572 543 q 389 617 459 617 q 261 580 318 617 q 172 481 205 542 q 139 347 139 420 q 173 211 139 272 q 264 115 207 151 q 389 79 321 79 m 497 785 q 440 802 471 785 q 376 839 408 818 q 317 875 344 860 q 273 885 290 890 q 244 863 255 881 q 241 817 234 844 l 175 799 q 172 875 162 839 q 210 934 182 911 q 280 956 239 956 q 338 941 306 956 q 401 906 369 926 q 460 871 433 886 q 504 856 487 856 q 529 868 520 856 q 540 896 538 880 q 537 924 542 912 l 603 944 q 606 867 617 903 q 566 808 595 831 q 497 785 538 785 z "},"œ":{"ha":1372,"x_min":42,"x_max":1334,"o":"m 389 -18 q 214 31 293 -18 q 89 164 135 81 q 42 347 42 247 q 69 490 42 424 q 143 607 96 556 q 254 685 191 657 q 389 714 317 714 q 513 689 455 714 q 616 620 571 665 q 688 518 661 576 q 759 620 715 576 q 863 689 804 665 q 986 714 921 714 q 1128 683 1063 714 q 1240 598 1193 653 q 1310 470 1286 543 q 1330 310 1334 397 l 742 310 q 784 192 750 244 q 870 110 817 140 q 986 79 922 80 q 1111 115 1056 79 q 1201 215 1167 151 l 1300 192 q 1174 41 1258 99 q 986 -18 1090 -18 q 863 7 921 -18 q 759 75 804 31 q 688 177 715 119 q 616 75 661 119 q 513 7 571 31 q 389 -18 455 -18 m 389 79 q 516 116 460 79 q 606 215 573 153 q 639 347 639 276 q 606 482 639 420 q 516 580 572 543 q 389 617 459 617 q 261 580 318 617 q 172 481 205 542 q 139 347 139 420 q 173 211 139 272 q 264 115 207 151 q 389 79 321 79 m 739 390 l 1232 390 q 1193 507 1227 453 q 1105 593 1158 561 q 986 626 1051 626 q 868 594 922 626 q 780 509 814 563 q 739 390 746 456 z "},"p":{"ha":835,"x_min":83,"x_max":793,"o":"m 181 -347 l 83 -347 l 83 694 l 181 694 l 181 565 q 279 672 217 631 q 428 713 342 713 q 570 684 503 713 q 686 605 636 656 q 765 489 736 555 q 793 347 793 423 q 765 205 793 272 q 686 88 736 138 q 570 9 636 38 q 428 -19 503 -19 q 279 22 342 -19 q 181 128 217 63 l 181 -347 m 427 618 q 300 582 354 618 q 217 484 247 545 q 188 347 188 423 q 217 211 188 273 q 300 113 246 149 q 427 76 353 76 q 560 112 499 76 q 658 209 621 148 q 694 347 694 271 q 658 483 694 422 q 562 581 622 544 q 427 618 501 618 z "},"þ":{"ha":835,"x_min":83,"x_max":793,"o":"m 83 -347 l 83 972 l 181 972 l 181 565 q 279 672 217 631 q 428 713 342 713 q 570 684 503 713 q 686 605 636 656 q 765 489 736 555 q 793 347 793 423 q 765 205 793 272 q 686 88 736 138 q 570 9 636 38 q 428 -19 503 -19 q 279 22 342 -19 q 181 128 217 63 l 181 -347 l 83 -347 m 427 76 q 560 112 499 76 q 658 209 621 148 q 694 347 694 271 q 658 483 694 422 q 562 581 622 544 q 427 618 501 618 q 300 582 354 618 q 217 484 247 545 q 188 347 188 423 q 217 211 188 273 q 300 113 246 149 q 427 76 353 76 z "},"q":{"ha":835,"x_min":42,"x_max":751,"o":"m 407 -19 q 223 30 306 -19 q 91 163 140 79 q 42 347 42 246 q 70 489 42 423 q 149 605 99 555 q 265 684 199 656 q 407 713 331 713 q 556 672 493 713 q 654 565 618 631 l 654 694 l 751 694 l 751 -347 l 654 -347 l 654 128 q 556 22 618 63 q 407 -19 493 -19 m 408 618 q 273 581 334 618 q 177 483 213 544 q 141 347 141 422 q 177 209 141 271 q 275 112 214 148 q 408 76 335 76 q 535 113 482 76 q 618 211 589 149 q 647 347 647 273 q 617 484 647 423 q 535 582 588 545 q 408 618 481 618 z "},"r":{"ha":497,"x_min":83,"x_max":483,"o":"m 83 0 l 83 694 l 181 694 l 181 599 q 276 683 217 651 q 405 714 335 714 q 483 703 445 714 l 443 607 q 386 616 414 616 q 283 588 330 616 q 208 514 236 560 q 181 410 181 467 l 181 0 l 83 0 z "},"ŕ":{"ha":497,"x_min":83,"x_max":483,"o":"m 83 0 l 83 694 l 181 694 l 181 599 q 276 683 217 651 q 405 714 335 714 q 483 703 445 714 l 443 607 q 386 616 414 616 q 283 588 330 616 q 208 514 236 560 q 181 410 181 467 l 181 0 l 83 0 m 251 771 l 306 971 l 403 971 l 316 771 l 251 771 z "},"ř":{"ha":497,"x_min":83,"x_max":483,"o":"m 83 0 l 83 694 l 181 694 l 181 599 q 276 683 217 651 q 405 714 335 714 q 483 703 445 714 l 443 607 q 386 616 414 616 q 283 588 330 616 q 208 514 236 560 q 181 410 181 467 l 181 0 l 83 0 m 221 771 l 87 971 l 151 971 l 274 830 l 394 971 l 460 971 l 327 771 l 221 771 z "},"ŗ":{"ha":497,"x_min":40,"x_max":483,"o":"m 83 0 l 83 694 l 181 694 l 181 599 q 276 683 217 651 q 405 714 335 714 q 483 703 445 714 l 443 607 q 386 616 414 616 q 283 588 330 616 q 208 514 236 560 q 181 410 181 467 l 181 0 l 83 0 m 40 -306 l 83 -72 l 181 -72 l 105 -306 l 40 -306 z "},"s":{"ha":597,"x_min":35,"x_max":562,"o":"m 298 -13 q 187 8 241 -12 q 92 60 133 27 q 35 136 52 94 l 119 172 q 160 123 130 145 q 229 86 190 100 q 306 73 268 73 q 385 87 349 73 q 445 127 422 101 q 469 188 469 153 q 444 248 469 226 q 381 283 419 270 q 302 308 342 296 q 172 352 228 328 q 84 414 116 376 q 53 512 53 452 q 89 621 53 575 q 182 693 124 667 q 306 718 240 718 q 461 681 391 718 q 562 583 531 644 l 483 537 q 444 586 471 565 q 382 619 417 607 q 313 631 348 631 q 230 618 268 632 q 168 578 192 605 q 145 514 145 552 q 168 456 145 476 q 230 424 191 436 q 319 396 269 412 q 438 350 382 376 q 527 286 493 324 q 560 190 561 248 q 523 81 560 127 q 426 9 485 34 q 298 -13 366 -15 z "},"ś":{"ha":597,"x_min":35,"x_max":562,"o":"m 298 -13 q 187 8 241 -12 q 92 60 133 27 q 35 136 52 94 l 119 172 q 160 123 130 145 q 229 86 190 100 q 306 73 268 73 q 385 87 349 73 q 445 127 422 101 q 469 188 469 153 q 444 248 469 226 q 381 283 419 270 q 302 308 342 296 q 172 352 228 328 q 84 414 116 376 q 53 512 53 452 q 89 621 53 575 q 182 693 124 667 q 306 718 240 718 q 461 681 391 718 q 562 583 531 644 l 483 537 q 444 586 471 565 q 382 619 417 607 q 313 631 348 631 q 230 618 268 632 q 168 578 192 605 q 145 514 145 552 q 168 456 145 476 q 230 424 191 436 q 319 396 269 412 q 438 350 382 376 q 527 286 493 324 q 560 190 561 248 q 523 81 560 127 q 426 9 485 34 q 298 -13 366 -15 m 275 771 l 331 971 l 428 971 l 340 771 l 275 771 z "},"š":{"ha":597,"x_min":35,"x_max":562,"o":"m 298 -13 q 187 8 241 -12 q 92 60 133 27 q 35 136 52 94 l 119 172 q 160 123 130 145 q 229 86 190 100 q 306 73 268 73 q 385 87 349 73 q 445 127 422 101 q 469 188 469 153 q 444 248 469 226 q 381 283 419 270 q 302 308 342 296 q 172 352 228 328 q 84 414 116 376 q 53 512 53 452 q 89 621 53 575 q 182 693 124 667 q 306 718 240 718 q 461 681 391 718 q 562 583 531 644 l 483 537 q 444 586 471 565 q 382 619 417 607 q 313 631 348 631 q 230 618 268 632 q 168 578 192 605 q 145 514 145 552 q 168 456 145 476 q 230 424 191 436 q 319 396 269 412 q 438 350 382 376 q 527 286 493 324 q 560 190 561 248 q 523 81 560 127 q 426 9 485 34 q 298 -13 366 -15 m 245 771 l 111 971 l 176 971 l 299 830 l 419 971 l 484 971 l 351 771 l 245 771 z "},"ş":{"ha":597,"x_min":35,"x_max":562,"o":"m 298 -13 q 187 8 241 -12 q 92 60 133 27 q 35 136 52 94 l 119 172 q 160 123 130 145 q 229 86 190 100 q 306 73 268 73 q 385 87 349 73 q 445 127 422 101 q 469 188 469 153 q 444 248 469 226 q 381 283 419 270 q 302 308 342 296 q 172 352 228 328 q 84 414 116 376 q 53 512 53 452 q 89 621 53 575 q 182 693 124 667 q 306 718 240 718 q 461 681 391 718 q 562 583 531 644 l 483 537 q 444 586 471 565 q 382 619 417 607 q 313 631 348 631 q 230 618 268 632 q 168 578 192 605 q 145 514 145 552 q 168 456 145 476 q 230 424 191 436 q 319 396 269 412 q 438 350 382 376 q 527 286 493 324 q 560 190 561 248 q 523 81 560 127 q 426 9 485 34 q 298 -13 366 -15 m 342 -255 q 258 -244 298 -267 q 207 -177 219 -221 l 267 -161 q 289 -190 272 -180 q 326 -194 306 -199 q 355 -172 345 -189 q 360 -135 365 -155 q 338 -107 355 -116 q 301 -101 321 -97 l 235 -110 l 320 38 l 374 7 l 345 -44 q 392 -71 372 -51 q 420 -119 413 -91 q 409 -203 432 -164 q 342 -255 386 -243 z "},"ŝ":{"ha":597,"x_min":35,"x_max":562,"o":"m 298 -13 q 187 8 241 -12 q 92 60 133 27 q 35 136 52 94 l 119 172 q 160 123 130 145 q 229 86 190 100 q 306 73 268 73 q 385 87 349 73 q 445 127 422 101 q 469 188 469 153 q 444 248 469 226 q 381 283 419 270 q 302 308 342 296 q 172 352 228 328 q 84 414 116 376 q 53 512 53 452 q 89 621 53 575 q 182 693 124 667 q 306 718 240 718 q 461 681 391 718 q 562 583 531 644 l 483 537 q 444 586 471 565 q 382 619 417 607 q 313 631 348 631 q 230 618 268 632 q 168 578 192 605 q 145 514 145 552 q 168 456 145 476 q 230 424 191 436 q 319 396 269 412 q 438 350 382 376 q 527 286 493 324 q 560 190 561 248 q 523 81 560 127 q 426 9 485 34 q 298 -13 366 -15 m 352 971 l 486 771 l 421 771 l 299 912 l 178 771 l 113 771 l 246 971 l 352 971 z "},"ș":{"ha":597,"x_min":35,"x_max":562,"o":"m 298 -13 q 187 8 241 -12 q 92 60 133 27 q 35 136 52 94 l 119 172 q 160 123 130 145 q 229 86 190 100 q 306 73 268 73 q 385 87 349 73 q 445 127 422 101 q 469 188 469 153 q 444 248 469 226 q 381 283 419 270 q 302 308 342 296 q 172 352 228 328 q 84 414 116 376 q 53 512 53 452 q 89 621 53 575 q 182 693 124 667 q 306 718 240 718 q 461 681 391 718 q 562 583 531 644 l 483 537 q 444 586 471 565 q 382 619 417 607 q 313 631 348 631 q 230 618 268 632 q 168 578 192 605 q 145 514 145 552 q 168 456 145 476 q 230 424 191 436 q 319 396 269 412 q 438 350 382 376 q 527 286 493 324 q 560 190 561 248 q 523 81 560 127 q 426 9 485 34 q 298 -13 366 -15 m 249 -306 l 292 -72 l 389 -72 l 313 -306 l 249 -306 z "},"ṣ":{"ha":597,"x_min":35,"x_max":562,"o":"m 298 -13 q 187 8 241 -12 q 92 60 133 27 q 35 136 52 94 l 119 172 q 160 123 130 145 q 229 86 190 100 q 306 73 268 73 q 385 87 349 73 q 445 127 422 101 q 469 188 469 153 q 444 248 469 226 q 381 283 419 270 q 302 308 342 296 q 172 352 228 328 q 84 414 116 376 q 53 512 53 452 q 89 621 53 575 q 182 693 124 667 q 306 718 240 718 q 461 681 391 718 q 562 583 531 644 l 483 537 q 444 586 471 565 q 382 619 417 607 q 313 631 348 631 q 230 618 268 632 q 168 578 192 605 q 145 514 145 552 q 168 456 145 476 q 230 424 191 436 q 319 396 269 412 q 438 350 382 376 q 527 286 493 324 q 560 190 561 248 q 523 81 560 127 q 426 9 485 34 q 298 -13 366 -15 m 341 -274 q 301 -258 317 -274 q 285 -219 285 -242 q 301 -180 285 -195 q 341 -164 317 -164 q 380 -180 364 -164 q 397 -219 397 -195 q 381 -258 397 -242 q 341 -274 365 -274 z "},"ß":{"ha":742,"x_min":83,"x_max":701,"o":"m 83 0 l 83 662 q 107 782 83 726 q 174 881 131 838 q 273 948 217 924 q 393 972 328 972 q 523 937 465 972 q 615 841 581 901 q 649 707 649 781 q 636 625 649 665 q 598 551 623 584 q 535 498 572 518 q 608 465 577 488 q 660 408 639 441 q 691 338 681 376 q 701 260 701 300 q 665 128 701 188 q 569 35 629 69 q 436 0 509 0 l 385 0 l 366 87 l 428 87 q 520 111 479 87 q 586 176 562 135 q 611 266 611 217 q 586 355 611 315 q 520 419 562 395 q 428 444 479 444 l 366 445 l 366 528 l 385 530 q 469 555 431 531 q 530 618 507 578 q 552 707 552 658 q 530 797 552 756 q 469 861 507 837 q 385 885 431 885 q 282 858 328 885 q 208 783 235 830 q 181 680 181 737 l 181 0 l 83 0 z "},"t":{"ha":479,"x_min":49,"x_max":438,"o":"m 438 597 l 272 597 l 272 0 l 174 0 l 175 597 l 49 597 l 49 694 l 175 694 l 174 913 l 272 913 l 272 694 l 438 694 l 438 597 z "},"ť":{"ha":479,"x_min":49,"x_max":512,"o":"m 438 597 l 272 597 l 272 0 l 174 0 l 175 597 l 49 597 l 49 694 l 175 694 l 174 913 l 272 913 l 272 694 l 438 694 l 438 597 m 359 842 l 415 1042 l 512 1042 l 424 842 l 359 842 z "},"ţ":{"ha":479,"x_min":49,"x_max":438,"o":"m 438 597 l 272 597 l 272 0 l 174 0 l 175 597 l 49 597 l 49 694 l 175 694 l 174 913 l 272 913 l 272 694 l 438 694 l 438 597 m 224 -255 q 141 -244 181 -267 q 90 -177 101 -221 l 150 -161 q 172 -190 155 -180 q 208 -194 189 -199 q 238 -172 228 -189 q 242 -135 248 -155 q 220 -107 238 -116 q 183 -101 203 -97 l 117 -110 l 203 38 l 257 7 l 228 -44 q 275 -71 254 -51 q 303 -119 295 -91 q 292 -203 315 -164 q 224 -255 269 -243 z "},"ț":{"ha":479,"x_min":49,"x_max":438,"o":"m 438 597 l 272 597 l 272 0 l 174 0 l 175 597 l 49 597 l 49 694 l 175 694 l 174 913 l 272 913 l 272 694 l 438 694 l 438 597 m 131 -306 l 174 -72 l 272 -72 l 196 -306 l 131 -306 z "},"ẗ":{"ha":479,"x_min":49,"x_max":438,"o":"m 438 597 l 272 597 l 272 0 l 174 0 l 175 597 l 49 597 l 49 694 l 175 694 l 174 913 l 272 913 l 272 694 l 438 694 l 438 597 m 115 969 q 74 984 91 969 q 57 1024 57 1000 q 74 1063 57 1047 q 115 1080 91 1080 q 154 1063 138 1080 q 170 1024 170 1047 q 154 984 170 1000 q 115 969 138 969 m 333 969 q 292 984 309 969 q 276 1024 276 1000 q 292 1063 276 1047 q 333 1080 309 1080 q 372 1063 356 1080 q 389 1024 389 1047 q 372 984 389 1000 q 333 969 356 969 z "},"ṭ":{"ha":479,"x_min":49,"x_max":438,"o":"m 438 597 l 272 597 l 272 0 l 174 0 l 175 597 l 49 597 l 49 694 l 175 694 l 174 913 l 272 913 l 272 694 l 438 694 l 438 597 m 224 -274 q 184 -258 200 -274 q 167 -219 167 -242 q 184 -180 167 -195 q 224 -164 200 -164 q 263 -180 247 -164 q 279 -219 279 -195 q 263 -258 279 -242 q 224 -274 247 -274 z "},"u":{"ha":717,"x_min":56,"x_max":661,"o":"m 56 266 l 56 694 l 153 694 l 153 285 q 181 182 153 228 q 255 108 208 135 q 358 80 302 80 q 461 108 415 80 q 535 182 508 135 q 563 285 563 228 l 563 694 l 660 694 l 661 0 l 564 0 l 563 97 q 468 13 526 44 q 340 -18 409 -18 q 197 20 261 -18 q 94 123 132 58 q 56 266 56 188 z "},"ú":{"ha":717,"x_min":56,"x_max":661,"o":"m 56 266 l 56 694 l 153 694 l 153 285 q 181 182 153 228 q 255 108 208 135 q 358 80 302 80 q 461 108 415 80 q 535 182 508 135 q 563 285 563 228 l 563 694 l 660 694 l 661 0 l 564 0 l 563 97 q 468 13 526 44 q 340 -18 409 -18 q 197 20 261 -18 q 94 123 132 58 q 56 266 56 188 m 344 772 l 399 972 l 497 972 l 409 772 l 344 772 z "},"ŭ":{"ha":717,"x_min":56,"x_max":661,"o":"m 56 266 l 56 694 l 153 694 l 153 285 q 181 182 153 228 q 255 108 208 135 q 358 80 302 80 q 461 108 415 80 q 535 182 508 135 q 563 285 563 228 l 563 694 l 660 694 l 661 0 l 564 0 l 563 97 q 468 13 526 44 q 340 -18 409 -18 q 197 20 261 -18 q 94 123 132 58 q 56 266 56 188 m 367 756 q 252 788 304 756 q 168 871 199 819 q 137 987 137 924 l 206 987 q 229 905 206 942 q 288 847 251 869 q 367 826 325 826 q 448 847 412 826 q 507 906 485 869 q 528 987 528 942 l 598 987 q 566 870 598 922 q 482 787 535 817 q 367 756 430 756 z "},"ǔ":{"ha":717,"x_min":56,"x_max":661,"o":"m 56 266 l 56 694 l 153 694 l 153 285 q 181 182 153 228 q 255 108 208 135 q 358 80 302 80 q 461 108 415 80 q 535 182 508 135 q 563 285 563 228 l 563 694 l 660 694 l 661 0 l 564 0 l 563 97 q 468 13 526 44 q 340 -18 409 -18 q 197 20 261 -18 q 94 123 132 58 q 56 266 56 188 m 314 772 l 180 972 l 244 972 l 367 831 l 488 972 l 553 972 l 420 772 l 314 772 z "},"û":{"ha":717,"x_min":56,"x_max":661,"o":"m 56 266 l 56 694 l 153 694 l 153 285 q 181 182 153 228 q 255 108 208 135 q 358 80 302 80 q 461 108 415 80 q 535 182 508 135 q 563 285 563 228 l 563 694 l 660 694 l 661 0 l 564 0 l 563 97 q 468 13 526 44 q 340 -18 409 -18 q 197 20 261 -18 q 94 123 132 58 q 56 266 56 188 m 421 972 l 555 772 l 490 772 l 367 913 l 247 772 l 182 772 l 315 972 l 421 972 z "},"ü":{"ha":717,"x_min":56,"x_max":661,"o":"m 56 266 l 56 694 l 153 694 l 153 285 q 181 182 153 228 q 255 108 208 135 q 358 80 302 80 q 461 108 415 80 q 535 182 508 135 q 563 285 563 228 l 563 694 l 660 694 l 661 0 l 564 0 l 563 97 q 468 13 526 44 q 340 -18 409 -18 q 197 20 261 -18 q 94 123 132 58 q 56 266 56 188 m 259 751 q 218 767 235 751 q 201 806 201 783 q 218 846 201 829 q 259 863 235 863 q 298 846 282 863 q 315 806 315 829 q 298 767 315 783 q 259 751 282 751 m 477 751 q 437 767 453 751 q 420 806 420 783 q 437 846 420 829 q 477 863 453 863 q 517 846 500 863 q 533 806 533 829 q 517 767 533 783 q 477 751 500 751 z "},"ǘ":{"ha":717,"x_min":56,"x_max":661,"o":"m 56 266 l 56 694 l 153 694 l 153 285 q 181 182 153 228 q 255 108 208 135 q 358 80 302 80 q 461 108 415 80 q 535 182 508 135 q 563 285 563 228 l 563 694 l 660 694 l 661 0 l 564 0 l 563 97 q 468 13 526 44 q 340 -18 409 -18 q 197 20 261 -18 q 94 123 132 58 q 56 266 56 188 m 259 751 q 218 767 235 751 q 201 806 201 783 q 218 846 201 829 q 259 863 235 863 q 298 846 282 863 q 315 806 315 829 q 298 767 315 783 q 259 751 282 751 m 477 751 q 437 767 453 751 q 420 806 420 783 q 437 846 420 829 q 477 863 453 863 q 517 846 500 863 q 533 806 533 829 q 517 767 533 783 q 477 751 500 751 m 344 919 l 399 1119 l 497 1119 l 409 919 l 344 919 z "},"ǚ":{"ha":717,"x_min":56,"x_max":661,"o":"m 56 266 l 56 694 l 153 694 l 153 285 q 181 182 153 228 q 255 108 208 135 q 358 80 302 80 q 461 108 415 80 q 535 182 508 135 q 563 285 563 228 l 563 694 l 660 694 l 661 0 l 564 0 l 563 97 q 468 13 526 44 q 340 -18 409 -18 q 197 20 261 -18 q 94 123 132 58 q 56 266 56 188 m 259 751 q 218 767 235 751 q 201 806 201 783 q 218 846 201 829 q 259 863 235 863 q 298 846 282 863 q 315 806 315 829 q 298 767 315 783 q 259 751 282 751 m 477 751 q 437 767 453 751 q 420 806 420 783 q 437 846 420 829 q 477 863 453 863 q 517 846 500 863 q 533 806 533 829 q 517 767 533 783 q 477 751 500 751 m 314 919 l 180 1119 l 244 1119 l 367 978 l 488 1119 l 553 1119 l 420 919 l 314 919 z "},"ǜ":{"ha":717,"x_min":56,"x_max":661,"o":"m 56 266 l 56 694 l 153 694 l 153 285 q 181 182 153 228 q 255 108 208 135 q 358 80 302 80 q 461 108 415 80 q 535 182 508 135 q 563 285 563 228 l 563 694 l 660 694 l 661 0 l 564 0 l 563 97 q 468 13 526 44 q 340 -18 409 -18 q 197 20 261 -18 q 94 123 132 58 q 56 266 56 188 m 259 751 q 218 767 235 751 q 201 806 201 783 q 218 846 201 829 q 259 863 235 863 q 298 846 282 863 q 315 806 315 829 q 298 767 315 783 q 259 751 282 751 m 477 751 q 437 767 453 751 q 420 806 420 783 q 437 846 420 829 q 477 863 453 863 q 517 846 500 863 q 533 806 533 829 q 517 767 533 783 q 477 751 500 751 m 233 1119 l 331 1119 l 386 919 l 322 919 l 233 1119 z "},"ǖ":{"ha":717,"x_min":56,"x_max":661,"o":"m 56 266 l 56 694 l 153 694 l 153 285 q 181 182 153 228 q 255 108 208 135 q 358 80 302 80 q 461 108 415 80 q 535 182 508 135 q 563 285 563 228 l 563 694 l 660 694 l 661 0 l 564 0 l 563 97 q 468 13 526 44 q 340 -18 409 -18 q 197 20 261 -18 q 94 123 132 58 q 56 266 56 188 m 259 751 q 218 767 235 751 q 201 806 201 783 q 218 846 201 829 q 259 863 235 863 q 298 846 282 863 q 315 806 315 829 q 298 767 315 783 q 259 751 282 751 m 477 751 q 437 767 453 751 q 420 806 420 783 q 437 846 420 829 q 477 863 453 863 q 517 846 500 863 q 533 806 533 829 q 517 767 533 783 q 477 751 500 751 m 133 1040 l 602 1040 l 602 961 l 133 961 l 133 1040 z "},"ụ":{"ha":717,"x_min":56,"x_max":661,"o":"m 56 266 l 56 694 l 153 694 l 153 285 q 181 182 153 228 q 255 108 208 135 q 358 80 302 80 q 461 108 415 80 q 535 182 508 135 q 563 285 563 228 l 563 694 l 660 694 l 661 0 l 564 0 l 563 97 q 468 13 526 44 q 340 -18 409 -18 q 197 20 261 -18 q 94 123 132 58 q 56 266 56 188 m 368 -273 q 328 -257 344 -273 q 312 -218 312 -242 q 328 -179 312 -194 q 368 -163 344 -163 q 407 -179 391 -163 q 424 -218 424 -194 q 408 -257 424 -242 q 368 -273 392 -273 z "},"ù":{"ha":717,"x_min":56,"x_max":661,"o":"m 56 266 l 56 694 l 153 694 l 153 285 q 181 182 153 228 q 255 108 208 135 q 358 80 302 80 q 461 108 415 80 q 535 182 508 135 q 563 285 563 228 l 563 694 l 660 694 l 661 0 l 564 0 l 563 97 q 468 13 526 44 q 340 -18 409 -18 q 197 20 261 -18 q 94 123 132 58 q 56 266 56 188 m 233 972 l 331 972 l 386 772 l 322 772 l 233 972 z "},"ű":{"ha":717,"x_min":56,"x_max":661,"o":"m 56 266 l 56 694 l 153 694 l 153 285 q 181 182 153 228 q 255 108 208 135 q 358 80 302 80 q 461 108 415 80 q 535 182 508 135 q 563 285 563 228 l 563 694 l 660 694 l 661 0 l 564 0 l 563 97 q 468 13 526 44 q 340 -18 409 -18 q 197 20 261 -18 q 94 123 132 58 q 56 266 56 188 m 445 772 l 501 972 l 598 972 l 510 772 l 445 772 m 255 772 l 310 972 l 408 972 l 320 772 l 255 772 z "},"ū":{"ha":717,"x_min":56,"x_max":661,"o":"m 56 266 l 56 694 l 153 694 l 153 285 q 181 182 153 228 q 255 108 208 135 q 358 80 302 80 q 461 108 415 80 q 535 182 508 135 q 563 285 563 228 l 563 694 l 660 694 l 661 0 l 564 0 l 563 97 q 468 13 526 44 q 340 -18 409 -18 q 197 20 261 -18 q 94 123 132 58 q 56 266 56 188 m 133 892 l 602 892 l 602 813 l 133 813 l 133 892 z "},"ų":{"ha":717,"x_min":56,"x_max":726,"o":"m 56 266 l 56 694 l 153 694 l 153 285 q 181 182 153 228 q 255 108 208 135 q 358 80 302 80 q 461 108 415 80 q 535 182 508 135 q 563 285 563 228 l 563 694 l 660 694 l 661 0 l 564 0 l 563 97 q 468 13 526 44 q 340 -18 409 -18 q 197 20 261 -18 q 94 123 132 58 q 56 266 56 188 m 581 -281 q 515 -262 543 -281 q 470 -215 486 -244 q 455 -153 455 -185 q 464 -106 455 -129 q 492 -64 473 -83 l 609 53 l 661 1 q 598 -62 623 -37 q 559 -103 573 -87 q 539 -131 544 -119 q 533 -156 533 -143 q 547 -191 533 -176 q 584 -208 560 -207 q 633 -189 610 -208 q 656 -137 656 -169 l 726 -137 q 706 -210 726 -178 q 654 -262 687 -243 q 581 -281 621 -281 z "},"ů":{"ha":717,"x_min":56,"x_max":661,"o":"m 56 266 l 56 694 l 153 694 l 153 285 q 181 182 153 228 q 255 108 208 135 q 358 80 302 80 q 461 108 415 80 q 535 182 508 135 q 563 285 563 228 l 563 694 l 660 694 l 661 0 l 564 0 l 563 97 q 468 13 526 44 q 340 -18 409 -18 q 197 20 261 -18 q 94 123 132 58 q 56 266 56 188 m 367 761 q 289 794 322 761 q 257 872 257 827 q 272 927 257 902 q 312 967 287 952 q 367 982 337 982 q 445 950 413 982 q 477 872 477 917 q 445 793 477 826 q 367 761 413 761 m 367 815 q 407 832 390 815 q 423 872 423 849 q 407 910 423 894 q 367 926 390 926 q 328 910 344 926 q 312 872 312 894 q 328 832 312 849 q 367 815 344 815 z "},"ũ":{"ha":717,"x_min":56,"x_max":661,"o":"m 56 266 l 56 694 l 153 694 l 153 285 q 181 182 153 228 q 255 108 208 135 q 358 80 302 80 q 461 108 415 80 q 535 182 508 135 q 563 285 563 228 l 563 694 l 660 694 l 661 0 l 564 0 l 563 97 q 468 13 526 44 q 340 -18 409 -18 q 197 20 261 -18 q 94 123 132 58 q 56 266 56 188 m 475 786 q 418 802 449 786 q 355 840 387 819 q 296 876 323 861 q 251 886 269 890 q 223 863 233 882 q 219 818 213 844 l 153 800 q 150 876 140 840 q 189 934 160 912 q 258 957 217 957 q 316 942 285 957 q 379 907 347 926 q 438 872 411 887 q 483 856 465 856 q 507 868 499 856 q 518 897 516 881 q 515 924 520 913 l 581 945 q 584 867 595 903 q 545 809 574 831 q 475 786 516 786 z "},"v":{"ha":714,"x_min":42,"x_max":672,"o":"m 419 0 l 295 0 l 42 697 l 145 697 l 357 114 l 569 697 l 672 697 l 419 0 z "},"w":{"ha":1128,"x_min":42,"x_max":1087,"o":"m 374 0 l 274 0 l 42 694 l 137 694 l 326 135 l 513 694 l 616 694 l 803 135 l 991 694 l 1087 694 l 854 0 l 753 0 l 563 565 l 374 0 z "},"ẃ":{"ha":1128,"x_min":42,"x_max":1087,"o":"m 374 0 l 274 0 l 42 694 l 137 694 l 326 135 l 513 694 l 616 694 l 803 135 l 991 694 l 1087 694 l 854 0 l 753 0 l 563 565 l 374 0 m 541 771 l 597 971 l 694 971 l 606 771 l 541 771 z "},"ŵ":{"ha":1128,"x_min":42,"x_max":1087,"o":"m 374 0 l 274 0 l 42 694 l 137 694 l 326 135 l 513 694 l 616 694 l 803 135 l 991 694 l 1087 694 l 854 0 l 753 0 l 563 565 l 374 0 m 618 971 l 752 771 l 687 771 l 565 912 l 444 771 l 379 771 l 512 971 l 618 971 z "},"ẅ":{"ha":1128,"x_min":42,"x_max":1087,"o":"m 374 0 l 274 0 l 42 694 l 137 694 l 326 135 l 513 694 l 616 694 l 803 135 l 991 694 l 1087 694 l 854 0 l 753 0 l 563 565 l 374 0 m 456 751 q 416 766 433 751 q 399 806 399 782 q 416 845 399 828 q 456 862 433 862 q 495 845 479 862 q 512 806 512 828 q 495 766 512 782 q 456 751 479 751 m 674 751 q 634 766 651 751 q 617 806 617 782 q 634 845 617 828 q 674 862 651 862 q 714 845 697 862 q 731 806 731 828 q 714 766 731 782 q 674 751 697 751 z "},"ẁ":{"ha":1128,"x_min":42,"x_max":1087,"o":"m 374 0 l 274 0 l 42 694 l 137 694 l 326 135 l 513 694 l 616 694 l 803 135 l 991 694 l 1087 694 l 854 0 l 753 0 l 563 565 l 374 0 m 431 971 l 528 971 l 583 771 l 519 771 l 431 971 z "},"x":{"ha":740,"x_min":56,"x_max":684,"o":"m 56 0 l 310 349 l 56 697 l 176 697 l 370 432 l 563 697 l 683 697 l 430 349 l 684 0 l 564 0 l 370 267 l 176 0 l 56 0 z "},"y":{"ha":717,"x_min":56,"x_max":662,"o":"m 559 694 l 662 694 l 282 -347 l 178 -347 l 305 0 l 56 694 l 162 694 l 353 134 l 559 694 z "},"ý":{"ha":717,"x_min":56,"x_max":662,"o":"m 559 694 l 662 694 l 282 -347 l 178 -347 l 305 0 l 56 694 l 162 694 l 353 134 l 559 694 m 335 771 l 390 971 l 488 971 l 400 771 l 335 771 z "},"ŷ":{"ha":717,"x_min":56,"x_max":662,"o":"m 559 694 l 662 694 l 282 -347 l 178 -347 l 305 0 l 56 694 l 162 694 l 353 134 l 559 694 m 412 971 l 546 771 l 481 771 l 358 912 l 238 771 l 173 771 l 306 971 l 412 971 z "},"ÿ":{"ha":717,"x_min":56,"x_max":662,"o":"m 559 694 l 662 694 l 282 -347 l 178 -347 l 305 0 l 56 694 l 162 694 l 353 134 l 559 694 m 250 751 q 209 766 226 751 q 192 806 192 782 q 209 845 192 828 q 250 862 226 862 q 289 845 273 862 q 306 806 306 828 q 289 766 306 782 q 250 751 273 751 m 468 751 q 428 766 444 751 q 411 806 411 782 q 428 845 411 828 q 468 862 444 862 q 508 845 491 862 q 524 806 524 828 q 508 766 524 782 q 468 751 491 751 z "},"ỵ":{"ha":717,"x_min":56,"x_max":662,"o":"m 559 694 l 662 694 l 282 -347 l 178 -347 l 305 0 l 56 694 l 162 694 l 353 134 l 559 694 m 492 -274 q 452 -258 469 -274 q 436 -219 436 -242 q 452 -180 436 -195 q 492 -164 469 -164 q 532 -180 515 -164 q 548 -219 548 -195 q 532 -258 548 -242 q 492 -274 516 -274 z "},"ỳ":{"ha":717,"x_min":56,"x_max":662,"o":"m 559 694 l 662 694 l 282 -347 l 178 -347 l 305 0 l 56 694 l 162 694 l 353 134 l 559 694 m 224 971 l 322 971 l 377 771 l 313 771 l 224 971 z "},"ȳ":{"ha":717,"x_min":56,"x_max":662,"o":"m 559 694 l 662 694 l 282 -347 l 178 -347 l 305 0 l 56 694 l 162 694 l 353 134 l 559 694 m 124 891 l 593 891 l 593 813 l 124 813 l 124 891 z "},"ỹ":{"ha":717,"x_min":56,"x_max":662,"o":"m 559 694 l 662 694 l 282 -347 l 178 -347 l 305 0 l 56 694 l 162 694 l 353 134 l 559 694 m 466 785 q 409 802 440 785 q 346 839 378 818 q 287 875 314 860 q 242 885 260 890 q 214 863 224 881 q 210 817 203 844 l 144 799 q 141 875 131 839 q 180 934 151 911 q 249 956 208 956 q 307 941 276 956 q 370 906 338 926 q 429 871 402 886 q 474 856 456 856 q 498 868 490 856 q 509 896 507 880 q 506 924 511 912 l 572 944 q 575 867 586 903 q 536 808 565 831 q 466 785 507 785 z "},"z":{"ha":704,"x_min":56,"x_max":649,"o":"m 649 597 l 193 97 l 649 97 l 649 0 l 56 0 l 56 97 l 511 597 l 56 597 l 56 694 l 649 694 l 649 597 z "},"ź":{"ha":704,"x_min":56,"x_max":649,"o":"m 649 597 l 193 97 l 649 97 l 649 0 l 56 0 l 56 97 l 511 597 l 56 597 l 56 694 l 649 694 l 649 597 m 328 771 l 384 971 l 481 971 l 394 771 l 328 771 z "},"ž":{"ha":704,"x_min":56,"x_max":649,"o":"m 649 597 l 193 97 l 649 97 l 649 0 l 56 0 l 56 97 l 511 597 l 56 597 l 56 694 l 649 694 l 649 597 m 299 771 l 165 971 l 229 971 l 352 830 l 472 971 l 538 971 l 405 771 l 299 771 z "},"ż":{"ha":704,"x_min":56,"x_max":649,"o":"m 649 597 l 193 97 l 649 97 l 649 0 l 56 0 l 56 97 l 511 597 l 56 597 l 56 694 l 649 694 l 649 597 m 353 816 q 313 832 329 816 q 297 871 297 847 q 313 910 297 894 q 353 926 329 926 q 392 910 376 926 q 408 871 408 894 q 392 832 408 847 q 353 816 376 816 z "},"ẓ":{"ha":704,"x_min":56,"x_max":649,"o":"m 649 597 l 193 97 l 649 97 l 649 0 l 56 0 l 56 97 l 511 597 l 56 597 l 56 694 l 649 694 l 649 597 m 353 -274 q 313 -258 329 -274 q 297 -219 297 -242 q 313 -180 297 -195 q 353 -164 329 -164 q 392 -180 376 -164 q 408 -219 408 -195 q 392 -258 408 -242 q 353 -274 376 -274 z "},"ª":{"ha":807,"x_min":42,"x_max":751,"o":"m 654 694 l 751 694 l 751 0 l 654 0 l 651 129 q 556 23 617 63 q 410 -18 494 -18 q 267 11 333 -18 q 149 90 200 40 q 70 208 99 141 q 42 351 42 274 q 70 492 42 426 q 148 608 98 558 q 263 686 197 658 q 403 714 328 714 q 555 673 490 714 q 658 565 619 631 l 654 694 m 408 76 q 535 113 482 76 q 618 211 589 149 q 647 347 647 273 q 617 485 647 424 q 535 583 588 547 q 408 619 481 619 q 273 582 334 619 q 177 484 213 546 q 141 347 141 422 q 178 210 141 272 q 275 113 215 149 q 408 76 336 76 z "},"º":{"ha":778,"x_min":42,"x_max":736,"o":"m 389 -18 q 214 31 293 -18 q 89 164 135 81 q 42 347 42 247 q 69 490 42 424 q 143 607 96 556 q 254 685 191 657 q 389 714 317 714 q 564 665 485 714 q 689 532 642 615 q 736 347 736 449 q 709 206 736 272 q 634 89 682 140 q 524 10 587 39 q 389 -18 461 -18 m 389 79 q 516 116 460 79 q 606 215 573 153 q 639 347 639 276 q 606 482 639 420 q 516 580 572 543 q 389 617 459 617 q 261 580 318 617 q 172 481 205 542 q 139 347 139 420 q 173 211 139 272 q 264 115 207 151 q 389 79 321 79 z "},"μ":{"ha":734,"x_min":56,"x_max":678,"o":"m 56 -300 l 56 694 l 153 694 l 153 325 q 182 200 153 257 q 260 110 210 144 q 370 76 309 76 q 478 110 431 76 q 554 200 526 144 q 581 325 581 257 l 581 694 l 678 694 l 678 0 l 581 0 l 581 117 q 485 17 542 53 q 358 -19 428 -19 q 240 14 292 -19 q 153 97 187 46 l 153 -300 l 56 -300 z "},"₀":{"ha":450,"x_min":50,"x_max":400,"o":"m 225 -22 q 137 9 177 -22 q 74 93 97 40 q 50 213 50 146 q 74 332 50 279 q 137 417 97 385 q 225 448 177 448 q 313 417 274 448 q 376 332 353 385 q 400 213 400 279 q 376 93 400 146 q 313 9 353 40 q 225 -22 274 -22 m 225 51 q 280 76 257 51 q 315 138 303 101 q 328 213 328 176 q 315 290 328 253 q 279 352 302 328 q 225 376 256 376 q 170 351 193 376 q 134 288 147 326 q 122 213 122 251 q 135 136 122 173 q 171 75 148 99 q 225 51 194 51 z "},"₁":{"ha":294,"x_min":67,"x_max":194,"o":"m 122 0 l 122 366 l 67 366 l 77 438 l 194 438 l 194 0 l 122 0 z "},"₂":{"ha":478,"x_min":67,"x_max":378,"o":"m 67 0 l 67 68 q 132 113 94 86 q 207 172 169 140 q 273 238 245 204 q 306 303 300 272 q 282 360 306 338 q 224 382 258 382 q 164 360 189 382 q 139 303 139 338 l 67 303 q 88 381 67 347 q 145 434 109 415 q 224 454 181 454 q 302 434 267 454 q 358 381 337 415 q 378 303 378 347 q 361 242 378 274 q 315 179 343 210 q 256 121 288 149 q 194 72 224 94 l 376 72 l 376 0 l 67 0 z "},"₃":{"ha":386,"x_min":50,"x_max":336,"o":"m 194 -22 q 122 -3 154 -22 q 69 46 89 15 q 50 117 50 77 l 122 117 q 143 69 122 87 q 194 51 164 51 q 243 69 223 51 q 264 117 264 87 q 238 173 264 151 q 163 195 212 195 l 163 253 q 230 272 208 253 q 251 321 251 291 q 233 360 251 345 q 190 376 215 376 q 148 360 166 376 q 130 321 130 345 l 58 321 q 97 412 58 376 q 190 448 135 448 q 285 412 246 448 q 324 321 324 376 q 311 265 324 291 q 282 226 299 240 q 323 178 309 203 q 336 117 336 153 q 317 46 336 77 q 265 -3 297 15 q 194 -22 233 -22 z "},"₄":{"ha":473,"x_min":67,"x_max":373,"o":"m 252 0 l 252 84 l 67 84 l 67 172 l 236 438 l 324 438 l 324 156 l 373 156 l 373 84 l 324 84 l 324 0 l 252 0 m 140 156 l 256 156 l 256 340 l 140 156 z "},"₅":{"ha":474,"x_min":58,"x_max":374,"o":"m 216 -22 q 136 -2 172 -22 q 80 52 101 18 q 58 130 58 86 l 131 130 q 156 73 131 95 q 216 51 181 51 q 276 73 251 51 q 301 130 301 95 q 276 189 301 165 q 216 214 251 214 l 85 198 l 107 432 l 347 432 l 347 365 l 172 365 l 167 283 l 217 286 q 330 241 286 286 q 374 130 374 195 q 352 52 374 86 q 295 -2 331 18 q 216 -22 260 -22 z "},"₆":{"ha":474,"x_min":67,"x_max":390,"o":"m 228 -22 q 113 24 158 -22 q 67 135 67 69 q 72 174 67 155 q 93 223 78 194 q 138 302 108 253 q 213 432 167 352 l 297 432 l 216 291 q 304 275 265 296 q 367 216 344 253 q 390 134 390 179 q 368 52 390 88 q 308 -2 345 17 q 228 -22 272 -22 m 228 51 q 293 75 267 51 q 317 138 319 100 q 289 200 317 177 q 228 223 261 223 q 164 195 189 223 q 140 129 138 167 q 167 72 141 93 q 228 51 194 51 z "},"₇":{"ha":442,"x_min":83,"x_max":392,"o":"m 97 0 l 308 366 l 83 366 l 83 438 l 392 438 l 392 367 l 181 0 l 97 0 z "},"₈":{"ha":422,"x_min":67,"x_max":355,"o":"m 210 -22 q 109 17 151 -22 q 67 115 67 56 q 81 178 67 149 q 119 226 96 206 q 89 268 100 243 q 77 320 77 292 q 116 413 77 376 q 210 449 155 449 q 305 413 265 449 q 344 320 344 376 q 333 268 344 292 q 302 226 322 243 q 341 178 326 206 q 355 115 355 149 q 313 17 355 56 q 210 -22 270 -22 m 210 50 q 261 68 240 50 q 283 115 283 86 q 261 166 283 145 q 210 187 240 187 q 160 166 181 187 q 139 115 139 145 q 160 68 139 86 q 210 50 181 50 m 210 259 q 254 277 236 259 q 272 320 272 296 q 254 361 272 346 q 210 376 236 376 q 167 361 185 376 q 149 320 149 346 q 167 277 149 296 q 210 259 185 259 z "},"₉":{"ha":458,"x_min":47,"x_max":376,"o":"m 142 0 l 224 142 q 144 152 181 135 q 83 201 107 169 q 53 273 59 233 q 65 352 47 313 q 97 407 75 385 q 149 442 119 430 q 213 454 179 454 q 295 433 258 454 q 352 376 331 411 q 374 300 373 342 q 352 218 376 258 l 226 0 l 142 0 m 213 209 q 262 224 240 209 q 294 264 284 240 q 299 317 305 289 q 266 366 292 350 q 213 382 240 382 q 162 368 184 382 q 130 330 140 353 q 125 279 119 307 q 159 226 133 244 q 213 209 185 209 z "},"⁰":{"ha":450,"x_min":50,"x_max":400,"o":"m 225 554 q 137 584 177 554 q 74 667 97 615 q 50 787 50 720 q 74 906 50 853 q 137 989 97 958 q 225 1019 177 1019 q 313 989 274 1019 q 376 906 353 958 q 400 787 400 853 q 376 667 400 720 q 313 584 353 615 q 225 554 274 554 m 225 624 q 280 649 257 624 q 315 712 303 674 q 328 787 328 750 q 315 865 328 827 q 279 926 302 902 q 225 950 256 950 q 170 925 193 950 q 134 863 147 900 q 122 787 122 825 q 135 709 122 747 q 171 648 148 672 q 225 624 194 624 z "},"¹":{"ha":294,"x_min":67,"x_max":194,"o":"m 122 568 l 122 934 l 67 934 l 77 1006 l 194 1006 l 194 568 l 122 568 z "},"²":{"ha":478,"x_min":67,"x_max":378,"o":"m 67 568 l 67 636 q 132 681 94 654 q 207 740 169 708 q 273 805 245 772 q 306 871 300 839 q 282 928 306 906 q 224 950 258 950 q 164 928 189 950 q 139 871 139 906 l 67 871 q 88 948 67 914 q 145 1000 109 981 q 224 1019 181 1019 q 333 977 288 1019 q 378 871 378 935 q 361 809 378 841 q 315 747 343 778 q 256 689 288 716 q 194 640 224 661 l 376 640 l 376 568 l 67 568 z "},"³":{"ha":386,"x_min":50,"x_max":336,"o":"m 194 554 q 92 592 135 554 q 50 690 50 631 l 122 690 q 143 642 122 660 q 194 624 164 624 q 243 642 223 624 q 264 690 264 660 q 238 747 264 724 q 163 769 212 769 l 163 826 q 230 845 208 826 q 251 894 251 864 q 233 934 251 918 q 190 949 215 949 q 148 934 166 949 q 130 894 130 918 l 58 894 q 97 984 58 949 q 190 1019 135 1019 q 285 984 246 1019 q 324 894 324 949 q 311 839 324 865 q 282 799 299 813 q 323 752 309 777 q 336 690 336 727 q 294 592 336 631 q 194 554 252 554 z "},"⁴":{"ha":473,"x_min":67,"x_max":373,"o":"m 252 568 l 252 652 l 67 652 l 67 739 l 236 1006 l 324 1006 l 324 724 l 373 724 l 373 652 l 324 652 l 324 568 l 252 568 m 140 724 l 256 724 l 256 908 l 140 724 z "},"⁵":{"ha":474,"x_min":58,"x_max":374,"o":"m 216 554 q 105 596 151 554 q 58 703 58 638 l 131 703 q 156 646 131 669 q 216 624 181 624 q 276 646 251 624 q 301 703 301 669 q 276 763 301 738 q 216 788 251 787 q 175 786 195 788 q 134 781 156 785 q 85 770 112 777 l 107 1006 l 347 1006 l 347 940 l 172 940 l 167 856 q 315 825 257 866 q 374 703 374 784 q 327 596 374 638 q 216 554 281 554 z "},"⁶":{"ha":490,"x_min":67,"x_max":390,"o":"m 228 554 q 113 598 158 554 q 67 708 67 642 q 72 747 67 728 q 93 796 78 767 q 137 875 108 826 q 213 1004 166 924 l 297 1004 l 216 865 q 304 848 265 869 q 367 790 344 827 q 390 707 390 752 q 368 626 390 660 q 308 573 345 592 q 228 554 272 554 m 228 624 q 293 648 267 624 q 317 711 319 673 q 289 773 317 750 q 228 797 261 797 q 164 768 189 797 q 140 703 138 740 q 167 645 141 666 q 228 624 194 624 z "},"⁷":{"ha":442,"x_min":83,"x_max":392,"o":"m 99 568 l 308 933 l 83 933 l 83 1006 l 392 1006 l 392 935 l 183 568 l 99 568 z "},"⁸":{"ha":422,"x_min":67,"x_max":355,"o":"m 210 554 q 109 592 151 554 q 67 689 67 629 q 81 751 67 723 q 119 799 96 779 q 89 841 100 817 q 77 893 77 866 q 116 985 77 949 q 210 1020 155 1020 q 305 985 265 1020 q 344 893 344 949 q 333 841 344 866 q 302 799 322 817 q 341 751 326 779 q 355 689 355 723 q 313 592 355 629 q 210 554 270 554 m 210 623 q 261 641 240 623 q 283 689 283 660 q 261 740 283 719 q 210 760 240 760 q 160 740 181 760 q 139 689 139 719 q 160 641 139 660 q 210 623 181 623 m 210 833 q 254 851 236 833 q 272 893 272 869 q 254 935 272 919 q 210 950 236 950 q 167 935 185 950 q 149 893 149 919 q 167 851 149 869 q 210 833 185 833 z "},"⁹":{"ha":458,"x_min":47,"x_max":375,"o":"m 142 568 l 224 710 q 144 720 181 703 q 83 769 107 737 q 53 840 59 801 q 65 919 47 880 q 121 994 80 968 q 213 1019 163 1019 q 289 1001 255 1019 q 344 953 323 983 q 370 887 365 924 q 359 813 375 850 q 350 781 358 799 l 226 568 l 142 568 m 213 776 q 262 792 240 776 q 294 832 284 807 q 299 885 305 857 q 266 934 292 918 q 213 950 240 950 q 162 936 184 950 q 130 898 140 922 q 125 847 119 874 q 159 794 133 812 q 213 776 185 776 z "},"⁄":{"ha":313,"x_min":-169,"x_max":481,"o":"m -169 0 l 392 972 l 481 972 l -80 0 l -169 0 z "},"∕":{"ha":313,"x_min":-169,"x_max":481,"o":"m -169 0 l 392 972 l 481 972 l -80 0 l -169 0 z "},"½":{"ha":1085,"x_min":67,"x_max":985,"o":"m 122 568 l 122 934 l 67 934 l 77 1006 l 194 1006 l 194 568 l 122 568 m 125 0 l 686 972 l 775 972 l 214 0 l 125 0 m 673 0 l 673 68 q 738 113 700 86 q 814 172 776 140 q 879 238 851 204 q 913 303 906 272 q 889 360 913 338 q 830 382 865 382 q 770 360 795 382 q 745 303 745 338 l 673 303 q 694 381 673 347 q 751 434 715 415 q 830 454 787 454 q 908 434 873 454 q 964 381 943 415 q 985 303 985 347 q 967 242 985 274 q 922 179 949 210 q 862 121 894 149 q 801 72 830 94 l 982 72 l 982 0 l 673 0 z "},"¼":{"ha":1079,"x_min":67,"x_max":979,"o":"m 122 568 l 122 934 l 67 934 l 77 1006 l 194 1006 l 194 568 l 122 568 m 125 0 l 686 972 l 775 972 l 214 0 l 125 0 m 858 0 l 858 84 l 673 84 l 673 172 l 842 438 l 931 438 l 931 156 l 979 156 l 979 84 l 931 84 l 931 0 l 858 0 m 747 156 l 863 156 l 863 340 l 747 156 z "},"¾":{"ha":1172,"x_min":50,"x_max":1072,"o":"m 194 554 q 92 592 135 554 q 50 690 50 631 l 122 690 q 143 642 122 660 q 194 624 164 624 q 243 642 223 624 q 264 690 264 660 q 238 747 264 724 q 163 769 212 769 l 163 826 q 230 845 208 826 q 251 894 251 864 q 233 934 251 918 q 190 949 215 949 q 148 934 166 949 q 130 894 130 918 l 58 894 q 97 984 58 949 q 190 1019 135 1019 q 285 984 246 1019 q 324 894 324 949 q 311 839 324 865 q 282 799 299 813 q 323 752 309 777 q 336 690 336 727 q 294 592 336 631 q 194 554 252 554 m 217 0 l 778 972 l 867 972 l 306 0 l 217 0 m 951 0 l 951 84 l 765 84 l 765 172 l 935 438 l 1023 438 l 1023 156 l 1072 156 l 1072 84 l 1023 84 l 1023 0 l 951 0 m 839 156 l 955 156 l 955 340 l 839 156 z "},"⅛":{"ha":1028,"x_min":67,"x_max":961,"o":"m 122 568 l 122 934 l 67 934 l 77 1006 l 194 1006 l 194 568 l 122 568 m 125 0 l 686 972 l 775 972 l 214 0 l 125 0 m 816 -22 q 715 17 757 -22 q 673 115 673 56 q 688 178 673 149 q 726 226 702 206 q 695 268 706 243 q 683 320 683 292 q 722 413 683 376 q 816 449 761 449 q 911 413 872 449 q 951 320 951 376 q 939 268 951 292 q 908 226 928 243 q 947 178 933 206 q 961 115 961 149 q 919 17 961 56 q 816 -22 876 -22 m 816 50 q 868 68 847 50 q 889 115 889 86 q 868 166 889 145 q 816 187 847 187 q 766 166 788 187 q 745 115 745 145 q 766 68 745 86 q 816 50 788 50 m 816 259 q 860 277 842 259 q 878 320 878 296 q 860 361 878 346 q 816 376 842 376 q 774 361 792 376 q 756 320 756 346 q 774 277 756 296 q 816 259 792 259 z "},"⅜":{"ha":1120,"x_min":50,"x_max":1053,"o":"m 194 554 q 92 592 135 554 q 50 690 50 631 l 122 690 q 143 642 122 660 q 194 624 164 624 q 243 642 223 624 q 264 690 264 660 q 238 747 264 724 q 163 769 212 769 l 163 826 q 230 845 208 826 q 251 894 251 864 q 233 934 251 918 q 190 949 215 949 q 148 934 166 949 q 130 894 130 918 l 58 894 q 97 984 58 949 q 190 1019 135 1019 q 285 984 246 1019 q 324 894 324 949 q 311 839 324 865 q 282 799 299 813 q 323 752 309 777 q 336 690 336 727 q 294 592 336 631 q 194 554 252 554 m 217 0 l 778 972 l 867 972 l 306 0 l 217 0 m 908 -22 q 807 17 849 -22 q 765 115 765 56 q 780 178 765 149 q 818 226 794 206 q 787 268 799 243 q 776 320 776 292 q 815 413 776 376 q 908 449 853 449 q 1003 413 964 449 q 1043 320 1043 376 q 1032 268 1043 292 q 1001 226 1020 243 q 1039 178 1025 206 q 1053 115 1053 149 q 1011 17 1053 56 q 908 -22 969 -22 m 908 50 q 960 68 939 50 q 981 115 981 86 q 960 166 981 145 q 908 187 939 187 q 859 166 880 187 q 838 115 838 145 q 859 68 838 86 q 908 50 880 50 m 908 259 q 953 277 935 259 q 971 320 971 296 q 953 361 971 346 q 908 376 935 376 q 866 361 884 376 q 848 320 848 346 q 866 277 848 296 q 908 259 884 259 z "},"⅝":{"ha":1208,"x_min":58,"x_max":1141,"o":"m 216 554 q 105 596 151 554 q 58 703 58 638 l 131 703 q 156 646 131 669 q 216 624 181 624 q 276 646 251 624 q 301 703 301 669 q 276 763 301 738 q 216 788 251 787 q 175 786 195 788 q 134 781 156 785 q 85 770 112 777 l 107 1006 l 347 1006 l 347 940 l 172 940 l 167 856 q 315 825 257 866 q 374 703 374 784 q 327 596 374 638 q 216 554 281 554 m 305 0 l 866 972 l 955 972 l 394 0 l 305 0 m 996 -22 q 895 17 937 -22 q 853 115 853 56 q 867 178 853 149 q 906 226 882 206 q 875 268 886 243 q 863 320 863 292 q 902 413 863 376 q 996 449 941 449 q 1091 413 1051 449 q 1131 320 1131 376 q 1119 268 1131 292 q 1088 226 1108 243 q 1127 178 1113 206 q 1141 115 1141 149 q 1099 17 1141 56 q 996 -22 1056 -22 m 996 50 q 1048 68 1026 50 q 1069 115 1069 86 q 1048 166 1069 145 q 996 187 1026 187 q 946 166 967 187 q 925 115 925 145 q 946 68 925 86 q 996 50 967 50 m 996 259 q 1040 277 1022 259 q 1058 320 1058 296 q 1040 361 1058 346 q 996 376 1022 376 q 953 361 972 376 q 935 320 935 346 q 953 277 935 296 q 996 259 972 259 z "},"⅞":{"ha":1176,"x_min":83,"x_max":1110,"o":"m 99 568 l 308 933 l 83 933 l 83 1006 l 392 1006 l 392 935 l 183 568 l 99 568 m 274 0 l 835 972 l 924 972 l 363 0 l 274 0 m 965 -22 q 864 17 906 -22 q 822 115 822 56 q 836 178 822 149 q 874 226 851 206 q 843 268 855 243 q 832 320 832 292 q 871 413 832 376 q 965 449 910 449 q 1060 413 1020 449 q 1099 320 1099 376 q 1088 268 1099 292 q 1057 226 1076 243 q 1095 178 1081 206 q 1110 115 1110 149 q 1067 17 1110 56 q 965 -22 1025 -22 m 965 50 q 1016 68 995 50 q 1038 115 1038 86 q 1016 166 1038 145 q 965 187 995 187 q 915 166 936 187 q 894 115 894 145 q 915 68 894 86 q 965 50 936 50 m 965 259 q 1009 277 991 259 q 1027 320 1027 296 q 1009 361 1027 346 q 965 376 991 376 q 922 361 940 376 q 904 320 904 346 q 922 277 904 296 q 965 259 940 259 z "},"\r":{"ha":833,"x_min":0,"x_max":0,"o":""},"﻿":{"ha":833,"x_min":0,"x_max":0,"o":""},"\u0000":{"ha":833,"x_min":0,"x_max":0,"o":""}," ":{"ha":694,"x_min":0,"x_max":0,"o":""}," ":{"ha":333,"x_min":0,"x_max":0,"o":""}," ":{"ha":333,"x_min":0,"x_max":0,"o":""}," ":{"ha":278,"x_min":0,"x_max":0,"o":""},"​":{"ha":0,"x_min":0,"x_max":0,"o":""},".":{"ha":250,"x_min":56,"x_max":167,"o":"m 110 -18 q 72 -2 88 -18 q 56 38 56 15 q 72 77 56 60 q 110 93 88 93 q 150 77 134 93 q 167 38 167 60 q 150 -2 167 15 q 110 -18 134 -18 z "},",":{"ha":279,"x_min":56,"x_max":196,"o":"m 56 -78 l 99 157 l 196 157 l 120 -78 l 56 -78 z "},":":{"ha":250,"x_min":56,"x_max":167,"o":"m 110 583 q 72 600 88 583 q 56 640 56 616 q 72 678 56 662 q 110 694 88 694 q 150 678 134 694 q 167 640 167 662 q 150 600 167 616 q 110 583 134 583 m 110 -18 q 72 -2 88 -18 q 56 38 56 15 q 72 77 56 60 q 110 93 88 93 q 150 77 134 93 q 167 38 167 60 q 150 -2 167 15 q 110 -18 134 -18 z "},";":{"ha":285,"x_min":56,"x_max":201,"o":"m 56 -78 l 99 157 l 196 157 l 120 -78 l 56 -78 m 147 583 q 107 599 123 583 q 90 638 90 615 q 107 678 90 662 q 147 694 123 694 q 185 678 169 694 q 201 638 201 662 q 185 599 201 615 q 147 583 169 583 z "},"…":{"ha":713,"x_min":56,"x_max":630,"o":"m 110 -18 q 72 -2 88 -18 q 56 38 56 15 q 72 77 56 60 q 110 93 88 93 q 150 77 134 93 q 167 38 167 60 q 150 -2 167 15 q 110 -18 134 -18 m 342 -18 q 303 -2 319 -18 q 287 38 287 15 q 303 77 287 60 q 342 93 319 93 q 382 77 365 93 q 398 38 398 60 q 382 -2 398 15 q 342 -18 365 -18 m 574 -18 q 535 -2 551 -18 q 519 38 519 15 q 535 77 519 60 q 574 93 551 93 q 614 77 597 93 q 630 38 630 60 q 614 -2 630 15 q 574 -18 597 -18 z "},"!":{"ha":249,"x_min":56,"x_max":166,"o":"m 69 292 l 69 972 l 154 972 l 154 292 l 69 292 m 112 -18 q 72 -2 88 -18 q 56 38 56 15 q 72 77 56 61 q 112 93 88 93 q 150 77 134 93 q 166 38 166 61 q 150 -2 166 15 q 112 -18 134 -18 z "},"¡":{"ha":231,"x_min":56,"x_max":166,"o":"m 110 713 q 150 697 134 713 q 166 656 166 681 q 150 617 166 633 q 110 601 134 601 q 72 617 88 601 q 56 656 56 633 q 72 697 56 681 q 110 713 88 713 m 153 403 l 153 -278 l 67 -278 l 67 403 l 153 403 z "},"?":{"ha":697,"x_min":56,"x_max":613,"o":"m 295 334 q 330 460 295 403 q 424 551 364 518 q 492 617 467 574 q 516 713 516 660 q 491 804 516 763 q 425 869 467 845 q 334 894 384 894 q 243 869 284 894 q 177 804 201 845 q 153 713 153 763 l 56 713 q 93 853 56 790 q 194 953 131 916 q 334 991 258 991 q 475 953 411 991 q 576 853 538 916 q 613 713 613 790 q 575 568 613 634 q 470 465 537 501 q 413 411 434 446 q 392 334 392 376 l 295 334 m 341 -18 q 302 -1 318 -18 q 285 38 285 15 q 302 77 285 61 q 341 93 318 93 q 380 77 364 93 q 397 38 397 61 q 380 -1 397 15 q 341 -18 364 -18 z "},"¿":{"ha":678,"x_min":56,"x_max":614,"o":"m 335 -297 q 194 -259 258 -297 q 93 -158 131 -222 q 56 -18 56 -94 q 94 127 56 60 q 198 229 132 194 q 256 284 235 249 q 276 361 276 319 l 374 361 q 339 236 374 294 q 244 144 305 178 q 177 77 201 121 q 153 -18 153 34 q 177 -109 153 -68 q 243 -175 202 -150 q 335 -199 285 -199 q 426 -175 385 -199 q 492 -109 467 -150 q 517 -18 517 -68 l 614 -18 q 576 -158 614 -94 q 475 -259 539 -222 q 335 -297 412 -297 m 328 601 q 288 617 304 601 q 272 656 272 633 q 288 697 272 681 q 328 713 304 713 q 367 697 351 713 q 383 656 383 681 q 367 617 383 633 q 328 601 351 601 z "},"·":{"ha":222,"x_min":56,"x_max":167,"o":"m 110 361 q 72 377 88 361 q 56 417 56 394 q 72 456 56 440 q 110 472 88 472 q 150 456 134 472 q 167 417 167 440 q 150 377 167 394 q 110 361 134 361 z "},"•":{"ha":259,"x_min":56,"x_max":203,"o":"m 128 342 q 77 364 99 342 q 56 417 56 385 q 77 469 56 448 q 128 491 99 491 q 182 469 160 491 q 203 417 203 448 q 182 364 203 385 q 128 342 160 342 z "},"*":{"ha":490,"x_min":35,"x_max":434,"o":"m 147 592 l 88 636 l 174 755 l 35 800 l 57 870 l 197 826 l 197 972 l 272 972 l 272 826 l 411 870 l 434 800 l 294 755 l 381 636 l 320 592 l 234 712 l 147 592 z "},"#":{"ha":1049,"x_min":56,"x_max":994,"o":"m 969 645 l 828 645 l 743 328 l 884 328 l 859 234 l 719 234 l 656 0 l 558 0 l 622 234 l 294 234 l 231 0 l 133 0 l 197 234 l 56 234 l 81 328 l 221 328 l 306 645 l 165 645 l 191 739 l 331 739 l 394 972 l 491 972 l 428 739 l 757 739 l 819 972 l 916 972 l 854 739 l 994 739 l 969 645 m 646 328 l 731 645 l 403 645 l 318 328 l 646 328 z "},"/":{"ha":490,"x_min":56,"x_max":434,"o":"m 434 972 l 153 -78 l 56 -78 l 337 972 l 434 972 z "},"\\":{"ha":490,"x_min":56,"x_max":434,"o":"m 337 -78 l 56 972 l 153 972 l 434 -78 l 337 -78 z "},"-":{"ha":611,"x_min":83,"x_max":528,"o":"m 83 465 l 528 465 l 528 368 l 83 368 l 83 465 z "},"­":{"ha":630,"x_min":102,"x_max":547,"o":"m 102 465 l 547 465 l 547 368 l 102 368 l 102 465 z "},"–":{"ha":861,"x_min":83,"x_max":778,"o":"m 83 465 l 778 465 l 778 368 l 83 368 l 83 465 z "},"—":{"ha":1417,"x_min":83,"x_max":1333,"o":"m 83 465 l 1333 465 l 1333 368 l 83 368 l 83 465 z "},"_":{"ha":861,"x_min":83,"x_max":778,"o":"m 83 19 l 778 19 l 778 -78 l 83 -78 l 83 19 z "},"(":{"ha":447,"x_min":83,"x_max":377,"o":"m 280 -78 q 166 72 210 -12 q 103 250 123 155 q 83 447 83 346 q 91 564 83 503 q 115 685 99 625 q 155 800 131 745 q 210 899 178 855 q 280 972 241 944 l 377 972 q 312 893 342 938 q 259 796 283 849 q 218 685 235 743 q 192 567 201 627 q 181 447 182 507 q 208 242 183 338 q 276 66 233 147 q 377 -78 319 -14 l 280 -78 z "},")":{"ha":447,"x_min":69,"x_max":363,"o":"m 69 -78 q 171 66 128 -14 q 239 242 214 147 q 266 447 263 338 q 255 567 265 507 q 228 685 245 627 q 188 796 211 743 q 134 893 164 849 q 69 972 105 938 l 167 972 q 236 899 206 944 q 291 800 267 855 q 331 685 315 745 q 355 564 347 625 q 363 447 363 503 q 343 250 363 346 q 280 72 324 155 q 167 -78 237 -12 l 69 -78 z "},"{":{"ha":558,"x_min":83,"x_max":488,"o":"m 437 -78 q 314 -45 369 -78 q 226 43 259 -12 q 194 165 194 98 l 194 335 q 176 370 193 358 q 138 392 159 383 q 100 413 116 401 q 83 447 83 425 q 100 481 83 469 q 138 503 116 494 q 176 524 159 512 q 194 558 193 536 l 194 729 q 226 851 194 796 q 314 939 259 906 q 437 972 369 972 l 488 972 l 488 875 l 437 875 q 364 855 397 875 q 311 802 331 835 q 291 729 291 769 l 291 555 q 280 512 290 528 q 251 482 269 496 q 208 447 233 468 q 252 410 235 424 q 280 381 270 396 q 291 338 290 366 l 291 165 q 311 91 291 124 q 364 39 331 58 q 437 19 397 19 l 488 19 l 488 -78 l 437 -78 z "},"}":{"ha":558,"x_min":69,"x_max":474,"o":"m 69 -78 l 69 19 l 121 19 q 194 39 161 19 q 247 91 227 58 q 267 165 267 124 l 267 338 q 278 381 268 366 q 306 410 288 396 q 351 447 324 424 q 307 482 325 468 q 278 512 288 496 q 267 555 268 528 l 267 729 q 247 802 267 769 q 194 855 227 835 q 121 875 161 875 l 69 875 l 69 972 l 121 972 q 243 939 188 972 q 331 851 299 906 q 364 729 364 796 l 364 558 q 382 524 365 536 q 420 503 399 512 q 458 481 442 494 q 474 447 474 469 q 458 413 474 425 q 420 392 442 401 q 382 370 399 383 q 364 335 365 358 l 364 165 q 331 43 364 98 q 243 -45 299 -12 q 121 -78 188 -78 l 69 -78 z "},"[":{"ha":374,"x_min":83,"x_max":305,"o":"m 305 19 l 305 -78 l 83 -78 l 83 972 l 305 972 l 305 875 l 181 875 l 181 19 l 305 19 z "},"]":{"ha":374,"x_min":69,"x_max":291,"o":"m 69 -78 l 69 19 l 194 19 l 194 875 l 69 875 l 69 972 l 291 972 l 291 -78 l 69 -78 z "},"‚":{"ha":233,"x_min":37,"x_max":177,"o":"m 37 -78 l 80 157 l 177 157 l 101 -78 l 37 -78 z "},"„":{"ha":423,"x_min":37,"x_max":367,"o":"m 37 -78 l 80 157 l 177 157 l 101 -78 l 37 -78 m 227 -78 l 270 157 l 367 157 l 292 -78 l 227 -78 z "},"“":{"ha":450,"x_min":83,"x_max":422,"o":"m 83 610 l 159 972 l 224 972 l 181 610 l 83 610 m 282 613 l 358 975 l 422 975 l 379 613 l 282 613 z "},"”":{"ha":450,"x_min":28,"x_max":367,"o":"m 28 610 l 71 972 l 168 972 l 92 610 l 28 610 m 226 610 l 269 972 l 367 972 l 291 610 l 226 610 z "},"″":{"ha":450,"x_min":28,"x_max":367,"o":"m 28 610 l 71 972 l 168 972 l 92 610 l 28 610 m 226 610 l 269 972 l 367 972 l 291 610 l 226 610 z "},"ʻ":{"ha":210,"x_min":42,"x_max":182,"o":"m 42 610 l 117 972 l 182 972 l 139 610 l 42 610 z "},"‘":{"ha":210,"x_min":42,"x_max":182,"o":"m 42 610 l 117 972 l 182 972 l 139 610 l 42 610 z "},"’":{"ha":210,"x_min":28,"x_max":168,"o":"m 28 610 l 71 972 l 168 972 l 92 610 l 28 610 z "},"′":{"ha":210,"x_min":28,"x_max":168,"o":"m 28 610 l 71 972 l 168 972 l 92 610 l 28 610 z "},"«":{"ha":708,"x_min":83,"x_max":639,"o":"m 292 181 l 83 417 l 292 652 l 398 652 l 190 417 l 398 181 l 292 181 m 533 181 l 324 417 l 533 652 l 639 652 l 431 417 l 639 181 l 533 181 z "},"»":{"ha":722,"x_min":69,"x_max":625,"o":"m 310 181 l 518 417 l 310 652 l 417 652 l 625 417 l 417 181 l 310 181 m 69 181 l 277 417 l 69 652 l 176 652 l 384 417 l 176 181 l 69 181 z "},"‹":{"ha":467,"x_min":83,"x_max":398,"o":"m 292 181 l 83 417 l 292 652 l 398 652 l 190 417 l 398 181 l 292 181 z "},"›":{"ha":467,"x_min":69,"x_max":384,"o":"m 69 181 l 277 417 l 69 652 l 176 652 l 384 417 l 176 181 l 69 181 z "},"‵":{"ha":307,"x_min":83,"x_max":224,"o":"m 159 610 l 83 972 l 181 972 l 224 610 l 159 610 z "},"\"":{"ha":360,"x_min":51,"x_max":310,"o":"m 51 610 l 51 972 l 125 972 l 125 610 l 51 610 m 235 610 l 235 972 l 310 972 l 310 610 l 235 610 z "},"'":{"ha":176,"x_min":51,"x_max":125,"o":"m 51 610 l 51 972 l 125 972 l 125 610 l 51 610 z "},"@":{"ha":1202,"x_min":56,"x_max":1147,"o":"m 601 -129 q 389 -92 488 -129 q 215 14 290 -54 q 98 176 140 83 q 56 383 56 270 q 98 594 56 495 q 215 768 140 693 q 389 885 290 843 q 601 928 488 928 q 814 885 715 928 q 988 767 913 842 q 1105 594 1063 692 q 1147 383 1147 495 q 1132 269 1147 326 q 1091 165 1118 212 q 1025 90 1064 118 q 935 62 985 62 q 856 80 894 62 q 792 131 817 99 q 763 202 766 163 q 688 132 734 158 q 580 106 641 106 q 441 143 504 106 q 341 243 378 181 q 304 383 304 306 q 341 522 304 459 q 441 621 378 584 q 580 658 504 658 q 689 633 640 658 q 766 565 738 608 l 766 644 l 844 633 l 844 237 q 871 181 844 203 q 930 159 897 159 q 998 194 972 159 q 1037 281 1024 229 q 1049 383 1049 333 q 1014 557 1049 476 q 917 700 979 638 q 775 796 856 761 q 601 831 694 831 q 428 796 509 831 q 285 700 347 761 q 188 557 223 638 q 153 383 153 476 q 188 214 153 290 q 284 83 222 138 q 427 -2 346 28 q 601 -32 508 -32 l 601 -129 m 586 185 q 681 215 641 185 q 742 292 720 244 q 763 391 763 340 q 743 483 763 440 q 684 553 724 526 q 586 580 644 580 q 486 553 531 580 q 415 482 442 527 q 388 383 388 438 q 415 282 388 327 q 488 211 442 238 q 586 185 533 185 z "},"&":{"ha":984,"x_min":56,"x_max":928,"o":"m 337 -18 q 191 22 254 -18 q 91 126 127 62 q 56 265 56 191 q 65 343 56 310 q 98 409 74 376 q 163 485 121 442 q 269 592 204 528 q 206 658 231 631 q 167 705 181 684 q 148 748 153 726 q 142 799 142 770 q 169 899 142 854 q 240 969 196 943 q 337 995 285 995 q 435 969 391 995 q 506 898 480 942 q 533 799 533 854 q 527 747 533 769 q 507 703 521 724 q 468 655 492 681 q 406 592 443 629 l 666 333 l 819 485 l 819 348 l 733 263 l 928 69 l 860 0 l 666 193 q 557 86 601 128 q 481 22 514 45 q 416 -9 449 -1 q 337 -18 383 -18 m 337 79 q 396 87 372 79 q 445 114 420 94 q 506 170 471 134 q 597 263 541 206 l 337 524 q 243 429 279 465 q 188 368 207 393 q 161 320 168 344 q 153 263 153 296 q 178 169 153 211 q 245 103 203 128 q 337 79 287 79 m 337 650 q 405 717 382 694 q 436 757 428 740 q 444 801 444 774 q 412 877 444 847 q 337 908 380 908 q 261 876 292 908 q 231 801 231 844 q 240 757 231 774 q 272 716 249 739 q 337 650 294 693 z "},"¶":{"ha":595,"x_min":56,"x_max":540,"o":"m 292 -210 l 292 499 q 173 531 226 499 q 88 616 119 563 q 56 735 56 670 q 88 855 56 801 q 173 940 119 908 q 292 972 226 972 l 389 972 l 389 -210 l 292 -210 m 442 -210 l 442 972 l 540 972 l 540 -210 l 442 -210 z "},"§":{"ha":747,"x_min":83,"x_max":664,"o":"m 378 -278 q 224 -242 294 -278 q 123 -144 154 -205 l 201 -98 q 241 -147 214 -126 q 303 -180 268 -167 q 372 -192 338 -192 q 455 -180 417 -193 q 516 -139 493 -166 q 540 -74 540 -112 q 517 -14 540 -35 q 455 21 494 8 q 366 44 416 33 q 219 100 283 60 q 119 203 155 140 q 83 347 83 265 q 107 457 83 405 q 171 548 130 509 q 267 606 213 588 q 152 664 190 624 q 115 767 115 703 q 151 877 115 831 q 245 948 187 923 q 369 973 303 973 q 523 936 453 973 q 624 838 593 900 l 546 792 q 506 841 533 820 q 445 874 479 862 q 375 887 410 886 q 292 874 331 888 q 231 834 254 860 q 208 769 208 807 q 230 709 208 731 q 290 675 251 688 q 380 651 329 663 q 530 594 466 633 q 629 494 594 555 q 664 347 664 433 q 640 236 664 288 q 575 145 617 184 q 480 88 533 106 q 594 31 557 70 q 632 -73 632 -9 q 596 -182 632 -136 q 503 -253 560 -228 q 378 -278 445 -278 m 377 142 q 476 170 431 142 q 549 244 522 198 q 576 344 576 290 q 546 455 576 408 q 469 527 517 502 q 369 552 422 552 q 270 524 315 552 q 199 450 226 497 q 172 347 172 403 q 200 243 172 289 q 276 169 229 197 q 377 142 323 142 z "},"©":{"ha":1252,"x_min":56,"x_max":1197,"o":"m 626 -151 q 404 -106 508 -151 q 222 17 301 -62 q 100 199 144 95 q 56 420 56 302 q 100 642 56 538 q 222 824 144 745 q 404 946 301 902 q 626 990 508 990 q 847 946 744 990 q 1029 824 951 902 q 1152 642 1108 745 q 1197 420 1197 538 q 1152 199 1197 302 q 1029 17 1108 95 q 847 -106 951 -62 q 626 -151 744 -151 m 626 -53 q 812 -16 726 -53 q 963 87 898 22 q 1063 238 1027 153 q 1099 420 1099 324 q 1062 604 1099 518 q 960 756 1025 690 q 809 857 894 821 q 626 893 723 894 q 441 855 527 892 q 291 753 356 818 q 189 602 226 688 q 153 420 153 517 q 190 234 153 320 q 293 83 228 148 q 444 -17 359 19 q 626 -53 530 -53 m 822 247 l 908 200 q 789 94 861 134 q 631 55 716 55 q 457 104 535 55 q 331 236 378 153 q 284 420 284 319 q 311 563 284 497 q 386 680 338 629 q 497 758 433 730 q 631 787 560 787 q 789 747 716 787 q 908 641 861 708 l 822 594 q 735 665 785 640 q 631 690 684 690 q 504 652 561 690 q 414 554 447 615 q 381 420 381 493 q 415 286 381 347 q 506 189 449 225 q 631 152 563 152 q 738 178 688 152 q 822 247 788 205 z "},"®":{"ha":691,"x_min":42,"x_max":649,"o":"m 345 322 q 227 346 282 322 q 130 412 172 370 q 65 509 88 454 q 42 626 42 564 q 65 742 42 688 q 131 839 89 797 q 227 905 172 881 q 345 929 282 929 q 465 905 410 929 q 562 838 520 881 q 626 741 603 795 q 649 626 649 686 q 626 508 649 563 q 560 411 602 453 q 464 345 519 369 q 345 322 408 322 m 345 398 q 460 429 408 398 q 542 511 511 460 q 573 626 573 563 q 542 740 573 688 q 460 822 511 792 q 345 853 408 853 q 231 822 283 853 q 149 740 180 792 q 118 626 118 688 q 149 511 118 563 q 231 429 180 460 q 345 398 283 398 m 260 492 l 260 770 l 365 770 q 421 745 398 770 q 444 686 444 721 q 430 638 444 659 q 391 609 415 617 l 459 492 l 398 492 l 333 603 l 314 603 l 314 492 l 260 492 m 314 656 l 365 656 q 383 665 376 656 q 391 686 391 674 q 383 708 391 699 q 365 717 376 717 l 314 717 l 314 656 z "},"™":{"ha":2033,"x_min":56,"x_max":1950,"o":"m 819 972 l 819 875 l 485 875 l 485 0 l 388 0 l 388 875 l 56 875 l 56 972 l 819 972 m 888 0 l 1076 972 l 1147 972 l 1419 257 l 1690 972 l 1761 972 l 1950 0 l 1851 0 l 1707 744 l 1450 64 l 1388 64 l 1131 744 l 987 0 l 888 0 z "},"°":{"ha":490,"x_min":56,"x_max":434,"o":"m 245 561 q 149 587 192 561 q 81 656 106 613 q 56 750 56 699 q 81 845 56 802 q 149 913 106 888 q 245 939 192 939 q 341 913 299 939 q 409 844 384 887 q 434 750 434 801 q 408 654 434 697 q 340 586 383 611 q 245 561 297 561 m 245 658 q 310 685 283 658 q 337 750 337 712 q 310 815 337 789 q 245 842 283 842 q 180 815 207 842 q 153 750 153 789 q 180 685 153 712 q 245 658 207 658 z "},"|":{"ha":292,"x_min":97,"x_max":194,"o":"m 97 972 l 194 972 l 194 -210 l 97 -210 l 97 972 z "},"¦":{"ha":264,"x_min":83,"x_max":181,"o":"m 83 311 l 181 311 l 181 -210 l 83 -210 l 83 311 m 83 972 l 181 972 l 181 451 l 83 451 l 83 972 z "},"†":{"ha":548,"x_min":56,"x_max":492,"o":"m 56 759 l 56 856 l 226 856 l 226 1042 l 323 1042 l 323 856 l 492 856 l 492 759 l 323 759 l 323 408 l 226 408 l 226 759 l 56 759 z "},"‡":{"ha":548,"x_min":56,"x_max":492,"o":"m 56 543 l 56 639 l 226 639 l 226 783 l 56 783 l 56 880 l 226 880 l 226 1042 l 323 1042 l 323 880 l 492 880 l 492 783 l 323 783 l 323 639 l 492 639 l 492 543 l 323 543 l 323 389 l 226 389 l 226 543 l 56 543 z "},"¢":{"ha":758,"x_min":56,"x_max":703,"o":"m 365 0 l 365 141 q 208 199 278 151 q 97 323 138 247 q 56 488 56 398 q 97 652 56 577 q 208 775 138 727 q 365 833 278 824 l 365 972 l 440 972 l 440 833 q 592 781 523 826 q 703 668 661 736 l 619 619 q 526 706 585 674 q 404 739 468 739 q 278 705 335 739 q 187 614 222 671 q 153 488 153 557 q 188 359 153 417 q 280 268 222 302 q 404 235 337 235 q 526 267 468 235 q 619 354 585 300 l 703 306 q 592 193 661 238 q 440 141 523 149 l 440 0 l 365 0 z "},"¤":{"ha":683,"x_min":56,"x_max":627,"o":"m 108 200 l 56 252 l 142 339 q 99 434 110 383 q 99 537 88 485 q 143 632 110 589 l 56 721 l 108 772 l 196 685 q 290 728 238 717 q 394 728 342 739 q 488 686 446 718 l 576 772 l 627 721 l 542 634 q 587 539 576 591 q 587 434 598 486 q 543 338 576 381 l 627 252 l 576 200 l 490 285 q 394 240 446 251 q 290 241 342 229 q 194 286 238 252 l 108 200 m 342 309 q 431 333 391 310 q 494 397 470 357 q 518 485 518 436 q 494 574 518 535 q 431 636 471 613 q 342 660 391 660 q 253 636 293 660 q 191 573 214 613 q 167 485 167 533 q 192 395 167 435 q 256 332 216 356 q 342 309 296 309 z "},"$":{"ha":819,"x_min":56,"x_max":764,"o":"m 409 889 q 286 867 343 890 q 193 805 228 844 q 158 711 158 765 q 191 615 158 649 q 281 565 224 581 q 409 535 338 548 q 582 485 502 519 q 710 395 662 451 q 759 258 759 340 q 716 121 759 180 q 603 26 674 62 q 447 -16 532 -9 l 447 -156 l 373 -156 l 373 -16 q 236 14 301 -11 q 124 83 172 40 q 56 183 76 126 l 147 217 q 202 143 162 174 q 298 96 243 113 q 409 79 352 79 q 533 101 476 79 q 626 164 591 124 q 662 258 662 203 q 625 348 662 313 q 530 404 588 383 q 409 435 472 424 q 231 483 310 453 q 106 567 152 513 q 60 711 60 622 q 103 848 60 789 q 217 942 146 907 q 373 984 288 978 l 373 1128 l 447 1128 l 447 984 q 580 954 516 979 q 693 886 644 929 q 764 784 742 844 l 672 751 q 616 825 656 794 q 521 873 575 856 q 409 889 467 889 z "},"€":{"ha":810,"x_min":56,"x_max":755,"o":"m 755 -10 q 572 -8 660 -28 q 410 63 484 12 q 284 189 336 113 q 208 357 231 264 l 56 357 l 56 431 l 195 431 l 195 540 l 56 540 l 56 615 l 208 615 q 285 785 232 709 q 413 911 338 860 q 574 981 487 961 q 755 983 662 1001 l 755 884 q 609 888 679 901 q 481 837 540 874 q 378 742 422 799 q 313 615 335 685 l 542 615 l 542 540 l 294 540 l 294 431 l 542 431 l 542 357 l 313 357 q 379 228 335 285 q 482 134 423 171 q 611 85 542 97 q 755 90 681 73 l 755 -10 z "},"£":{"ha":806,"x_min":56,"x_max":751,"o":"m 72 0 l 72 97 q 150 108 113 97 q 218 139 188 119 q 262 186 247 158 q 272 248 277 214 q 251 324 268 292 q 209 380 234 355 q 158 429 185 405 q 108 482 132 453 q 70 550 85 510 q 56 644 56 589 q 83 778 56 715 q 158 888 110 840 q 268 963 206 936 q 402 990 331 990 q 538 963 474 990 q 649 889 601 936 q 724 778 697 841 q 751 644 751 715 l 653 644 q 619 769 653 713 q 528 859 585 826 q 402 893 472 893 q 277 859 334 893 q 186 769 220 826 q 153 644 153 713 q 168 549 153 587 q 209 485 184 512 q 262 436 234 459 q 315 387 290 414 q 356 322 340 360 q 372 226 372 284 q 359 172 372 197 q 326 126 346 146 q 286 97 307 107 l 744 97 l 744 0 l 72 0 m 72 312 l 72 386 l 594 386 l 594 312 l 72 312 z "},"¥":{"ha":853,"x_min":51,"x_max":803,"o":"m 378 0 l 378 134 l 174 134 l 174 208 l 378 208 l 378 319 l 174 319 l 174 392 l 378 392 l 378 440 l 51 972 l 165 972 l 427 547 l 688 972 l 803 972 l 476 440 l 476 392 l 680 392 l 680 319 l 476 319 l 476 208 l 680 208 l 680 134 l 476 134 l 476 0 l 378 0 z "},"+":{"ha":806,"x_min":56,"x_max":750,"o":"m 354 69 l 354 368 l 56 368 l 56 465 l 354 465 l 354 764 l 451 764 l 451 465 l 750 465 l 750 368 l 451 368 l 451 69 l 354 69 z "},"−":{"ha":806,"x_min":56,"x_max":750,"o":"m 56 368 l 56 465 l 750 465 l 750 368 l 56 368 z "},"×":{"ha":671,"x_min":56,"x_max":615,"o":"m 124 137 l 56 206 l 266 417 l 56 628 l 124 697 l 335 485 l 546 697 l 615 628 l 403 417 l 615 206 l 546 137 l 335 348 l 124 137 z "},"÷":{"ha":806,"x_min":56,"x_max":750,"o":"m 56 368 l 56 465 l 750 465 l 750 368 l 56 368 m 403 740 q 452 718 431 740 q 474 667 474 696 q 452 617 474 638 q 403 596 431 596 q 351 617 372 596 q 331 667 331 638 q 351 718 331 696 q 403 740 372 740 m 403 237 q 453 215 431 237 q 476 164 476 192 q 453 114 476 134 q 403 93 431 93 q 351 114 372 93 q 331 164 331 134 q 351 215 331 192 q 403 237 372 237 z "},"=":{"ha":806,"x_min":56,"x_max":750,"o":"m 56 228 l 56 325 l 750 325 l 750 228 l 56 228 m 56 508 l 56 606 l 750 606 l 750 508 l 56 508 z "},"≠":{"ha":806,"x_min":56,"x_max":750,"o":"m 571 821 l 508 606 l 750 606 l 750 508 l 480 508 l 426 325 l 750 325 l 750 228 l 398 228 l 334 13 l 233 13 l 297 228 l 56 228 l 56 325 l 324 325 l 378 508 l 56 508 l 56 606 l 408 606 l 470 821 l 571 821 z "},">":{"ha":806,"x_min":56,"x_max":750,"o":"m 56 142 l 56 242 l 676 417 l 56 590 l 56 692 l 750 496 l 750 336 l 56 142 z "},"<":{"ha":806,"x_min":56,"x_max":750,"o":"m 750 139 l 56 336 l 56 496 l 750 694 l 750 592 l 130 417 l 750 240 l 750 139 z "},"≥":{"ha":806,"x_min":56,"x_max":750,"o":"m 56 242 l 56 344 l 676 517 l 56 691 l 56 792 l 750 597 l 750 437 l 56 242 m 56 0 l 56 97 l 750 97 l 750 0 l 56 0 z "},"≤":{"ha":806,"x_min":56,"x_max":750,"o":"m 750 237 l 56 434 l 56 594 l 750 792 l 750 691 l 130 515 l 750 338 l 750 237 m 56 0 l 56 97 l 750 97 l 750 0 l 56 0 z "},"±":{"ha":806,"x_min":56,"x_max":750,"o":"m 354 231 l 354 530 l 56 530 l 56 627 l 354 627 l 354 926 l 451 926 l 451 627 l 750 627 l 750 530 l 451 530 l 451 231 l 354 231 m 56 0 l 56 97 l 750 97 l 750 0 l 56 0 z "},"≈":{"ha":850,"x_min":20,"x_max":775,"o":"m 595 501 q 500 524 551 501 q 397 577 449 547 q 298 630 344 607 q 216 653 251 653 q 163 636 185 653 q 131 592 140 619 q 127 534 121 565 l 33 529 q 41 633 20 583 q 107 715 63 683 q 209 747 151 747 q 299 723 251 747 q 396 669 347 700 q 491 616 445 639 q 576 592 538 592 q 630 609 607 592 q 663 653 653 626 q 666 710 673 680 l 761 716 q 756 611 775 660 q 694 531 736 562 q 595 501 651 501 m 595 120 q 500 143 551 120 q 397 196 449 166 q 298 249 344 226 q 216 272 251 272 q 163 256 185 273 q 131 211 140 239 q 127 153 121 184 l 33 149 q 41 252 20 203 q 107 334 63 302 q 209 366 151 366 q 299 343 251 366 q 396 289 347 319 q 491 235 445 258 q 576 212 538 212 q 630 228 607 212 q 663 272 653 245 q 666 329 673 299 l 761 335 q 756 230 775 279 q 694 151 736 181 q 595 120 651 120 z "},"~":{"ha":850,"x_min":48,"x_max":803,"o":"m 623 294 q 528 317 579 294 q 424 370 476 340 q 325 423 372 400 q 244 446 278 446 q 191 430 213 447 q 158 385 168 413 q 155 327 149 358 l 60 322 q 69 426 48 376 q 135 508 90 476 q 237 540 179 540 q 327 516 279 540 q 424 463 375 493 q 519 409 473 432 q 603 385 565 385 q 658 402 635 385 q 691 446 681 419 q 694 503 701 473 l 789 509 q 783 404 803 453 q 722 324 764 355 q 623 294 679 294 z "},"¬":{"ha":676,"x_min":56,"x_max":620,"o":"m 523 219 l 523 517 l 56 517 l 56 615 l 620 615 l 620 219 l 523 219 z "},"^":{"ha":545,"x_min":56,"x_max":490,"o":"m 56 694 l 219 1146 l 326 1146 l 490 694 l 386 694 l 273 1008 l 158 694 l 56 694 z "},"∅":{"ha":806,"x_min":56,"x_max":750,"o":"m 228 -38 l 156 3 l 190 61 q 92 186 128 111 q 56 347 56 260 q 83 490 56 424 q 157 607 110 556 q 268 685 205 657 q 403 714 331 714 q 478 705 442 714 q 546 681 514 697 l 578 735 l 651 694 l 617 635 q 714 511 678 585 q 750 347 750 436 q 723 206 750 272 q 648 89 696 140 q 538 10 601 39 q 403 -18 475 -18 q 328 -9 365 -18 q 259 16 292 1 l 228 -38 m 238 144 l 501 601 q 376 621 438 630 q 261 574 313 612 q 178 476 210 535 q 147 343 147 416 q 172 231 147 282 q 238 144 197 179 m 305 95 q 432 76 369 67 q 546 123 495 85 q 628 220 597 161 q 658 351 658 280 q 634 465 658 413 q 569 552 610 517 l 305 95 z "},"∞":{"ha":1022,"x_min":56,"x_max":967,"o":"m 268 210 q 156 249 203 217 q 82 329 108 281 q 56 435 56 378 q 83 545 56 495 q 158 625 110 594 q 268 659 206 656 q 360 643 322 659 q 434 593 399 626 q 512 509 469 560 q 588 592 552 559 q 660 642 623 626 q 742 659 697 659 q 864 625 814 656 q 940 545 914 594 q 967 435 967 495 q 940 325 967 375 q 865 245 913 276 q 756 210 817 215 q 665 225 703 210 q 592 273 627 240 q 512 360 556 306 q 433 274 468 308 q 359 225 397 240 q 268 210 321 209 m 269 301 q 337 316 309 301 q 392 360 365 331 q 455 435 419 390 q 390 511 417 482 q 336 555 363 541 q 269 568 308 569 q 180 524 215 563 q 146 435 146 485 q 182 343 146 380 q 269 301 218 306 m 753 301 q 842 345 808 306 q 877 435 877 383 q 842 526 877 488 q 747 569 807 564 q 684 554 711 569 q 631 509 658 539 q 567 435 604 479 q 623 370 599 397 q 665 329 646 344 q 706 307 685 314 q 753 301 726 301 z "},"∫":{"ha":610,"x_min":53,"x_max":557,"o":"m 185 -18 q 117 1 148 -17 q 69 52 86 20 q 56 124 53 85 l 126 119 q 136 82 126 97 q 167 65 146 67 q 203 76 188 63 q 222 109 219 88 l 292 883 q 317 940 297 915 q 366 978 337 965 q 427 990 396 992 q 494 969 465 989 q 541 917 524 949 q 553 847 557 885 l 488 853 q 473 894 488 880 q 437 907 458 908 q 402 894 417 908 q 387 861 388 880 l 317 90 q 272 9 308 35 q 185 -18 236 -17 z "},"∏":{"ha":889,"x_min":56,"x_max":833,"o":"m 56 972 l 833 972 l 833 875 l 56 875 l 56 972 m 188 908 l 285 908 l 285 0 l 188 0 l 188 908 m 604 908 l 701 908 l 701 0 l 604 0 l 604 908 z "},"∑":{"ha":663,"x_min":56,"x_max":622,"o":"m 56 0 l 56 97 l 253 485 l 56 872 l 56 969 l 622 969 l 622 872 l 165 872 l 363 485 l 165 97 l 622 97 l 622 0 l 56 0 z "},"√":{"ha":893,"x_min":56,"x_max":838,"o":"m 603 972 l 838 972 l 838 875 l 672 875 l 351 0 l 235 0 l 56 492 l 159 492 l 294 124 l 603 972 z "},"∂":{"ha":809,"x_min":56,"x_max":753,"o":"m 405 -18 q 230 29 309 -18 q 103 156 150 76 q 56 331 56 235 q 83 466 56 403 q 158 578 110 530 q 269 653 206 626 q 405 680 333 680 q 527 651 471 680 q 619 572 583 622 q 571 707 603 641 q 493 827 540 774 q 384 912 446 881 q 245 944 322 944 l 245 1041 q 447 987 355 1041 q 608 839 540 933 q 715 622 676 744 q 753 360 753 499 q 709 164 753 249 q 586 30 665 78 q 405 -18 508 -18 m 405 79 q 533 114 476 79 q 624 206 590 149 q 657 331 657 263 q 623 457 657 400 q 532 548 590 514 q 405 583 475 583 q 277 548 334 583 q 186 456 220 513 q 153 331 153 399 q 186 205 153 263 q 277 114 220 148 q 405 79 335 79 z "},"µ":{"ha":734,"x_min":56,"x_max":678,"o":"m 56 -300 l 56 694 l 153 694 l 153 325 q 182 200 153 257 q 260 110 210 144 q 370 76 309 76 q 478 110 431 76 q 554 200 526 144 q 581 325 581 257 l 581 694 l 678 694 l 678 0 l 581 0 l 581 117 q 485 17 542 53 q 358 -19 428 -19 q 240 14 292 -19 q 153 97 187 46 l 153 -300 l 56 -300 z "},"%":{"ha":890,"x_min":56,"x_max":835,"o":"m 108 0 l 669 972 l 781 972 l 220 0 l 108 0 m 222 592 q 138 615 176 592 q 78 675 101 637 q 56 758 56 713 q 78 843 56 806 q 139 903 101 881 q 222 925 176 925 q 305 902 267 925 q 365 842 342 880 q 388 758 388 805 q 365 674 388 712 q 305 615 342 637 q 222 592 267 592 m 222 667 q 287 693 260 667 q 313 758 313 720 q 287 824 313 797 q 222 851 260 851 q 157 824 183 851 q 130 758 130 797 q 157 693 130 720 q 222 667 183 667 m 669 47 q 585 70 623 47 q 525 131 547 93 q 502 213 502 169 q 525 298 502 260 q 586 358 548 335 q 669 380 624 380 q 753 357 715 380 q 813 296 790 334 q 835 213 835 258 q 813 130 835 167 q 752 69 790 92 q 669 47 715 47 m 669 121 q 733 148 706 121 q 760 213 760 175 q 733 278 760 251 q 669 306 706 306 q 603 278 631 306 q 576 213 576 251 q 603 148 576 175 q 669 121 631 121 z "},"‰":{"ha":1247,"x_min":56,"x_max":1191,"o":"m 108 0 l 669 972 l 781 972 l 220 0 l 108 0 m 222 592 q 138 615 176 592 q 78 675 101 637 q 56 758 56 713 q 78 843 56 806 q 139 903 101 881 q 222 925 176 925 q 305 902 267 925 q 365 842 342 880 q 388 758 388 804 q 365 674 388 712 q 305 615 342 637 q 222 592 267 592 m 222 667 q 287 693 260 667 q 313 758 313 720 q 287 824 313 797 q 222 851 260 851 q 157 824 183 851 q 130 758 130 797 q 157 693 130 720 q 222 667 183 667 m 641 47 q 557 70 595 47 q 497 131 519 93 q 474 213 474 169 q 497 298 474 260 q 558 358 520 335 q 641 380 596 380 q 725 357 688 380 q 785 296 763 334 q 807 213 807 258 q 785 130 807 167 q 725 69 763 92 q 641 47 687 47 m 641 121 q 706 148 678 121 q 733 213 733 175 q 706 278 733 251 q 641 306 678 306 q 575 278 603 306 q 548 213 548 251 q 575 148 548 175 q 641 121 603 121 m 1025 47 q 941 70 979 47 q 881 131 903 93 q 858 213 858 169 q 881 298 858 260 q 942 358 904 335 q 1025 380 981 380 q 1110 357 1072 380 q 1169 296 1147 334 q 1191 213 1191 258 q 1169 130 1191 167 q 1109 69 1147 92 q 1025 47 1071 47 m 1025 121 q 1090 148 1063 121 q 1117 213 1117 175 q 1090 278 1117 251 q 1025 306 1063 306 q 960 278 987 306 q 933 213 933 251 q 960 148 933 175 q 1025 121 987 121 z "},"↑":{"ha":799,"x_min":56,"x_max":744,"o":"m 351 100 l 351 756 l 125 528 l 56 598 l 400 942 l 744 598 l 675 528 l 449 756 l 449 100 l 351 100 z "},"↗":{"ha":740,"x_min":56,"x_max":684,"o":"m 124 207 l 56 276 l 518 738 l 197 738 l 197 835 l 684 835 l 684 349 l 587 349 l 587 669 l 124 207 z "},"→":{"ha":952,"x_min":56,"x_max":897,"o":"m 552 177 l 483 246 l 709 472 l 56 472 l 56 569 l 709 569 l 483 796 l 552 865 l 897 521 l 552 177 z "},"↘":{"ha":740,"x_min":56,"x_max":684,"o":"m 198 207 l 198 304 l 518 304 l 56 766 l 124 835 l 587 373 l 587 693 l 684 693 l 684 207 l 198 207 z "},"↓":{"ha":799,"x_min":56,"x_max":743,"o":"m 399 101 l 56 444 l 124 513 l 350 287 l 350 941 l 447 941 l 447 287 l 674 513 l 743 444 l 399 101 z "},"↙":{"ha":740,"x_min":56,"x_max":684,"o":"m 56 207 l 56 693 l 153 693 l 153 373 l 615 835 l 684 766 l 222 304 l 542 304 l 542 207 l 56 207 z "},"←":{"ha":951,"x_min":56,"x_max":896,"o":"m 399 177 l 56 521 l 399 865 l 467 796 l 241 569 l 896 569 l 896 472 l 241 472 l 467 246 l 399 177 z "},"↖":{"ha":740,"x_min":56,"x_max":685,"o":"m 616 207 l 153 669 l 153 349 l 56 349 l 56 835 l 542 835 l 542 738 l 222 738 l 685 275 l 616 207 z "},"↔":{"ha":1169,"x_min":56,"x_max":1114,"o":"m 399 177 l 56 521 l 399 865 l 467 796 l 241 569 l 927 569 l 701 796 l 769 865 l 1114 521 l 769 177 l 701 246 l 927 472 l 241 472 l 467 246 l 399 177 z "},"↕":{"ha":799,"x_min":56,"x_max":744,"o":"m 399 -9 l 56 335 l 124 405 l 351 177 l 351 865 l 124 638 l 56 707 l 399 1051 l 744 707 l 674 638 l 448 865 l 448 177 l 674 405 l 744 335 l 399 -9 z "},"◊":{"ha":600,"x_min":42,"x_max":558,"o":"m 228 0 l 42 488 l 226 972 l 374 972 l 558 488 l 372 0 l 228 0 m 300 93 l 457 488 l 300 882 l 144 488 l 300 93 z "}}}
